ISO-10303-21;
HEADER;
/* Generated by software containing ST-Developer
 * from STEP Tools, Inc. (www.steptools.com) 
 */

FILE_DESCRIPTION(
/* description */ (''),
/* implementation_level */ '2;1');

FILE_NAME(
/* name */ '3DP Insert for stem casters.step',
/* time_stamp */ '2026-08-28T20:39:42-04:00',
/* author */ (''),
/* organization */ (''),
/* preprocessor_version */ 'ST-DEVELOPER v20.1',
/* originating_system */ 'Autodesk Translation Framework v15.8.0.0',
/* authorisation */ '');

FILE_SCHEMA (('AUTOMOTIVE_DESIGN { 1 0 10303 214 3 1 1 }'));
ENDSEC;

DATA;
#10=MECHANICAL_DESIGN_GEOMETRIC_PRESENTATION_REPRESENTATION('',(#13,#14),
#368);
#11=SHAPE_REPRESENTATION_RELATIONSHIP('SRR','None',#375,#12);
#12=ADVANCED_BREP_SHAPE_REPRESENTATION('',(#15,#16),#367);
#13=STYLED_ITEM('',(#384),#15);
#14=STYLED_ITEM('',(#385),#16);
#15=MANIFOLD_SOLID_BREP('Body1',#200);
#16=MANIFOLD_SOLID_BREP('Body2',#201);
#17=FACE_BOUND('',#52,.T.);
#18=FACE_BOUND('',#55,.T.);
#19=FACE_BOUND('',#58,.T.);
#20=FACE_BOUND('',#62,.T.);
#21=FACE_BOUND('',#66,.T.);
#22=FACE_BOUND('',#68,.T.);
#23=PLANE('',#220);
#24=PLANE('',#226);
#25=PLANE('',#230);
#26=PLANE('',#235);
#27=PLANE('',#242);
#28=PLANE('',#243);
#29=CYLINDRICAL_SURFACE('',#218,9.475);
#30=CYLINDRICAL_SURFACE('',#228,12.0000001788139);
#31=CYLINDRICAL_SURFACE('',#231,4.9609375);
#32=CYLINDRICAL_SURFACE('',#233,5.95);
#33=CYLINDRICAL_SURFACE('',#236,3.97002);
#34=CYLINDRICAL_SURFACE('',#239,6.3);
#35=FACE_OUTER_BOUND('',#49,.T.);
#36=FACE_OUTER_BOUND('',#50,.T.);
#37=FACE_OUTER_BOUND('',#51,.T.);
#38=FACE_OUTER_BOUND('',#53,.T.);
#39=FACE_OUTER_BOUND('',#54,.T.);
#40=FACE_OUTER_BOUND('',#56,.T.);
#41=FACE_OUTER_BOUND('',#57,.T.);
#42=FACE_OUTER_BOUND('',#59,.T.);
#43=FACE_OUTER_BOUND('',#60,.T.);
#44=FACE_OUTER_BOUND('',#61,.T.);
#45=FACE_OUTER_BOUND('',#63,.T.);
#46=FACE_OUTER_BOUND('',#64,.T.);
#47=FACE_OUTER_BOUND('',#65,.T.);
#48=FACE_OUTER_BOUND('',#67,.T.);
#49=EDGE_LOOP('',(#138,#139,#140,#141));
#50=EDGE_LOOP('',(#142,#143,#144,#145));
#51=EDGE_LOOP('',(#146));
#52=EDGE_LOOP('',(#147));
#53=EDGE_LOOP('',(#148,#149,#150,#151,#152));
#54=EDGE_LOOP('',(#153));
#55=EDGE_LOOP('',(#154));
#56=EDGE_LOOP('',(#155,#156,#157,#158));
#57=EDGE_LOOP('',(#159));
#58=EDGE_LOOP('',(#160));
#59=EDGE_LOOP('',(#161,#162,#163,#164));
#60=EDGE_LOOP('',(#165,#166,#167,#168,#169));
#61=EDGE_LOOP('',(#170));
#62=EDGE_LOOP('',(#171));
#63=EDGE_LOOP('',(#172,#173,#174,#175));
#64=EDGE_LOOP('',(#176,#177,#178,#179));
#65=EDGE_LOOP('',(#180));
#66=EDGE_LOOP('',(#181));
#67=EDGE_LOOP('',(#182));
#68=EDGE_LOOP('',(#183));
#69=LINE('',#317,#77);
#70=LINE('',#321,#78);
#71=LINE('',#330,#79);
#72=LINE('',#340,#80);
#73=LINE('',#345,#81);
#74=LINE('',#348,#82);
#75=LINE('',#355,#83);
#76=LINE('',#361,#84);
#77=VECTOR('',#250,8.975);
#78=VECTOR('',#255,9.475);
#79=VECTOR('',#266,7.7125);
#80=VECTOR('',#279,12.0000001788139);
#81=VECTOR('',#286,4.9609375);
#82=VECTOR('',#289,5.95);
#83=VECTOR('',#298,4.9609375);
#84=VECTOR('',#305,6.3);
#85=CIRCLE('',#216,8.475);
#86=CIRCLE('',#217,9.475);
#87=CIRCLE('',#219,9.475);
#88=CIRCLE('',#221,4.9609375);
#89=CIRCLE('',#223,9.475);
#90=CIRCLE('',#224,5.95);
#91=CIRCLE('',#225,5.95);
#92=CIRCLE('',#227,12.0000001788139);
#93=CIRCLE('',#229,12.0000001788139);
#94=CIRCLE('',#232,4.9609375);
#95=CIRCLE('',#234,5.95);
#96=CIRCLE('',#237,3.97002);
#97=CIRCLE('',#238,3.97002);
#98=CIRCLE('',#240,6.3);
#99=CIRCLE('',#241,6.3);
#100=VERTEX_POINT('',#314);
#101=VERTEX_POINT('',#316);
#102=VERTEX_POINT('',#320);
#103=VERTEX_POINT('',#324);
#104=VERTEX_POINT('',#327);
#105=VERTEX_POINT('',#329);
#106=VERTEX_POINT('',#331);
#107=VERTEX_POINT('',#335);
#108=VERTEX_POINT('',#338);
#109=VERTEX_POINT('',#343);
#110=VERTEX_POINT('',#347);
#111=VERTEX_POINT('',#352);
#112=VERTEX_POINT('',#354);
#113=VERTEX_POINT('',#358);
#114=VERTEX_POINT('',#360);
#115=EDGE_CURVE('',#100,#100,#85,.T.);
#116=EDGE_CURVE('',#100,#101,#69,.T.);
#117=EDGE_CURVE('',#101,#101,#86,.T.);
#118=EDGE_CURVE('',#101,#102,#70,.T.);
#119=EDGE_CURVE('',#102,#102,#87,.T.);
#120=EDGE_CURVE('',#103,#103,#88,.T.);
#121=EDGE_CURVE('',#104,#104,#89,.T.);
#122=EDGE_CURVE('',#104,#105,#71,.T.);
#123=EDGE_CURVE('',#105,#106,#90,.T.);
#124=EDGE_CURVE('',#106,#105,#91,.T.);
#125=EDGE_CURVE('',#107,#107,#92,.T.);
#126=EDGE_CURVE('',#108,#108,#93,.T.);
#127=EDGE_CURVE('',#108,#107,#72,.T.);
#128=EDGE_CURVE('',#109,#109,#94,.T.);
#129=EDGE_CURVE('',#109,#103,#73,.T.);
#130=EDGE_CURVE('',#106,#110,#74,.T.);
#131=EDGE_CURVE('',#110,#110,#95,.T.);
#132=EDGE_CURVE('',#111,#111,#96,.T.);
#133=EDGE_CURVE('',#111,#112,#75,.T.);
#134=EDGE_CURVE('',#112,#112,#97,.F.);
#135=EDGE_CURVE('',#113,#113,#98,.T.);
#136=EDGE_CURVE('',#113,#114,#76,.T.);
#137=EDGE_CURVE('',#114,#114,#99,.T.);
#138=ORIENTED_EDGE('',*,*,#115,.T.);
#139=ORIENTED_EDGE('',*,*,#116,.T.);
#140=ORIENTED_EDGE('',*,*,#117,.T.);
#141=ORIENTED_EDGE('',*,*,#116,.F.);
#142=ORIENTED_EDGE('',*,*,#117,.F.);
#143=ORIENTED_EDGE('',*,*,#118,.T.);
#144=ORIENTED_EDGE('',*,*,#119,.T.);
#145=ORIENTED_EDGE('',*,*,#118,.F.);
#146=ORIENTED_EDGE('',*,*,#115,.F.);
#147=ORIENTED_EDGE('',*,*,#120,.T.);
#148=ORIENTED_EDGE('',*,*,#121,.F.);
#149=ORIENTED_EDGE('',*,*,#122,.T.);
#150=ORIENTED_EDGE('',*,*,#123,.T.);
#151=ORIENTED_EDGE('',*,*,#124,.T.);
#152=ORIENTED_EDGE('',*,*,#122,.F.);
#153=ORIENTED_EDGE('',*,*,#125,.T.);
#154=ORIENTED_EDGE('',*,*,#121,.T.);
#155=ORIENTED_EDGE('',*,*,#126,.F.);
#156=ORIENTED_EDGE('',*,*,#127,.T.);
#157=ORIENTED_EDGE('',*,*,#125,.F.);
#158=ORIENTED_EDGE('',*,*,#127,.F.);
#159=ORIENTED_EDGE('',*,*,#126,.T.);
#160=ORIENTED_EDGE('',*,*,#119,.F.);
#161=ORIENTED_EDGE('',*,*,#128,.F.);
#162=ORIENTED_EDGE('',*,*,#129,.T.);
#163=ORIENTED_EDGE('',*,*,#120,.F.);
#164=ORIENTED_EDGE('',*,*,#129,.F.);
#165=ORIENTED_EDGE('',*,*,#124,.F.);
#166=ORIENTED_EDGE('',*,*,#130,.T.);
#167=ORIENTED_EDGE('',*,*,#131,.T.);
#168=ORIENTED_EDGE('',*,*,#130,.F.);
#169=ORIENTED_EDGE('',*,*,#123,.F.);
#170=ORIENTED_EDGE('',*,*,#131,.F.);
#171=ORIENTED_EDGE('',*,*,#128,.T.);
#172=ORIENTED_EDGE('',*,*,#132,.F.);
#173=ORIENTED_EDGE('',*,*,#133,.T.);
#174=ORIENTED_EDGE('',*,*,#134,.F.);
#175=ORIENTED_EDGE('',*,*,#133,.F.);
#176=ORIENTED_EDGE('',*,*,#135,.F.);
#177=ORIENTED_EDGE('',*,*,#136,.T.);
#178=ORIENTED_EDGE('',*,*,#137,.F.);
#179=ORIENTED_EDGE('',*,*,#136,.F.);
#180=ORIENTED_EDGE('',*,*,#137,.T.);
#181=ORIENTED_EDGE('',*,*,#134,.T.);
#182=ORIENTED_EDGE('',*,*,#135,.T.);
#183=ORIENTED_EDGE('',*,*,#132,.T.);
#184=CONICAL_SURFACE('',#215,8.975,0.785398163397448);
#185=CONICAL_SURFACE('',#222,7.7125,1.05471064675775);
#186=ADVANCED_FACE('',(#35),#184,.T.);
#187=ADVANCED_FACE('',(#36),#29,.T.);
#188=ADVANCED_FACE('',(#37,#17),#23,.T.);
#189=ADVANCED_FACE('',(#38),#185,.F.);
#190=ADVANCED_FACE('',(#39,#18),#24,.F.);
#191=ADVANCED_FACE('',(#40),#30,.T.);
#192=ADVANCED_FACE('',(#41,#19),#25,.T.);
#193=ADVANCED_FACE('',(#42),#31,.F.);
#194=ADVANCED_FACE('',(#43),#32,.F.);
#195=ADVANCED_FACE('',(#44,#20),#26,.F.);
#196=ADVANCED_FACE('',(#45),#33,.F.);
#197=ADVANCED_FACE('',(#46),#34,.T.);
#198=ADVANCED_FACE('',(#47,#21),#27,.T.);
#199=ADVANCED_FACE('',(#48,#22),#28,.F.);
#200=CLOSED_SHELL('',(#186,#187,#188,#189,#190,#191,#192,#193,#194,#195));
#201=CLOSED_SHELL('',(#196,#197,#198,#199));
#202=DERIVED_UNIT_ELEMENT(#204,1.);
#203=DERIVED_UNIT_ELEMENT(#370,-3.);
#204=(
MASS_UNIT()
NAMED_UNIT(*)
SI_UNIT(.KILO.,.GRAM.)
);
#205=DERIVED_UNIT((#202,#203));
#206=MEASURE_REPRESENTATION_ITEM('density measure',
POSITIVE_RATIO_MEASURE(7850.),#205);
#207=PROPERTY_DEFINITION_REPRESENTATION(#212,#209);
#208=PROPERTY_DEFINITION_REPRESENTATION(#213,#210);
#209=REPRESENTATION('material name',(#211),#367);
#210=REPRESENTATION('density',(#206),#367);
#211=DESCRIPTIVE_REPRESENTATION_ITEM('Steel','Steel');
#212=PROPERTY_DEFINITION('material property','material name',#377);
#213=PROPERTY_DEFINITION('material property','density of part',#377);
#214=AXIS2_PLACEMENT_3D('',#312,#244,#245);
#215=AXIS2_PLACEMENT_3D('',#313,#246,#247);
#216=AXIS2_PLACEMENT_3D('',#315,#248,#249);
#217=AXIS2_PLACEMENT_3D('',#318,#251,#252);
#218=AXIS2_PLACEMENT_3D('',#319,#253,#254);
#219=AXIS2_PLACEMENT_3D('',#322,#256,#257);
#220=AXIS2_PLACEMENT_3D('',#323,#258,#259);
#221=AXIS2_PLACEMENT_3D('',#325,#260,#261);
#222=AXIS2_PLACEMENT_3D('',#326,#262,#263);
#223=AXIS2_PLACEMENT_3D('',#328,#264,#265);
#224=AXIS2_PLACEMENT_3D('',#332,#267,#268);
#225=AXIS2_PLACEMENT_3D('',#333,#269,#270);
#226=AXIS2_PLACEMENT_3D('',#334,#271,#272);
#227=AXIS2_PLACEMENT_3D('',#336,#273,#274);
#228=AXIS2_PLACEMENT_3D('',#337,#275,#276);
#229=AXIS2_PLACEMENT_3D('',#339,#277,#278);
#230=AXIS2_PLACEMENT_3D('',#341,#280,#281);
#231=AXIS2_PLACEMENT_3D('',#342,#282,#283);
#232=AXIS2_PLACEMENT_3D('',#344,#284,#285);
#233=AXIS2_PLACEMENT_3D('',#346,#287,#288);
#234=AXIS2_PLACEMENT_3D('',#349,#290,#291);
#235=AXIS2_PLACEMENT_3D('',#350,#292,#293);
#236=AXIS2_PLACEMENT_3D('',#351,#294,#295);
#237=AXIS2_PLACEMENT_3D('',#353,#296,#297);
#238=AXIS2_PLACEMENT_3D('',#356,#299,#300);
#239=AXIS2_PLACEMENT_3D('',#357,#301,#302);
#240=AXIS2_PLACEMENT_3D('',#359,#303,#304);
#241=AXIS2_PLACEMENT_3D('',#362,#306,#307);
#242=AXIS2_PLACEMENT_3D('',#363,#308,#309);
#243=AXIS2_PLACEMENT_3D('',#364,#310,#311);
#244=DIRECTION('axis',(0.,0.,1.));
#245=DIRECTION('refdir',(1.,0.,0.));
#246=DIRECTION('center_axis',(0.,0.,-1.));
#247=DIRECTION('ref_axis',(1.,0.,0.));
#248=DIRECTION('center_axis',(0.,0.,-1.));
#249=DIRECTION('ref_axis',(1.,0.,0.));
#250=DIRECTION('',(-0.707106781186547,-8.65956056235493E-17,-0.707106781186548));
#251=DIRECTION('center_axis',(0.,0.,1.));
#252=DIRECTION('ref_axis',(1.,0.,0.));
#253=DIRECTION('center_axis',(0.,0.,1.));
#254=DIRECTION('ref_axis',(1.,0.,0.));
#255=DIRECTION('',(0.,0.,-1.));
#256=DIRECTION('center_axis',(0.,0.,1.));
#257=DIRECTION('ref_axis',(1.,0.,0.));
#258=DIRECTION('center_axis',(0.,0.,1.));
#259=DIRECTION('ref_axis',(1.,0.,0.));
#260=DIRECTION('center_axis',(0.,0.,-1.));
#261=DIRECTION('ref_axis',(1.,0.,0.));
#262=DIRECTION('center_axis',(0.,0.,-1.));
#263=DIRECTION('ref_axis',(-1.,0.,0.));
#264=DIRECTION('center_axis',(0.,0.,1.));
#265=DIRECTION('ref_axis',(1.,0.,0.));
#266=DIRECTION('',(-0.869757474242452,1.0651457068655E-16,0.493479418009902));
#267=DIRECTION('center_axis',(0.,0.,1.));
#268=DIRECTION('ref_axis',(1.,0.,0.));
#269=DIRECTION('center_axis',(0.,0.,1.));
#270=DIRECTION('ref_axis',(1.,0.,0.));
#271=DIRECTION('center_axis',(0.,0.,1.));
#272=DIRECTION('ref_axis',(1.,0.,0.));
#273=DIRECTION('center_axis',(0.,0.,-1.));
#274=DIRECTION('ref_axis',(1.,0.,0.));
#275=DIRECTION('center_axis',(0.,0.,1.));
#276=DIRECTION('ref_axis',(1.,0.,0.));
#277=DIRECTION('center_axis',(0.,0.,1.));
#278=DIRECTION('ref_axis',(1.,0.,0.));
#279=DIRECTION('',(0.,0.,-1.));
#280=DIRECTION('center_axis',(0.,0.,1.));
#281=DIRECTION('ref_axis',(1.,0.,0.));
#282=DIRECTION('center_axis',(0.,0.,1.));
#283=DIRECTION('ref_axis',(1.,0.,0.));
#284=DIRECTION('center_axis',(0.,0.,1.));
#285=DIRECTION('ref_axis',(1.,0.,0.));
#286=DIRECTION('',(0.,0.,1.));
#287=DIRECTION('center_axis',(0.,0.,1.));
#288=DIRECTION('ref_axis',(1.,0.,0.));
#289=DIRECTION('',(0.,0.,1.));
#290=DIRECTION('center_axis',(0.,0.,1.));
#291=DIRECTION('ref_axis',(1.,0.,0.));
#292=DIRECTION('center_axis',(0.,0.,1.));
#293=DIRECTION('ref_axis',(1.,0.,0.));
#294=DIRECTION('center_axis',(0.,0.,1.));
#295=DIRECTION('ref_axis',(1.,0.,0.));
#296=DIRECTION('center_axis',(0.,0.,-1.));
#297=DIRECTION('ref_axis',(1.,0.,0.));
#298=DIRECTION('',(0.,0.,-1.));
#299=DIRECTION('center_axis',(0.,0.,-1.));
#300=DIRECTION('ref_axis',(1.,0.,0.));
#301=DIRECTION('center_axis',(0.,0.,1.));
#302=DIRECTION('ref_axis',(1.,0.,0.));
#303=DIRECTION('center_axis',(0.,0.,1.));
#304=DIRECTION('ref_axis',(1.,0.,0.));
#305=DIRECTION('',(0.,0.,-1.));
#306=DIRECTION('center_axis',(0.,0.,-1.));
#307=DIRECTION('ref_axis',(1.,0.,0.));
#308=DIRECTION('center_axis',(0.,0.,-1.));
#309=DIRECTION('ref_axis',(1.,0.,0.));
#310=DIRECTION('center_axis',(0.,0.,-1.));
#311=DIRECTION('ref_axis',(-1.,0.,0.));
#312=CARTESIAN_POINT('',(0.,0.,0.));
#313=CARTESIAN_POINT('Origin',(0.,0.,16.5));
#314=CARTESIAN_POINT('',(-8.475,1.03788816227738E-15,17.));
#315=CARTESIAN_POINT('Origin',(0.,0.,17.));
#316=CARTESIAN_POINT('',(-9.475,-1.16035284219212E-15,16.));
#317=CARTESIAN_POINT('',(-8.975,-1.09912050223475E-15,16.5));
#318=CARTESIAN_POINT('Origin',(0.,0.,16.));
#319=CARTESIAN_POINT('Origin',(0.,0.,0.));
#320=CARTESIAN_POINT('',(-9.475,-1.16035284219212E-15,1.));
#321=CARTESIAN_POINT('',(-9.475,-1.16035284219212E-15,0.));
#322=CARTESIAN_POINT('Origin',(0.,0.,1.));
#323=CARTESIAN_POINT('Origin',(0.,0.,17.));
#324=CARTESIAN_POINT('',(-4.9609375,6.07539623014507E-16,17.));
#325=CARTESIAN_POINT('Origin',(0.,0.,17.));
#326=CARTESIAN_POINT('Origin',(0.,0.,-1.));
#327=CARTESIAN_POINT('',(9.475,-1.16035284219212E-15,-2.));
#328=CARTESIAN_POINT('Origin',(0.,0.,-2.));
#329=CARTESIAN_POINT('',(5.95,-7.28664845492675E-16,-1.38777878078145E-16));
#330=CARTESIAN_POINT('',(7.7125,-9.44508843842396E-16,-1.));
#331=CARTESIAN_POINT('',(-5.95,-7.28664845492675E-16,0.));
#332=CARTESIAN_POINT('Origin',(0.,0.,0.));
#333=CARTESIAN_POINT('Origin',(0.,0.,0.));
#334=CARTESIAN_POINT('Origin',(0.,0.,-2.));
#335=CARTESIAN_POINT('',(-12.0000001788139,-1.46957618087521E-15,-2.));
#336=CARTESIAN_POINT('Origin',(0.,0.,-2.));
#337=CARTESIAN_POINT('Origin',(0.,0.,0.));
#338=CARTESIAN_POINT('',(-12.0000001788139,-1.46957618087521E-15,1.));
#339=CARTESIAN_POINT('Origin',(0.,0.,1.));
#340=CARTESIAN_POINT('',(-12.0000001788139,-1.46957618087521E-15,0.));
#341=CARTESIAN_POINT('Origin',(0.,0.,1.));
#342=CARTESIAN_POINT('Origin',(0.,0.,0.));
#343=CARTESIAN_POINT('',(-4.9609375,-6.07539623014507E-16,13.7));
#344=CARTESIAN_POINT('Origin',(0.,0.,13.7));
#345=CARTESIAN_POINT('',(-4.9609375,-6.07539623014507E-16,0.));
#346=CARTESIAN_POINT('Origin',(0.,0.,0.));
#347=CARTESIAN_POINT('',(-5.95,-7.28664845492675E-16,13.7));
#348=CARTESIAN_POINT('',(-5.95,-7.28664845492675E-16,0.));
#349=CARTESIAN_POINT('Origin',(0.,0.,13.7));
#350=CARTESIAN_POINT('Origin',(0.,0.,13.7));
#351=CARTESIAN_POINT('Origin',(0.,0.,5.55111512312578E-16));
#352=CARTESIAN_POINT('',(-3.97002,4.86187228555097E-16,13.7));
#353=CARTESIAN_POINT('Origin',(0.,0.,13.7));
#354=CARTESIAN_POINT('',(-3.97002,4.86187228555097E-16,5.55111512312578E-16));
#355=CARTESIAN_POINT('',(-3.97002,-4.86187228555097E-16,5.55111512312578E-16));
#356=CARTESIAN_POINT('Origin',(0.,0.,5.55111512312578E-16));
#357=CARTESIAN_POINT('Origin',(0.,0.,5.55111512312578E-16));
#358=CARTESIAN_POINT('',(-6.3,-7.71527483462833E-16,13.7));
#359=CARTESIAN_POINT('Origin',(0.,0.,13.7));
#360=CARTESIAN_POINT('',(-6.3,7.71527483462833E-16,5.55111512312578E-16));
#361=CARTESIAN_POINT('',(-6.3,-7.71527483462833E-16,5.55111512312578E-16));
#362=CARTESIAN_POINT('Origin',(0.,0.,5.55111512312578E-16));
#363=CARTESIAN_POINT('Origin',(0.,0.,5.55111512312578E-16));
#364=CARTESIAN_POINT('Origin',(0.,0.,13.7));
#365=UNCERTAINTY_MEASURE_WITH_UNIT(LENGTH_MEASURE(0.01),#369,
'DISTANCE_ACCURACY_VALUE',
'Maximum model space distance between geometric entities at asserted c
onnectivities');
#366=UNCERTAINTY_MEASURE_WITH_UNIT(LENGTH_MEASURE(0.01),#369,
'DISTANCE_ACCURACY_VALUE',
'Maximum model space distance between geometric entities at asserted c
onnectivities');
#367=(
GEOMETRIC_REPRESENTATION_CONTEXT(3)
GLOBAL_UNCERTAINTY_ASSIGNED_CONTEXT((#365))
GLOBAL_UNIT_ASSIGNED_CONTEXT((#369,#371,#372))
REPRESENTATION_CONTEXT('','3D')
);
#368=(
GEOMETRIC_REPRESENTATION_CONTEXT(3)
GLOBAL_UNCERTAINTY_ASSIGNED_CONTEXT((#366))
GLOBAL_UNIT_ASSIGNED_CONTEXT((#369,#371,#372))
REPRESENTATION_CONTEXT('','3D')
);
#369=(
LENGTH_UNIT()
NAMED_UNIT(*)
SI_UNIT(.MILLI.,.METRE.)
);
#370=(
LENGTH_UNIT()
NAMED_UNIT(*)
SI_UNIT($,.METRE.)
);
#371=(
NAMED_UNIT(*)
PLANE_ANGLE_UNIT()
SI_UNIT($,.RADIAN.)
);
#372=(
NAMED_UNIT(*)
SI_UNIT($,.STERADIAN.)
SOLID_ANGLE_UNIT()
);
#373=SHAPE_DEFINITION_REPRESENTATION(#374,#375);
#374=PRODUCT_DEFINITION_SHAPE('',$,#377);
#375=SHAPE_REPRESENTATION('',(#214),#367);
#376=PRODUCT_DEFINITION_CONTEXT('part definition',#381,'design');
#377=PRODUCT_DEFINITION('2026-08-22-19-17-44-122',
'3DP Insert for stem casters',#378,#376);
#378=PRODUCT_DEFINITION_FORMATION('',$,#383);
#379=PRODUCT_RELATED_PRODUCT_CATEGORY('3DP Insert for stem casters',
'3DP Insert for stem casters',(#383));
#380=APPLICATION_PROTOCOL_DEFINITION('international standard',
'automotive_design',2009,#381);
#381=APPLICATION_CONTEXT(
'Core Data for Automotive Mechanical Design Process');
#382=PRODUCT_CONTEXT('part definition',#381,'mechanical');
#383=PRODUCT('2026-08-22-19-17-44-122','3DP Insert for stem casters',$,
(#382));
#384=PRESENTATION_STYLE_ASSIGNMENT((#386));
#385=PRESENTATION_STYLE_ASSIGNMENT((#387));
#386=SURFACE_STYLE_USAGE(.BOTH.,#388);
#387=SURFACE_STYLE_USAGE(.BOTH.,#389);
#388=SURFACE_SIDE_STYLE('',(#390));
#389=SURFACE_SIDE_STYLE('',(#391));
#390=SURFACE_STYLE_FILL_AREA(#392);
#391=SURFACE_STYLE_FILL_AREA(#393);
#392=FILL_AREA_STYLE('Steel - Satin',(#394));
#393=FILL_AREA_STYLE('Brass - Polished',(#395));
#394=FILL_AREA_STYLE_COLOUR('Steel - Satin',#396);
#395=FILL_AREA_STYLE_COLOUR('Brass - Polished',#397);
#396=COLOUR_RGB('Steel - Satin',0.627450980392157,0.627450980392157,0.627450980392157);
#397=COLOUR_RGB('Brass - Polished',0.952941176470588,0.796078431372549,
0.486274509803922);
ENDSEC;
END-ISO-10303-21;
