ISO-10303-21;
HEADER;
/* Generated by software containing ST-Developer
 * from STEP Tools, Inc. (www.steptools.com) 
 */

FILE_DESCRIPTION(
/* description */ (''),
/* implementation_level */ '2;1');

FILE_NAME(
/* name */ 'Jig for SST.step',
/* time_stamp */ '2026-08-28T20:39:16-04:00',
/* author */ (''),
/* organization */ (''),
/* preprocessor_version */ 'ST-DEVELOPER v20.1',
/* originating_system */ 'Autodesk Translation Framework v15.8.0.0',
/* authorisation */ '');

FILE_SCHEMA (('AUTOMOTIVE_DESIGN { 1 0 10303 214 3 1 1 }'));
ENDSEC;

DATA;
#10=MECHANICAL_DESIGN_GEOMETRIC_PRESENTATION_REPRESENTATION('',(#13),#1022);
#11=SHAPE_REPRESENTATION_RELATIONSHIP('SRR','None',#1029,#12);
#12=ADVANCED_BREP_SHAPE_REPRESENTATION('',(#14),#1021);
#13=STYLED_ITEM('',(#1038),#14);
#14=MANIFOLD_SOLID_BREP('Body1',#446);
#15=TOROIDAL_SURFACE('',#490,12.889,0.6);
#16=TOROIDAL_SURFACE('',#491,12.889,0.6);
#17=B_SPLINE_SURFACE_WITH_KNOTS('',3,3,((#803,#804,#805,#806,#807,#808,
#809,#810,#811,#812,#813),(#814,#815,#816,#817,#818,#819,#820,#821,#822,
#823,#824),(#825,#826,#827,#828,#829,#830,#831,#832,#833,#834,#835),(#836,
#837,#838,#839,#840,#841,#842,#843,#844,#845,#846)),.UNSPECIFIED.,.F.,.F.,
 .F.,(4,4),(4,1,1,1,1,1,1,1,4),(0.,1.),(0.0191000329124076,0.208429165348266,
0.397758297784124,0.77641656265584,1.15507482752756,1.91239135727099,2.29104962214271,
2.48037875457856,2.66970788701442),.UNSPECIFIED.);
#18=B_SPLINE_SURFACE_WITH_KNOTS('',3,3,((#907,#908,#909,#910),(#911,#912,
#913,#914),(#915,#916,#917,#918),(#919,#920,#921,#922),(#923,#924,#925,
#926),(#927,#928,#929,#930),(#931,#932,#933,#934)),.UNSPECIFIED.,.F.,.F.,
 .F.,(4,1,1,1,4),(4,4),(0.,0.285714285714286,0.571428571428571,0.857142857142857,
1.),(0.,1.),.UNSPECIFIED.);
#19=B_SPLINE_SURFACE_WITH_KNOTS('',3,3,((#979,#980,#981,#982),(#983,#984,
#985,#986),(#987,#988,#989,#990),(#991,#992,#993,#994)),.UNSPECIFIED.,.F.,
 .F.,.F.,(4,4),(4,4),(0.,1.),(0.,1.),.UNSPECIFIED.);
#20=B_SPLINE_SURFACE_WITH_KNOTS('',3,3,((#995,#996,#997,#998),(#999,#1000,
#1001,#1002),(#1003,#1004,#1005,#1006),(#1007,#1008,#1009,#1010)),
 .UNSPECIFIED.,.F.,.F.,.F.,(4,4),(4,4),(0.,1.),(0.,1.),.UNSPECIFIED.);
#21=B_SPLINE_CURVE_WITH_KNOTS('',3,(#633,#634,#635,#636,#637,#638,#639,
#640),.UNSPECIFIED.,.F.,.F.,(4,2,2,4),(0.670986681164155,0.674632984306234,
0.693476605828809,0.712320227351384),.UNSPECIFIED.);
#22=B_SPLINE_CURVE_WITH_KNOTS('',3,(#648,#649,#650,#651,#652,#653,#654,
#655),.UNSPECIFIED.,.F.,.F.,(4,2,2,4),(0.,0.0188436215225755,0.037687243045151,
0.0413335461872299),.UNSPECIFIED.);
#23=B_SPLINE_CURVE_WITH_KNOTS('',3,(#661,#662,#663,#664,#665,#666,#667,
#668,#669,#670,#671,#672,#673,#674,#675,#676,#677,#678,#679),
 .UNSPECIFIED.,.F.,.F.,(4,2,2,2,3,2,2,2,4),(0.918473131036312,0.940184326404553,
1.01334359132602,1.0846885033184,1.15603341531078,1.22737832730316,1.29872323929553,
1.371882504217,1.39359369958524),.UNSPECIFIED.);
#24=B_SPLINE_CURVE_WITH_KNOTS('',3,(#681,#682,#683,#684),.UNSPECIFIED.,
 .F.,.F.,(4,4),(0.85464371084258,0.905483513301022),.UNSPECIFIED.);
#25=B_SPLINE_CURVE_WITH_KNOTS('',3,(#686,#687,#688,#689),.UNSPECIFIED.,
 .F.,.F.,(4,4),(0.905483513301022,0.956323315759464),.UNSPECIFIED.);
#26=B_SPLINE_CURVE_WITH_KNOTS('',3,(#691,#692,#693,#694,#695,#696,#697,
#698,#699,#700),.UNSPECIFIED.,.F.,.F.,(4,2,2,2,4),(0.340456423380923,0.362167618749163,
0.435326883670632,0.50667179566301,0.578016707655389),.UNSPECIFIED.);
#27=B_SPLINE_CURVE_WITH_KNOTS('',3,(#702,#703,#704,#705,#706,#707,#708,
#709,#710,#711),.UNSPECIFIED.,.F.,.F.,(4,2,2,2,4),(0.578016707655389,0.649361619647768,
0.720706531640146,0.793865796561615,0.815576991929855),.UNSPECIFIED.);
#28=B_SPLINE_CURVE_WITH_KNOTS('',3,(#713,#714,#715,#716),.UNSPECIFIED.,
 .F.,.F.,(4,4),(0.250988035308565,0.301827837767007),.UNSPECIFIED.);
#29=B_SPLINE_CURVE_WITH_KNOTS('',3,(#717,#718,#719,#720),.UNSPECIFIED.,
 .F.,.F.,(4,4),(0.301827837767007,0.352667640225449),.UNSPECIFIED.);
#30=B_SPLINE_CURVE_WITH_KNOTS('',3,(#747,#748,#749,#750,#751,#752,#753,
#754,#755,#756,#757,#758),.UNSPECIFIED.,.F.,.F.,(4,2,2,2,2,4),(-0.81548818909564,
-0.8148175071801,-0.777218397314233,-0.740005366696606,-0.688618528079824,
-0.639430321952123),.UNSPECIFIED.);
#31=B_SPLINE_CURVE_WITH_KNOTS('',3,(#773,#774,#775,#776,#777,#778,#779,
#780,#781,#782,#783),.UNSPECIFIED.,.F.,.F.,(4,1,1,1,1,1,1,1,4),(-2.63330145357007,
-2.48037875457856,-2.29104962214271,-1.91239135727099,-1.15507482752756,
-0.77641656265584,-0.397758297784124,-0.208429165348266,-0.0555063986511028),
 .UNSPECIFIED.);
#32=B_SPLINE_CURVE_WITH_KNOTS('',3,(#788,#789,#790,#791,#792,#793,#794,
#795,#796,#797,#798,#799),.UNSPECIFIED.,.F.,.F.,(4,2,2,2,2,4),(-0.117729712508335,
-0.084711830622109,-0.0502181033340961,-0.0252386306862946,-1.38777878078145E-17,
0.000450199306172074),.UNSPECIFIED.);
#33=B_SPLINE_CURVE_WITH_KNOTS('',3,(#848,#849,#850,#851,#852,#853,#854,
#855,#856,#857,#858,#859,#860,#861,#862,#863,#864,#865,#866,#867,#868,#869,
#870,#871,#872),.UNSPECIFIED.,.F.,.F.,(4,3,3,3,3,3,3,3,4),(0.,0.00129949018606489,
0.0108761830012731,0.02089569574111,0.0286493686707509,0.0405523652507388,
0.0528005518190322,0.0543819249802711,0.0546312433520146),.UNSPECIFIED.);
#34=B_SPLINE_CURVE_WITH_KNOTS('',3,(#874,#875,#876,#877,#878,#879,#880,
#881,#882,#883,#884,#885,#886,#887,#888,#889,#890,#891,#892,#893,#894,#895),
 .UNSPECIFIED.,.F.,.F.,(4,3,3,3,3,3,3,4),(-0.000250119226482697,-1.24683249835833E-18,
0.0122458618502835,0.0241292789153617,0.0271509268725259,0.0371828329263539,
0.0467599700353203,0.0545531714828388),.UNSPECIFIED.);
#35=B_SPLINE_CURVE_WITH_KNOTS('',3,(#896,#897,#898,#899,#900,#901,#902,
#903,#904,#905,#906),.UNSPECIFIED.,.F.,.F.,(4,1,1,1,1,1,1,1,4),(0.0191000329124076,
0.208429165348266,0.397758297784124,0.77641656265584,1.15507482752756,1.91239135727099,
2.29104962214271,2.48037875457856,2.66970788701442),.UNSPECIFIED.);
#36=B_SPLINE_CURVE_WITH_KNOTS('',3,(#936,#937,#938,#939,#940,#941,#942,
#943,#944,#945),.UNSPECIFIED.,.F.,.F.,(4,3,3,4),(-0.450721843291601,-0.437990498063592,
-0.426055336462258,-0.415268423489837),.UNSPECIFIED.);
#37=B_SPLINE_CURVE_WITH_KNOTS('',3,(#949,#950,#951,#952,#953,#954),
 .UNSPECIFIED.,.F.,.F.,(4,2,4),(-0.0360764148957138,-0.0325766215546944,
0.),.UNSPECIFIED.);
#38=B_SPLINE_CURVE_WITH_KNOTS('',3,(#956,#957,#958,#959,#960,#961,#962,
#963,#964,#965),.UNSPECIFIED.,.F.,.F.,(4,2,2,2,4),(-0.0413327574264607,
-0.0384766311599434,-0.0345921682115605,-0.0291518735374947,0.),
 .UNSPECIFIED.);
#39=B_SPLINE_CURVE_WITH_KNOTS('',3,(#967,#968,#969,#970,#971,#972,#973,
#974,#975,#976,#977,#978),.UNSPECIFIED.,.F.,.F.,(4,2,2,2,2,4),(-0.230606301739854,
-0.192644359774489,-0.178271205595167,-0.17088911901031,-0.165949341436496,
-0.163172201716568),.UNSPECIFIED.);
#40=CONICAL_SURFACE('',#465,11.989,0.785398163397449);
#41=CONICAL_SURFACE('',#495,1.,1.02974425867665);
#42=FACE_BOUND('',#81,.T.);
#43=FACE_BOUND('',#84,.T.);
#44=FACE_BOUND('',#88,.T.);
#45=FACE_BOUND('',#93,.T.);
#46=PLANE('',#463);
#47=PLANE('',#475);
#48=PLANE('',#478);
#49=PLANE('',#479);
#50=PLANE('',#482);
#51=PLANE('',#483);
#52=PLANE('',#485);
#53=PLANE('',#489);
#54=PLANE('',#492);
#55=FACE_OUTER_BOUND('',#79,.T.);
#56=FACE_OUTER_BOUND('',#80,.T.);
#57=FACE_OUTER_BOUND('',#82,.T.);
#58=FACE_OUTER_BOUND('',#83,.T.);
#59=FACE_OUTER_BOUND('',#85,.T.);
#60=FACE_OUTER_BOUND('',#86,.T.);
#61=FACE_OUTER_BOUND('',#87,.T.);
#62=FACE_OUTER_BOUND('',#89,.T.);
#63=FACE_OUTER_BOUND('',#90,.T.);
#64=FACE_OUTER_BOUND('',#91,.T.);
#65=FACE_OUTER_BOUND('',#92,.T.);
#66=FACE_OUTER_BOUND('',#94,.T.);
#67=FACE_OUTER_BOUND('',#95,.T.);
#68=FACE_OUTER_BOUND('',#96,.T.);
#69=FACE_OUTER_BOUND('',#97,.T.);
#70=FACE_OUTER_BOUND('',#98,.T.);
#71=FACE_OUTER_BOUND('',#99,.T.);
#72=FACE_OUTER_BOUND('',#100,.T.);
#73=FACE_OUTER_BOUND('',#101,.T.);
#74=FACE_OUTER_BOUND('',#102,.T.);
#75=FACE_OUTER_BOUND('',#103,.T.);
#76=FACE_OUTER_BOUND('',#104,.T.);
#77=FACE_OUTER_BOUND('',#105,.T.);
#78=FACE_OUTER_BOUND('',#106,.T.);
#79=EDGE_LOOP('',(#287,#288,#289,#290));
#80=EDGE_LOOP('',(#291));
#81=EDGE_LOOP('',(#292));
#82=EDGE_LOOP('',(#293,#294,#295,#296));
#83=EDGE_LOOP('',(#297,#298,#299,#300,#301,#302,#303,#304,#305,#306,#307,
#308,#309,#310,#311));
#84=EDGE_LOOP('',(#312,#313,#314,#315,#316,#317,#318));
#85=EDGE_LOOP('',(#319));
#86=EDGE_LOOP('',(#320,#321,#322,#323));
#87=EDGE_LOOP('',(#324,#325,#326,#327));
#88=EDGE_LOOP('',(#328));
#89=EDGE_LOOP('',(#329,#330,#331,#332));
#90=EDGE_LOOP('',(#333,#334,#335,#336,#337));
#91=EDGE_LOOP('',(#338,#339,#340,#341,#342,#343));
#92=EDGE_LOOP('',(#344,#345,#346,#347,#348,#349));
#93=EDGE_LOOP('',(#350));
#94=EDGE_LOOP('',(#351,#352,#353,#354,#355,#356));
#95=EDGE_LOOP('',(#357,#358,#359,#360,#361));
#96=EDGE_LOOP('',(#362,#363,#364,#365,#366,#367));
#97=EDGE_LOOP('',(#368,#369,#370,#371));
#98=EDGE_LOOP('',(#372,#373,#374,#375,#376,#377));
#99=EDGE_LOOP('',(#378,#379,#380,#381,#382,#383));
#100=EDGE_LOOP('',(#384,#385,#386,#387,#388,#389));
#101=EDGE_LOOP('',(#390,#391,#392,#393));
#102=EDGE_LOOP('',(#394,#395,#396,#397));
#103=EDGE_LOOP('',(#398,#399,#400,#401));
#104=EDGE_LOOP('',(#402,#403,#404));
#105=EDGE_LOOP('',(#405,#406,#407,#408,#409,#410,#411));
#106=EDGE_LOOP('',(#412,#413,#414));
#107=LINE('',#608,#134);
#108=LINE('',#617,#135);
#109=LINE('',#621,#136);
#110=LINE('',#629,#137);
#111=LINE('',#642,#138);
#112=LINE('',#646,#139);
#113=LINE('',#658,#140);
#114=LINE('',#724,#141);
#115=LINE('',#729,#142);
#116=LINE('',#731,#143);
#117=LINE('',#733,#144);
#118=LINE('',#734,#145);
#119=LINE('',#737,#146);
#120=LINE('',#739,#147);
#121=LINE('',#740,#148);
#122=LINE('',#745,#149);
#123=LINE('',#759,#150);
#124=LINE('',#761,#151);
#125=LINE('',#762,#152);
#126=LINE('',#765,#153);
#127=LINE('',#768,#154);
#128=LINE('',#786,#155);
#129=LINE('',#800,#156);
#130=LINE('',#802,#157);
#131=LINE('',#946,#158);
#132=LINE('',#948,#159);
#133=LINE('',#1017,#160);
#134=VECTOR('',#504,2.5296998623);
#135=VECTOR('',#515,11.989);
#136=VECTOR('',#520,13.489);
#137=VECTOR('',#527,10.);
#138=VECTOR('',#530,10.);
#139=VECTOR('',#533,10.);
#140=VECTOR('',#536,10.);
#141=VECTOR('',#541,1.5);
#142=VECTOR('',#546,10.);
#143=VECTOR('',#547,10.);
#144=VECTOR('',#548,10.);
#145=VECTOR('',#549,10.);
#146=VECTOR('',#552,10.);
#147=VECTOR('',#553,10.);
#148=VECTOR('',#554,10.);
#149=VECTOR('',#559,10.);
#150=VECTOR('',#560,10.);
#151=VECTOR('',#563,10.);
#152=VECTOR('',#564,10.);
#153=VECTOR('',#567,10.);
#154=VECTOR('',#570,10.);
#155=VECTOR('',#577,10.);
#156=VECTOR('',#580,10.);
#157=VECTOR('',#583,10.);
#158=VECTOR('',#584,6.26365810000934);
#159=VECTOR('',#585,6.26365810000934);
#160=VECTOR('',#600,1.);
#161=CIRCLE('',#461,2.5296998623);
#162=CIRCLE('',#462,2.5296998623);
#163=CIRCLE('',#464,1.5);
#164=CIRCLE('',#466,10.489);
#165=CIRCLE('',#467,13.489);
#166=CIRCLE('',#469,13.489);
#167=CIRCLE('',#470,13.489);
#168=CIRCLE('',#471,13.489);
#169=CIRCLE('',#472,13.489);
#170=CIRCLE('',#473,13.489);
#171=CIRCLE('',#474,13.489);
#172=CIRCLE('',#477,1.5);
#173=CIRCLE('',#481,1.);
#174=CIRCLE('',#484,1.);
#175=CIRCLE('',#486,12.889);
#176=CIRCLE('',#487,12.889);
#177=CIRCLE('',#494,2.);
#178=CIRCLE('',#496,2.);
#179=VERTEX_POINT('',#605);
#180=VERTEX_POINT('',#607);
#181=VERTEX_POINT('',#611);
#182=VERTEX_POINT('',#614);
#183=VERTEX_POINT('',#616);
#184=VERTEX_POINT('',#620);
#185=VERTEX_POINT('',#622);
#186=VERTEX_POINT('',#624);
#187=VERTEX_POINT('',#626);
#188=VERTEX_POINT('',#628);
#189=VERTEX_POINT('',#630);
#190=VERTEX_POINT('',#632);
#191=VERTEX_POINT('',#641);
#192=VERTEX_POINT('',#643);
#193=VERTEX_POINT('',#645);
#194=VERTEX_POINT('',#647);
#195=VERTEX_POINT('',#656);
#196=VERTEX_POINT('',#659);
#197=VERTEX_POINT('',#660);
#198=VERTEX_POINT('',#680);
#199=VERTEX_POINT('',#685);
#200=VERTEX_POINT('',#690);
#201=VERTEX_POINT('',#701);
#202=VERTEX_POINT('',#712);
#203=VERTEX_POINT('',#723);
#204=VERTEX_POINT('',#727);
#205=VERTEX_POINT('',#728);
#206=VERTEX_POINT('',#730);
#207=VERTEX_POINT('',#732);
#208=VERTEX_POINT('',#736);
#209=VERTEX_POINT('',#738);
#210=VERTEX_POINT('',#742);
#211=VERTEX_POINT('',#743);
#212=VERTEX_POINT('',#746);
#213=VERTEX_POINT('',#764);
#214=VERTEX_POINT('',#766);
#215=VERTEX_POINT('',#770);
#216=VERTEX_POINT('',#772);
#217=VERTEX_POINT('',#784);
#218=VERTEX_POINT('',#847);
#219=VERTEX_POINT('',#873);
#220=VERTEX_POINT('',#935);
#221=VERTEX_POINT('',#947);
#222=VERTEX_POINT('',#1016);
#223=EDGE_CURVE('',#179,#179,#161,.T.);
#224=EDGE_CURVE('',#179,#180,#107,.T.);
#225=EDGE_CURVE('',#180,#180,#162,.T.);
#226=EDGE_CURVE('',#181,#181,#163,.T.);
#227=EDGE_CURVE('',#182,#182,#164,.T.);
#228=EDGE_CURVE('',#182,#183,#108,.T.);
#229=EDGE_CURVE('',#183,#183,#165,.T.);
#230=EDGE_CURVE('',#183,#184,#109,.T.);
#231=EDGE_CURVE('',#184,#185,#166,.T.);
#232=EDGE_CURVE('',#185,#186,#167,.T.);
#233=EDGE_CURVE('',#186,#187,#168,.T.);
#234=EDGE_CURVE('',#187,#188,#110,.T.);
#235=EDGE_CURVE('',#189,#188,#169,.T.);
#236=EDGE_CURVE('',#189,#190,#21,.T.);
#237=EDGE_CURVE('',#191,#190,#111,.T.);
#238=EDGE_CURVE('',#191,#192,#170,.T.);
#239=EDGE_CURVE('',#192,#193,#112,.T.);
#240=EDGE_CURVE('',#194,#193,#22,.F.);
#241=EDGE_CURVE('',#195,#194,#171,.T.);
#242=EDGE_CURVE('',#184,#195,#113,.T.);
#243=EDGE_CURVE('',#196,#197,#23,.T.);
#244=EDGE_CURVE('',#197,#198,#24,.T.);
#245=EDGE_CURVE('',#198,#199,#25,.T.);
#246=EDGE_CURVE('',#199,#200,#26,.T.);
#247=EDGE_CURVE('',#200,#201,#27,.T.);
#248=EDGE_CURVE('',#201,#202,#28,.T.);
#249=EDGE_CURVE('',#202,#196,#29,.T.);
#250=EDGE_CURVE('',#181,#203,#114,.T.);
#251=EDGE_CURVE('',#203,#203,#172,.T.);
#252=EDGE_CURVE('',#204,#205,#115,.T.);
#253=EDGE_CURVE('',#204,#206,#116,.T.);
#254=EDGE_CURVE('',#207,#206,#117,.T.);
#255=EDGE_CURVE('',#205,#207,#118,.T.);
#256=EDGE_CURVE('',#208,#207,#119,.T.);
#257=EDGE_CURVE('',#206,#209,#120,.T.);
#258=EDGE_CURVE('',#209,#208,#121,.T.);
#259=EDGE_CURVE('',#210,#211,#173,.T.);
#260=EDGE_CURVE('',#211,#190,#122,.T.);
#261=EDGE_CURVE('',#212,#189,#30,.T.);
#262=EDGE_CURVE('',#212,#210,#123,.T.);
#263=EDGE_CURVE('',#211,#209,#124,.T.);
#264=EDGE_CURVE('',#191,#204,#125,.T.);
#265=EDGE_CURVE('',#213,#210,#126,.T.);
#266=EDGE_CURVE('',#214,#213,#174,.T.);
#267=EDGE_CURVE('',#214,#208,#127,.T.);
#268=EDGE_CURVE('',#212,#215,#175,.T.);
#269=EDGE_CURVE('',#216,#215,#31,.T.);
#270=EDGE_CURVE('',#216,#217,#176,.T.);
#271=EDGE_CURVE('',#213,#217,#128,.T.);
#272=EDGE_CURVE('',#217,#194,#32,.F.);
#273=EDGE_CURVE('',#193,#214,#129,.T.);
#274=EDGE_CURVE('',#205,#192,#130,.T.);
#275=EDGE_CURVE('',#218,#216,#33,.T.);
#276=EDGE_CURVE('',#215,#219,#34,.T.);
#277=EDGE_CURVE('',#219,#218,#35,.T.);
#278=EDGE_CURVE('',#220,#219,#36,.T.);
#279=EDGE_CURVE('',#186,#220,#131,.T.);
#280=EDGE_CURVE('',#185,#221,#132,.T.);
#281=EDGE_CURVE('',#218,#221,#37,.T.);
#282=EDGE_CURVE('',#188,#220,#38,.T.);
#283=EDGE_CURVE('',#221,#195,#39,.T.);
#284=EDGE_CURVE('',#201,#196,#177,.T.);
#285=EDGE_CURVE('',#197,#199,#178,.T.);
#286=EDGE_CURVE('',#200,#222,#133,.T.);
#287=ORIENTED_EDGE('',*,*,#223,.F.);
#288=ORIENTED_EDGE('',*,*,#224,.T.);
#289=ORIENTED_EDGE('',*,*,#225,.F.);
#290=ORIENTED_EDGE('',*,*,#224,.F.);
#291=ORIENTED_EDGE('',*,*,#223,.T.);
#292=ORIENTED_EDGE('',*,*,#226,.T.);
#293=ORIENTED_EDGE('',*,*,#227,.T.);
#294=ORIENTED_EDGE('',*,*,#228,.T.);
#295=ORIENTED_EDGE('',*,*,#229,.T.);
#296=ORIENTED_EDGE('',*,*,#228,.F.);
#297=ORIENTED_EDGE('',*,*,#229,.F.);
#298=ORIENTED_EDGE('',*,*,#230,.T.);
#299=ORIENTED_EDGE('',*,*,#231,.T.);
#300=ORIENTED_EDGE('',*,*,#232,.T.);
#301=ORIENTED_EDGE('',*,*,#233,.T.);
#302=ORIENTED_EDGE('',*,*,#234,.T.);
#303=ORIENTED_EDGE('',*,*,#235,.F.);
#304=ORIENTED_EDGE('',*,*,#236,.T.);
#305=ORIENTED_EDGE('',*,*,#237,.F.);
#306=ORIENTED_EDGE('',*,*,#238,.T.);
#307=ORIENTED_EDGE('',*,*,#239,.T.);
#308=ORIENTED_EDGE('',*,*,#240,.F.);
#309=ORIENTED_EDGE('',*,*,#241,.F.);
#310=ORIENTED_EDGE('',*,*,#242,.F.);
#311=ORIENTED_EDGE('',*,*,#230,.F.);
#312=ORIENTED_EDGE('',*,*,#243,.T.);
#313=ORIENTED_EDGE('',*,*,#244,.T.);
#314=ORIENTED_EDGE('',*,*,#245,.T.);
#315=ORIENTED_EDGE('',*,*,#246,.T.);
#316=ORIENTED_EDGE('',*,*,#247,.T.);
#317=ORIENTED_EDGE('',*,*,#248,.T.);
#318=ORIENTED_EDGE('',*,*,#249,.T.);
#319=ORIENTED_EDGE('',*,*,#227,.F.);
#320=ORIENTED_EDGE('',*,*,#226,.F.);
#321=ORIENTED_EDGE('',*,*,#250,.T.);
#322=ORIENTED_EDGE('',*,*,#251,.F.);
#323=ORIENTED_EDGE('',*,*,#250,.F.);
#324=ORIENTED_EDGE('',*,*,#252,.F.);
#325=ORIENTED_EDGE('',*,*,#253,.T.);
#326=ORIENTED_EDGE('',*,*,#254,.F.);
#327=ORIENTED_EDGE('',*,*,#255,.F.);
#328=ORIENTED_EDGE('',*,*,#251,.T.);
#329=ORIENTED_EDGE('',*,*,#256,.T.);
#330=ORIENTED_EDGE('',*,*,#254,.T.);
#331=ORIENTED_EDGE('',*,*,#257,.T.);
#332=ORIENTED_EDGE('',*,*,#258,.T.);
#333=ORIENTED_EDGE('',*,*,#259,.T.);
#334=ORIENTED_EDGE('',*,*,#260,.T.);
#335=ORIENTED_EDGE('',*,*,#236,.F.);
#336=ORIENTED_EDGE('',*,*,#261,.F.);
#337=ORIENTED_EDGE('',*,*,#262,.T.);
#338=ORIENTED_EDGE('',*,*,#260,.F.);
#339=ORIENTED_EDGE('',*,*,#263,.T.);
#340=ORIENTED_EDGE('',*,*,#257,.F.);
#341=ORIENTED_EDGE('',*,*,#253,.F.);
#342=ORIENTED_EDGE('',*,*,#264,.F.);
#343=ORIENTED_EDGE('',*,*,#237,.T.);
#344=ORIENTED_EDGE('',*,*,#259,.F.);
#345=ORIENTED_EDGE('',*,*,#265,.F.);
#346=ORIENTED_EDGE('',*,*,#266,.F.);
#347=ORIENTED_EDGE('',*,*,#267,.T.);
#348=ORIENTED_EDGE('',*,*,#258,.F.);
#349=ORIENTED_EDGE('',*,*,#263,.F.);
#350=ORIENTED_EDGE('',*,*,#225,.T.);
#351=ORIENTED_EDGE('',*,*,#262,.F.);
#352=ORIENTED_EDGE('',*,*,#268,.T.);
#353=ORIENTED_EDGE('',*,*,#269,.F.);
#354=ORIENTED_EDGE('',*,*,#270,.T.);
#355=ORIENTED_EDGE('',*,*,#271,.F.);
#356=ORIENTED_EDGE('',*,*,#265,.T.);
#357=ORIENTED_EDGE('',*,*,#266,.T.);
#358=ORIENTED_EDGE('',*,*,#271,.T.);
#359=ORIENTED_EDGE('',*,*,#272,.T.);
#360=ORIENTED_EDGE('',*,*,#240,.T.);
#361=ORIENTED_EDGE('',*,*,#273,.T.);
#362=ORIENTED_EDGE('',*,*,#273,.F.);
#363=ORIENTED_EDGE('',*,*,#239,.F.);
#364=ORIENTED_EDGE('',*,*,#274,.F.);
#365=ORIENTED_EDGE('',*,*,#255,.T.);
#366=ORIENTED_EDGE('',*,*,#256,.F.);
#367=ORIENTED_EDGE('',*,*,#267,.F.);
#368=ORIENTED_EDGE('',*,*,#275,.T.);
#369=ORIENTED_EDGE('',*,*,#269,.T.);
#370=ORIENTED_EDGE('',*,*,#276,.T.);
#371=ORIENTED_EDGE('',*,*,#277,.T.);
#372=ORIENTED_EDGE('',*,*,#277,.F.);
#373=ORIENTED_EDGE('',*,*,#278,.F.);
#374=ORIENTED_EDGE('',*,*,#279,.F.);
#375=ORIENTED_EDGE('',*,*,#232,.F.);
#376=ORIENTED_EDGE('',*,*,#280,.T.);
#377=ORIENTED_EDGE('',*,*,#281,.F.);
#378=ORIENTED_EDGE('',*,*,#276,.F.);
#379=ORIENTED_EDGE('',*,*,#268,.F.);
#380=ORIENTED_EDGE('',*,*,#261,.T.);
#381=ORIENTED_EDGE('',*,*,#235,.T.);
#382=ORIENTED_EDGE('',*,*,#282,.T.);
#383=ORIENTED_EDGE('',*,*,#278,.T.);
#384=ORIENTED_EDGE('',*,*,#275,.F.);
#385=ORIENTED_EDGE('',*,*,#281,.T.);
#386=ORIENTED_EDGE('',*,*,#283,.T.);
#387=ORIENTED_EDGE('',*,*,#241,.T.);
#388=ORIENTED_EDGE('',*,*,#272,.F.);
#389=ORIENTED_EDGE('',*,*,#270,.F.);
#390=ORIENTED_EDGE('',*,*,#283,.F.);
#391=ORIENTED_EDGE('',*,*,#280,.F.);
#392=ORIENTED_EDGE('',*,*,#231,.F.);
#393=ORIENTED_EDGE('',*,*,#242,.T.);
#394=ORIENTED_EDGE('',*,*,#282,.F.);
#395=ORIENTED_EDGE('',*,*,#234,.F.);
#396=ORIENTED_EDGE('',*,*,#233,.F.);
#397=ORIENTED_EDGE('',*,*,#279,.T.);
#398=ORIENTED_EDGE('',*,*,#252,.T.);
#399=ORIENTED_EDGE('',*,*,#274,.T.);
#400=ORIENTED_EDGE('',*,*,#238,.F.);
#401=ORIENTED_EDGE('',*,*,#264,.T.);
#402=ORIENTED_EDGE('',*,*,#248,.F.);
#403=ORIENTED_EDGE('',*,*,#284,.T.);
#404=ORIENTED_EDGE('',*,*,#249,.F.);
#405=ORIENTED_EDGE('',*,*,#246,.F.);
#406=ORIENTED_EDGE('',*,*,#285,.F.);
#407=ORIENTED_EDGE('',*,*,#243,.F.);
#408=ORIENTED_EDGE('',*,*,#284,.F.);
#409=ORIENTED_EDGE('',*,*,#247,.F.);
#410=ORIENTED_EDGE('',*,*,#286,.T.);
#411=ORIENTED_EDGE('',*,*,#286,.F.);
#412=ORIENTED_EDGE('',*,*,#245,.F.);
#413=ORIENTED_EDGE('',*,*,#244,.F.);
#414=ORIENTED_EDGE('',*,*,#285,.T.);
#415=CYLINDRICAL_SURFACE('',#460,2.5296998623);
#416=CYLINDRICAL_SURFACE('',#468,13.489);
#417=CYLINDRICAL_SURFACE('',#476,1.5);
#418=CYLINDRICAL_SURFACE('',#480,1.);
#419=CYLINDRICAL_SURFACE('',#488,1.);
#420=CYLINDRICAL_SURFACE('',#493,2.);
#421=CYLINDRICAL_SURFACE('',#497,2.);
#422=ADVANCED_FACE('',(#55),#415,.T.);
#423=ADVANCED_FACE('',(#56,#42),#46,.T.);
#424=ADVANCED_FACE('',(#57),#40,.T.);
#425=ADVANCED_FACE('',(#58,#43),#416,.T.);
#426=ADVANCED_FACE('',(#59),#47,.T.);
#427=ADVANCED_FACE('',(#60),#417,.F.);
#428=ADVANCED_FACE('',(#61,#44),#48,.T.);
#429=ADVANCED_FACE('',(#62),#49,.T.);
#430=ADVANCED_FACE('',(#63),#418,.T.);
#431=ADVANCED_FACE('',(#64),#50,.T.);
#432=ADVANCED_FACE('',(#65,#45),#51,.T.);
#433=ADVANCED_FACE('',(#66),#52,.F.);
#434=ADVANCED_FACE('',(#67),#419,.T.);
#435=ADVANCED_FACE('',(#68),#53,.T.);
#436=ADVANCED_FACE('',(#69),#17,.F.);
#437=ADVANCED_FACE('',(#70),#18,.F.);
#438=ADVANCED_FACE('',(#71),#15,.T.);
#439=ADVANCED_FACE('',(#72),#16,.T.);
#440=ADVANCED_FACE('',(#73),#19,.F.);
#441=ADVANCED_FACE('',(#74),#20,.F.);
#442=ADVANCED_FACE('',(#75),#54,.T.);
#443=ADVANCED_FACE('',(#76),#420,.F.);
#444=ADVANCED_FACE('',(#77),#41,.F.);
#445=ADVANCED_FACE('',(#78),#421,.F.);
#446=CLOSED_SHELL('',(#422,#423,#424,#425,#426,#427,#428,#429,#430,#431,
#432,#433,#434,#435,#436,#437,#438,#439,#440,#441,#442,#443,#444,#445));
#447=DERIVED_UNIT_ELEMENT(#449,1.);
#448=DERIVED_UNIT_ELEMENT(#1024,-3.);
#449=(
MASS_UNIT()
NAMED_UNIT(*)
SI_UNIT(.KILO.,.GRAM.)
);
#450=DERIVED_UNIT((#447,#448));
#451=MEASURE_REPRESENTATION_ITEM('density measure',
POSITIVE_RATIO_MEASURE(7850.),#450);
#452=PROPERTY_DEFINITION_REPRESENTATION(#457,#454);
#453=PROPERTY_DEFINITION_REPRESENTATION(#458,#455);
#454=REPRESENTATION('material name',(#456),#1021);
#455=REPRESENTATION('density',(#451),#1021);
#456=DESCRIPTIVE_REPRESENTATION_ITEM('Steel','Steel');
#457=PROPERTY_DEFINITION('material property','material name',#1031);
#458=PROPERTY_DEFINITION('material property','density of part',#1031);
#459=AXIS2_PLACEMENT_3D('',#603,#498,#499);
#460=AXIS2_PLACEMENT_3D('',#604,#500,#501);
#461=AXIS2_PLACEMENT_3D('',#606,#502,#503);
#462=AXIS2_PLACEMENT_3D('',#609,#505,#506);
#463=AXIS2_PLACEMENT_3D('',#610,#507,#508);
#464=AXIS2_PLACEMENT_3D('',#612,#509,#510);
#465=AXIS2_PLACEMENT_3D('',#613,#511,#512);
#466=AXIS2_PLACEMENT_3D('',#615,#513,#514);
#467=AXIS2_PLACEMENT_3D('',#618,#516,#517);
#468=AXIS2_PLACEMENT_3D('',#619,#518,#519);
#469=AXIS2_PLACEMENT_3D('',#623,#521,#522);
#470=AXIS2_PLACEMENT_3D('',#625,#523,#524);
#471=AXIS2_PLACEMENT_3D('',#627,#525,#526);
#472=AXIS2_PLACEMENT_3D('',#631,#528,#529);
#473=AXIS2_PLACEMENT_3D('',#644,#531,#532);
#474=AXIS2_PLACEMENT_3D('',#657,#534,#535);
#475=AXIS2_PLACEMENT_3D('',#721,#537,#538);
#476=AXIS2_PLACEMENT_3D('',#722,#539,#540);
#477=AXIS2_PLACEMENT_3D('',#725,#542,#543);
#478=AXIS2_PLACEMENT_3D('',#726,#544,#545);
#479=AXIS2_PLACEMENT_3D('',#735,#550,#551);
#480=AXIS2_PLACEMENT_3D('',#741,#555,#556);
#481=AXIS2_PLACEMENT_3D('',#744,#557,#558);
#482=AXIS2_PLACEMENT_3D('',#760,#561,#562);
#483=AXIS2_PLACEMENT_3D('',#763,#565,#566);
#484=AXIS2_PLACEMENT_3D('',#767,#568,#569);
#485=AXIS2_PLACEMENT_3D('',#769,#571,#572);
#486=AXIS2_PLACEMENT_3D('',#771,#573,#574);
#487=AXIS2_PLACEMENT_3D('',#785,#575,#576);
#488=AXIS2_PLACEMENT_3D('',#787,#578,#579);
#489=AXIS2_PLACEMENT_3D('',#801,#581,#582);
#490=AXIS2_PLACEMENT_3D('',#955,#586,#587);
#491=AXIS2_PLACEMENT_3D('',#966,#588,#589);
#492=AXIS2_PLACEMENT_3D('',#1011,#590,#591);
#493=AXIS2_PLACEMENT_3D('',#1012,#592,#593);
#494=AXIS2_PLACEMENT_3D('',#1013,#594,#595);
#495=AXIS2_PLACEMENT_3D('',#1014,#596,#597);
#496=AXIS2_PLACEMENT_3D('',#1015,#598,#599);
#497=AXIS2_PLACEMENT_3D('',#1018,#601,#602);
#498=DIRECTION('axis',(0.,0.,1.));
#499=DIRECTION('refdir',(1.,0.,0.));
#500=DIRECTION('center_axis',(0.,0.,-1.));
#501=DIRECTION('ref_axis',(1.,0.,0.));
#502=DIRECTION('center_axis',(0.,0.,-1.));
#503=DIRECTION('ref_axis',(1.,0.,0.));
#504=DIRECTION('',(0.,0.,1.));
#505=DIRECTION('center_axis',(0.,0.,1.));
#506=DIRECTION('ref_axis',(1.,0.,0.));
#507=DIRECTION('center_axis',(0.,0.,-1.));
#508=DIRECTION('ref_axis',(1.,0.,0.));
#509=DIRECTION('center_axis',(0.,0.,1.));
#510=DIRECTION('ref_axis',(1.,0.,0.));
#511=DIRECTION('center_axis',(0.,-1.,0.));
#512=DIRECTION('ref_axis',(1.,0.,0.));
#513=DIRECTION('center_axis',(0.,-1.,0.));
#514=DIRECTION('ref_axis',(1.,0.,0.));
#515=DIRECTION('',(-0.707106781186548,-0.707106781186547,8.65956056235494E-17));
#516=DIRECTION('center_axis',(0.,1.,0.));
#517=DIRECTION('ref_axis',(1.,0.,0.));
#518=DIRECTION('center_axis',(0.,1.,0.));
#519=DIRECTION('ref_axis',(1.,0.,0.));
#520=DIRECTION('',(0.,-1.,0.));
#521=DIRECTION('center_axis',(0.,1.,0.));
#522=DIRECTION('ref_axis',(1.,0.,0.));
#523=DIRECTION('center_axis',(0.,1.,0.));
#524=DIRECTION('ref_axis',(1.,0.,0.));
#525=DIRECTION('center_axis',(0.,1.,0.));
#526=DIRECTION('ref_axis',(1.,0.,0.));
#527=DIRECTION('',(0.,-1.,0.));
#528=DIRECTION('center_axis',(0.,-1.,0.));
#529=DIRECTION('ref_axis',(0.93309827978253,0.,-0.359621468028376));
#530=DIRECTION('',(0.,-1.,0.));
#531=DIRECTION('center_axis',(0.,1.,0.));
#532=DIRECTION('ref_axis',(1.,0.,0.));
#533=DIRECTION('',(0.,-1.,0.));
#534=DIRECTION('center_axis',(0.,-1.,0.));
#535=DIRECTION('ref_axis',(-0.93309827978253,0.,-0.359621468028376));
#536=DIRECTION('',(0.,-1.,0.));
#537=DIRECTION('center_axis',(0.,1.,0.));
#538=DIRECTION('ref_axis',(1.,0.,0.));
#539=DIRECTION('center_axis',(0.,0.,1.));
#540=DIRECTION('ref_axis',(1.,0.,0.));
#541=DIRECTION('',(0.,0.,1.));
#542=DIRECTION('center_axis',(0.,0.,-1.));
#543=DIRECTION('ref_axis',(1.,0.,0.));
#544=DIRECTION('center_axis',(0.,0.,1.));
#545=DIRECTION('ref_axis',(1.,0.,0.));
#546=DIRECTION('',(-1.,0.,0.));
#547=DIRECTION('',(0.,1.,0.));
#548=DIRECTION('',(1.,0.,0.));
#549=DIRECTION('',(0.,1.,0.));
#550=DIRECTION('center_axis',(0.,1.,0.));
#551=DIRECTION('ref_axis',(0.,0.,1.));
#552=DIRECTION('',(0.,0.,1.));
#553=DIRECTION('',(0.,0.,-1.));
#554=DIRECTION('',(-1.,0.,0.));
#555=DIRECTION('center_axis',(0.,0.,1.));
#556=DIRECTION('ref_axis',(0.707106781186547,-0.707106781186548,0.));
#557=DIRECTION('center_axis',(0.,0.,1.));
#558=DIRECTION('ref_axis',(0.707106781186547,-0.707106781186548,0.));
#559=DIRECTION('',(0.,0.,1.));
#560=DIRECTION('',(0.,0.,-1.));
#561=DIRECTION('center_axis',(1.,0.,0.));
#562=DIRECTION('ref_axis',(0.,0.,1.));
#563=DIRECTION('',(0.,1.,0.));
#564=DIRECTION('',(0.,0.,-1.));
#565=DIRECTION('center_axis',(0.,0.,-1.));
#566=DIRECTION('ref_axis',(1.,0.,0.));
#567=DIRECTION('',(1.,0.,0.));
#568=DIRECTION('center_axis',(0.,0.,1.));
#569=DIRECTION('ref_axis',(-0.707106781186547,-0.707106781186548,0.));
#570=DIRECTION('',(0.,1.,0.));
#571=DIRECTION('center_axis',(0.,1.,0.));
#572=DIRECTION('ref_axis',(1.,0.,0.));
#573=DIRECTION('center_axis',(0.,-1.,0.));
#574=DIRECTION('ref_axis',(0.,0.,-1.));
#575=DIRECTION('center_axis',(0.,-1.,0.));
#576=DIRECTION('ref_axis',(0.,0.,-1.));
#577=DIRECTION('',(0.,0.,1.));
#578=DIRECTION('center_axis',(0.,0.,-1.));
#579=DIRECTION('ref_axis',(-0.707106781186547,-0.707106781186548,0.));
#580=DIRECTION('',(0.,0.,-1.));
#581=DIRECTION('center_axis',(-1.,0.,0.));
#582=DIRECTION('ref_axis',(0.,0.,-1.));
#583=DIRECTION('',(0.,0.,1.));
#584=DIRECTION('',(0.137491298802848,-0.63860446022653,-0.757152881611295));
#585=DIRECTION('',(-0.137491298802847,-0.63860446022653,-0.757152881611296));
#586=DIRECTION('center_axis',(0.,-1.,0.));
#587=DIRECTION('ref_axis',(0.,0.,-1.));
#588=DIRECTION('center_axis',(0.,-1.,0.));
#589=DIRECTION('ref_axis',(0.,0.,-1.));
#590=DIRECTION('center_axis',(0.,1.,0.));
#591=DIRECTION('ref_axis',(1.,0.,0.));
#592=DIRECTION('center_axis',(0.,0.,-1.));
#593=DIRECTION('ref_axis',(1.,0.,0.));
#594=DIRECTION('center_axis',(0.,0.,-1.));
#595=DIRECTION('ref_axis',(1.,0.,0.));
#596=DIRECTION('center_axis',(0.,0.,1.));
#597=DIRECTION('ref_axis',(1.,0.,0.));
#598=DIRECTION('center_axis',(0.,0.,-1.));
#599=DIRECTION('ref_axis',(1.,0.,0.));
#600=DIRECTION('',(0.857167300702112,-1.04972719113862E-16,-0.515038074910054));
#601=DIRECTION('center_axis',(0.,0.,-1.));
#602=DIRECTION('ref_axis',(1.,0.,0.));
#603=CARTESIAN_POINT('',(0.,0.,0.));
#604=CARTESIAN_POINT('Origin',(5.55111512312578E-16,17.05,-20.988));
#605=CARTESIAN_POINT('',(-2.5296998623,17.05,-21.988));
#606=CARTESIAN_POINT('Origin',(5.55111512312578E-16,17.05,-21.988));
#607=CARTESIAN_POINT('',(-2.5296998623,17.05,-20.988));
#608=CARTESIAN_POINT('',(-2.5296998623,17.05,-20.988));
#609=CARTESIAN_POINT('Origin',(5.55111512312578E-16,17.05,-20.988));
#610=CARTESIAN_POINT('Origin',(5.55111512312578E-16,17.05,-21.988));
#611=CARTESIAN_POINT('',(-1.5,17.05,-21.988));
#612=CARTESIAN_POINT('Origin',(5.55111512312578E-16,17.05,-21.988));
#613=CARTESIAN_POINT('Origin',(0.,36.6,0.));
#614=CARTESIAN_POINT('',(-10.489,38.1,-1.28453202762566E-15));
#615=CARTESIAN_POINT('Origin',(0.,38.1,0.));
#616=CARTESIAN_POINT('',(-13.489,35.1,1.65192606736986E-15));
#617=CARTESIAN_POINT('',(-11.989,36.6,1.46822904749776E-15));
#618=CARTESIAN_POINT('Origin',(0.,35.1,0.));
#619=CARTESIAN_POINT('Origin',(0.,0.,0.));
#620=CARTESIAN_POINT('',(-13.489,0.,1.65192606736986E-15));
#621=CARTESIAN_POINT('',(-13.489,0.,1.65192606736986E-15));
#622=CARTESIAN_POINT('',(-12.6278015125727,0.,4.74254677985001));
#623=CARTESIAN_POINT('Origin',(0.,0.,0.));
#624=CARTESIAN_POINT('',(12.6278015125727,0.,4.74254677985001));
#625=CARTESIAN_POINT('Origin',(0.,0.,0.));
#626=CARTESIAN_POINT('',(13.489,0.,0.));
#627=CARTESIAN_POINT('Origin',(0.,0.,0.));
#628=CARTESIAN_POINT('',(13.489,-3.4,0.));
#629=CARTESIAN_POINT('',(13.489,0.,0.));
#630=CARTESIAN_POINT('',(9.9165151389929,-3.39999999999603,-9.14417019188317));
#631=CARTESIAN_POINT('Origin',(0.,-3.4,0.));
#632=CARTESIAN_POINT('',(10.,-3.,-9.05279630832375));
#633=CARTESIAN_POINT('Ctrl Pts',(9.9165151389929,-3.39999999999603,-9.14417019188317));
#634=CARTESIAN_POINT('Ctrl Pts',(9.92120092267864,-3.38926352078087,-9.13908863238869));
#635=CARTESIAN_POINT('Ctrl Pts',(9.92572126235515,-3.37839128779094,-9.13417865091379));
#636=CARTESIAN_POINT('Ctrl Pts',(9.95251619143206,-3.31055929149454,-9.10503392530367));
#637=CARTESIAN_POINT('Ctrl Pts',(9.97024320397223,-3.25022573297239,-9.08557480775535));
#638=CARTESIAN_POINT('Ctrl Pts',(9.99398415762815,-3.12635213002352,-9.05945510232582));
#639=CARTESIAN_POINT('Ctrl Pts',(10.,-3.06281207174192,-9.05279630832375));
#640=CARTESIAN_POINT('Ctrl Pts',(10.,-3.,-9.05279630832375));
#641=CARTESIAN_POINT('',(10.,0.,-9.05279630832375));
#642=CARTESIAN_POINT('',(10.,0.,-9.05279630832375));
#643=CARTESIAN_POINT('',(-10.,0.,-9.05279630832375));
#644=CARTESIAN_POINT('Origin',(0.,0.,0.));
#645=CARTESIAN_POINT('',(-10.,-3.,-9.05279630832375));
#646=CARTESIAN_POINT('',(-10.,0.,-9.05279630832375));
#647=CARTESIAN_POINT('',(-9.9165151389929,-3.39999999999603,-9.14417019188317));
#648=CARTESIAN_POINT('Ctrl Pts',(-10.,-3.,-9.05279630832375));
#649=CARTESIAN_POINT('Ctrl Pts',(-10.,-3.06281207174192,-9.05279630832375));
#650=CARTESIAN_POINT('Ctrl Pts',(-9.99398415762815,-3.12635213002352,-9.05945510232582));
#651=CARTESIAN_POINT('Ctrl Pts',(-9.97024320397223,-3.25022573297239,-9.08557480775535));
#652=CARTESIAN_POINT('Ctrl Pts',(-9.95251619143206,-3.31055929149454,-9.10503392530367));
#653=CARTESIAN_POINT('Ctrl Pts',(-9.92572126235515,-3.37839128779094,-9.13417865091379));
#654=CARTESIAN_POINT('Ctrl Pts',(-9.92120092267864,-3.38926352078087,-9.1390886323887));
#655=CARTESIAN_POINT('Ctrl Pts',(-9.9165151389929,-3.39999999999603,-9.14417019188317));
#656=CARTESIAN_POINT('',(-13.489,-3.4,0.));
#657=CARTESIAN_POINT('Origin',(0.,-3.4,0.));
#658=CARTESIAN_POINT('',(-13.489,0.,0.));
#659=CARTESIAN_POINT('',(0.519307230837418,20.9814036346657,13.479));
#660=CARTESIAN_POINT('',(0.519307230837418,17.1185963653343,13.479));
#661=CARTESIAN_POINT('Ctrl Pts',(0.519307230837418,20.9814036346657,13.479));
#662=CARTESIAN_POINT('Ctrl Pts',(0.591087846642652,20.9573375480494,13.4762344986407));
#663=CARTESIAN_POINT('Ctrl Pts',(0.661553417726556,20.9282623984933,13.4729411645959));
#664=CARTESIAN_POINT('Ctrl Pts',(0.95990203468124,20.7812859579355,13.4567751360593));
#665=CARTESIAN_POINT('Ctrl Pts',(1.16432426156881,20.6135864468272,13.4395803006444));
#666=CARTESIAN_POINT('Ctrl Pts',(1.47418685129295,20.2460659398017,13.409083695731));
#667=CARTESIAN_POINT('Ctrl Pts',(1.60314276332119,20.0227702470425,13.3936679291523));
#668=CARTESIAN_POINT('Ctrl Pts',(1.77251747105131,19.543647738772,13.3723067772187));
#669=CARTESIAN_POINT('Ctrl Pts',(1.8129549048883,19.2878163733079,13.3666119683651));
#670=CARTESIAN_POINT('Ctrl Pts',(1.8129549048883,19.05,13.3666119683651));
#671=CARTESIAN_POINT('Ctrl Pts',(1.8129549048883,18.8121836266921,13.3666119683651));
#672=CARTESIAN_POINT('Ctrl Pts',(1.77251747105131,18.556352261228,13.3723067772187));
#673=CARTESIAN_POINT('Ctrl Pts',(1.60314276332119,18.0772297529576,13.3936679291523));
#674=CARTESIAN_POINT('Ctrl Pts',(1.47418685129295,17.8539340601983,13.409083695731));
#675=CARTESIAN_POINT('Ctrl Pts',(1.16432426156881,17.4864135531728,13.4395803006444));
#676=CARTESIAN_POINT('Ctrl Pts',(0.959902034681239,17.3187140420645,13.4567751360594));
#677=CARTESIAN_POINT('Ctrl Pts',(0.661553417726555,17.1717376015067,13.4729411645959));
#678=CARTESIAN_POINT('Ctrl Pts',(0.591087846642651,17.1426624519506,13.4762344986407));
#679=CARTESIAN_POINT('Ctrl Pts',(0.519307230837418,17.1185963653343,13.479));
#680=CARTESIAN_POINT('',(0.,17.05,13.489));
#681=CARTESIAN_POINT('Ctrl Pts',(0.519307230837419,17.1185963653343,13.479));
#682=CARTESIAN_POINT('Ctrl Pts',(0.346619227271316,17.0721647819401,13.4856531737466));
#683=CARTESIAN_POINT('Ctrl Pts',(0.169466008194807,17.05,13.489));
#684=CARTESIAN_POINT('Ctrl Pts',(6.24500451351651E-16,17.05,13.489));
#685=CARTESIAN_POINT('',(-0.519307230837418,17.1185963653343,13.479));
#686=CARTESIAN_POINT('Ctrl Pts',(4.85722573273506E-16,17.05,13.489));
#687=CARTESIAN_POINT('Ctrl Pts',(-0.169466008194807,17.05,13.489));
#688=CARTESIAN_POINT('Ctrl Pts',(-0.346619227271315,17.0721647819401,13.4856531737466));
#689=CARTESIAN_POINT('Ctrl Pts',(-0.519307230837418,17.1185963653343,13.479));
#690=CARTESIAN_POINT('',(-1.8129549048883,19.05,13.3666119683651));
#691=CARTESIAN_POINT('Ctrl Pts',(-0.519307230837419,17.1185963653343,13.479));
#692=CARTESIAN_POINT('Ctrl Pts',(-0.591087846642652,17.1426624519506,13.4762344986407));
#693=CARTESIAN_POINT('Ctrl Pts',(-0.661553417726556,17.1717376015067,13.4729411645959));
#694=CARTESIAN_POINT('Ctrl Pts',(-0.95990203468124,17.3187140420645,13.4567751360593));
#695=CARTESIAN_POINT('Ctrl Pts',(-1.16432426156881,17.4864135531728,13.4395803006444));
#696=CARTESIAN_POINT('Ctrl Pts',(-1.47418685129295,17.8539340601983,13.409083695731));
#697=CARTESIAN_POINT('Ctrl Pts',(-1.60314276332119,18.0772297529576,13.3936679291523));
#698=CARTESIAN_POINT('Ctrl Pts',(-1.77251747105131,18.556352261228,13.3723067772187));
#699=CARTESIAN_POINT('Ctrl Pts',(-1.8129549048883,18.8121836266921,13.3666119683651));
#700=CARTESIAN_POINT('Ctrl Pts',(-1.8129549048883,19.05,13.3666119683651));
#701=CARTESIAN_POINT('',(-0.519307230837418,20.9814036346657,13.479));
#702=CARTESIAN_POINT('Ctrl Pts',(-1.8129549048883,19.05,13.3666119683651));
#703=CARTESIAN_POINT('Ctrl Pts',(-1.8129549048883,19.2878163733079,13.3666119683651));
#704=CARTESIAN_POINT('Ctrl Pts',(-1.77251747105131,19.543647738772,13.3723067772187));
#705=CARTESIAN_POINT('Ctrl Pts',(-1.60314276332119,20.0227702470425,13.3936679291523));
#706=CARTESIAN_POINT('Ctrl Pts',(-1.47418685129295,20.2460659398017,13.409083695731));
#707=CARTESIAN_POINT('Ctrl Pts',(-1.16432426156881,20.6135864468272,13.4395803006444));
#708=CARTESIAN_POINT('Ctrl Pts',(-0.959902034681237,20.7812859579355,13.4567751360593));
#709=CARTESIAN_POINT('Ctrl Pts',(-0.661553417726553,20.9282623984933,13.4729411645959));
#710=CARTESIAN_POINT('Ctrl Pts',(-0.591087846642651,20.9573375480494,13.4762344986407));
#711=CARTESIAN_POINT('Ctrl Pts',(-0.519307230837418,20.9814036346657,13.479));
#712=CARTESIAN_POINT('',(0.,21.05,13.489));
#713=CARTESIAN_POINT('Ctrl Pts',(-0.519307230837418,20.9814036346657,13.479));
#714=CARTESIAN_POINT('Ctrl Pts',(-0.346619227271314,21.0278352180599,13.4856531737466));
#715=CARTESIAN_POINT('Ctrl Pts',(-0.169466008194808,21.05,13.489));
#716=CARTESIAN_POINT('Ctrl Pts',(-4.85722573273506E-16,21.05,13.489));
#717=CARTESIAN_POINT('Ctrl Pts',(-2.77555756156289E-16,21.05,13.489));
#718=CARTESIAN_POINT('Ctrl Pts',(0.169466008194807,21.05,13.489));
#719=CARTESIAN_POINT('Ctrl Pts',(0.346619227271314,21.0278352180599,13.4856531737466));
#720=CARTESIAN_POINT('Ctrl Pts',(0.519307230837418,20.9814036346657,13.479));
#721=CARTESIAN_POINT('Origin',(0.,38.1,0.));
#722=CARTESIAN_POINT('Origin',(5.55111512312578E-16,17.05,-20.988));
#723=CARTESIAN_POINT('',(-1.5,17.05,-18.488));
#724=CARTESIAN_POINT('',(-1.5,17.05,-20.988));
#725=CARTESIAN_POINT('Origin',(5.55111512312578E-16,17.05,-18.488));
#726=CARTESIAN_POINT('Origin',(-10.,0.,-18.488));
#727=CARTESIAN_POINT('',(10.,0.,-18.488));
#728=CARTESIAN_POINT('',(-10.,0.,-18.488));
#729=CARTESIAN_POINT('',(-5.,0.,-18.488));
#730=CARTESIAN_POINT('',(10.,38.1,-18.488));
#731=CARTESIAN_POINT('',(10.,0.,-18.488));
#732=CARTESIAN_POINT('',(-10.,38.1,-18.488));
#733=CARTESIAN_POINT('',(-10.,38.1,-18.488));
#734=CARTESIAN_POINT('',(-10.,0.,-18.488));
#735=CARTESIAN_POINT('Origin',(0.,38.1,-19.738));
#736=CARTESIAN_POINT('',(-10.,38.1,-20.988));
#737=CARTESIAN_POINT('',(-10.,38.1,-20.988));
#738=CARTESIAN_POINT('',(10.,38.1,-20.988));
#739=CARTESIAN_POINT('',(10.,38.1,-18.488));
#740=CARTESIAN_POINT('',(10.,38.1,-20.988));
#741=CARTESIAN_POINT('Origin',(9.,-3.,-15.741));
#742=CARTESIAN_POINT('',(9.,-4.,-20.988));
#743=CARTESIAN_POINT('',(10.,-3.,-20.988));
#744=CARTESIAN_POINT('Origin',(9.,-3.,-20.988));
#745=CARTESIAN_POINT('',(10.,-3.,-15.741));
#746=CARTESIAN_POINT('',(9.,-4.,-9.22639263200955));
#747=CARTESIAN_POINT('Ctrl Pts',(9.,-4.,-9.22639263200955));
#748=CARTESIAN_POINT('Ctrl Pts',(9.00149220575272,-4.,-9.22655174044621));
#749=CARTESIAN_POINT('Ctrl Pts',(9.00298442583211,-3.99999665998298,-9.22671070149188));
#750=CARTESIAN_POINT('Ctrl Pts',(9.08813219768114,-3.99961547947398,-9.23577224105493));
#751=CARTESIAN_POINT('Ctrl Pts',(9.17152569672479,-3.98874420464065,-9.24415913665737));
#752=CARTESIAN_POINT('Ctrl Pts',(9.33301185984376,-3.94657039403923,-9.25655697040596));
#753=CARTESIAN_POINT('Ctrl Pts',(9.41053225595515,-3.91563500599874,-9.26057597572765));
#754=CARTESIAN_POINT('Ctrl Pts',(9.58396673344413,-3.81986960824016,-9.26100039980044));
#755=CARTESIAN_POINT('Ctrl Pts',(9.67363097672064,-3.74767169150518,-9.25401318501986));
#756=CARTESIAN_POINT('Ctrl Pts',(9.82039416296794,-3.58195694040963,-9.21660028502371));
#757=CARTESIAN_POINT('Ctrl Pts',(9.87629604708673,-3.49215351651724,-9.18778631290834));
#758=CARTESIAN_POINT('Ctrl Pts',(9.91651513899117,-3.4,-9.14417019188505));
#759=CARTESIAN_POINT('',(9.,-4.,-15.741));
#760=CARTESIAN_POINT('Origin',(10.,0.,-20.988));
#761=CARTESIAN_POINT('',(10.,0.,-20.988));
#762=CARTESIAN_POINT('',(10.,0.,0.));
#763=CARTESIAN_POINT('Origin',(-10.,0.,-20.988));
#764=CARTESIAN_POINT('',(-9.,-4.,-20.988));
#765=CARTESIAN_POINT('',(10.,-4.,-20.988));
#766=CARTESIAN_POINT('',(-10.,-3.,-20.988));
#767=CARTESIAN_POINT('Origin',(-9.,-3.,-20.988));
#768=CARTESIAN_POINT('',(-10.,0.,-20.988));
#769=CARTESIAN_POINT('Origin',(0.,-4.,-10.494));
#770=CARTESIAN_POINT('',(12.8874756057832,-4.,-0.198225907347171));
#771=CARTESIAN_POINT('Origin',(0.,-4.,0.));
#772=CARTESIAN_POINT('',(-12.8874756057832,-4.,-0.198225907347171));
#773=CARTESIAN_POINT('Ctrl Pts',(-12.8874772220045,-4.,-0.198178032908752));
#774=CARTESIAN_POINT('Ctrl Pts',(-12.3780394841081,-4.,-0.180979625133137));
#775=CARTESIAN_POINT('Ctrl Pts',(-11.2375649541786,-4.,-0.152988903882242));
#776=CARTESIAN_POINT('Ctrl Pts',(-8.83470425381256,-4.,-0.117424499418328));
#777=CARTESIAN_POINT('Ctrl Pts',(-4.41756950181359,-4.,-0.0888326856686185));
#778=CARTESIAN_POINT('Ctrl Pts',(0.631168044472153,-4.,-0.0836538016572342));
#779=CARTESIAN_POINT('Ctrl Pts',(5.67953230150462,-4.,-0.0965558069834614));
#780=CARTESIAN_POINT('Ctrl Pts',(8.83473002961949,-4.,-0.117579351320669));
#781=CARTESIAN_POINT('Ctrl Pts',(11.237555023961,-4.,-0.152930677568849));
#782=CARTESIAN_POINT('Ctrl Pts',(12.3780379186367,-4.,-0.180968042293711));
#783=CARTESIAN_POINT('Ctrl Pts',(12.887477332109,-4.,-0.198174796114841));
#784=CARTESIAN_POINT('',(-9.,-4.,-9.22639263200955));
#785=CARTESIAN_POINT('Origin',(0.,-4.,0.));
#786=CARTESIAN_POINT('',(-9.,-4.,-9.77339815416187));
#787=CARTESIAN_POINT('Origin',(-9.,-3.,-9.77339815416187));
#788=CARTESIAN_POINT('Ctrl Pts',(-9.91651513899117,-3.4,-9.14417019188505));
#789=CARTESIAN_POINT('Ctrl Pts',(-9.87629604708673,-3.49215351651724,-9.18778631290834));
#790=CARTESIAN_POINT('Ctrl Pts',(-9.82039416296793,-3.58195694040963,-9.21660028502371));
#791=CARTESIAN_POINT('Ctrl Pts',(-9.67363097672064,-3.74767169150518,-9.25401318501986));
#792=CARTESIAN_POINT('Ctrl Pts',(-9.58396673344413,-3.81986960824016,-9.26100039980044));
#793=CARTESIAN_POINT('Ctrl Pts',(-9.41053225595515,-3.91563500599873,-9.26057597572765));
#794=CARTESIAN_POINT('Ctrl Pts',(-9.33301185984377,-3.94657039403923,-9.25655697040596));
#795=CARTESIAN_POINT('Ctrl Pts',(-9.17152569672479,-3.98874420464065,-9.24415913665737));
#796=CARTESIAN_POINT('Ctrl Pts',(-9.08813219768114,-3.99961547947398,-9.23577224105493));
#797=CARTESIAN_POINT('Ctrl Pts',(-9.00298442583211,-3.99999665998298,-9.22671070149188));
#798=CARTESIAN_POINT('Ctrl Pts',(-9.00149220575272,-4.,-9.22655174044621));
#799=CARTESIAN_POINT('Ctrl Pts',(-9.,-4.,-9.22639263200954));
#800=CARTESIAN_POINT('',(-10.,-3.,-9.77339815416187));
#801=CARTESIAN_POINT('Origin',(-10.,0.,-9.05279630832375));
#802=CARTESIAN_POINT('',(-10.,0.,-20.988));
#803=CARTESIAN_POINT('Ctrl Pts',(13.2658071191035,-3.86607939728356,0.166278031691747));
#804=CARTESIAN_POINT('Ctrl Pts',(12.6303357416078,-3.89445641962939,0.155667239960692));
#805=CARTESIAN_POINT('Ctrl Pts',(11.3642251688473,-3.92616517387988,0.136094143711723));
#806=CARTESIAN_POINT('Ctrl Pts',(8.83657512939149,-3.95673486964884,0.109449898083757));
#807=CARTESIAN_POINT('Ctrl Pts',(5.68034869740532,-3.96975820702947,0.091596073304152));
#808=CARTESIAN_POINT('Ctrl Pts',(0.631144126049918,-3.97724702221539,0.0806083724450298));
#809=CARTESIAN_POINT('Ctrl Pts',(-4.41795037526534,-3.97443374788222,0.0850144634441064));
#810=CARTESIAN_POINT('Ctrl Pts',(-8.83655727440874,-3.95685072695956,0.109319859460413));
#811=CARTESIAN_POINT('Ctrl Pts',(-11.3642344918351,-3.92611168027862,0.136150555365088));
#812=CARTESIAN_POINT('Ctrl Pts',(-12.6303357416078,-3.89445641962939,0.155667239960692));
#813=CARTESIAN_POINT('Ctrl Pts',(-13.2658071191035,-3.86607939728355,0.166278031691747));
#814=CARTESIAN_POINT('Ctrl Pts',(13.2617433330169,-3.95188007132925,0.060520392494478));
#815=CARTESIAN_POINT('Ctrl Pts',(12.6274475560005,-3.96270085808968,0.0550122544129424));
#816=CARTESIAN_POINT('Ctrl Pts',(11.3625885640513,-3.97430355984403,0.047129434319423));
#817=CARTESIAN_POINT('Ctrl Pts',(8.83597070569241,-3.98519711619424,0.0372000743206814));
#818=CARTESIAN_POINT('Ctrl Pts',(5.68008956706669,-3.98971484039979,0.0310452157521591));
#819=CARTESIAN_POINT('Ctrl Pts',(0.631150387323016,-3.99232494994319,0.0271842691631032));
#820=CARTESIAN_POINT('Ctrl Pts',(-4.41783186679774,-3.99132924966026,0.0287640780937338));
#821=CARTESIAN_POINT('Ctrl Pts',(-8.83595155890155,-3.98523414198958,0.0371569316660237));
#822=CARTESIAN_POINT('Ctrl Pts',(-11.3625981948731,-3.97428453399106,0.0471477408851142));
#823=CARTESIAN_POINT('Ctrl Pts',(-12.6274475560005,-3.96270085808968,0.0550122544129425));
#824=CARTESIAN_POINT('Ctrl Pts',(-13.2617433330169,-3.95188007132925,0.0605203924944781));
#825=CARTESIAN_POINT('Ctrl Pts',(13.256530248583,-4.,-0.0751470592142026));
#826=CARTESIAN_POINT('Ctrl Pts',(12.6240587770246,-3.9998421730175,-0.0659346265891707));
#827=CARTESIAN_POINT('Ctrl Pts',(11.3607441945646,-3.99989465668384,-0.053756627443647));
#828=CARTESIAN_POINT('Ctrl Pts',(8.83534968260345,-3.9999018054475,-0.040192353084085));
#829=CARTESIAN_POINT('Ctrl Pts',(5.67981101743737,-3.99998266636876,-0.0327491167673074));
#830=CARTESIAN_POINT('Ctrl Pts',(0.631159183948792,-3.9999816820911,-0.02823657582429));
#831=CARTESIAN_POINT('Ctrl Pts',(-4.4177008549396,-3.99999611874364,-0.0300275761142972));
#832=CARTESIAN_POINT('Ctrl Pts',(-8.83532725980545,-3.99990150329404,-0.040136172624269));
#833=CARTESIAN_POINT('Ctrl Pts',(-11.3607549733278,-3.99989304143814,-0.0537822479346548));
#834=CARTESIAN_POINT('Ctrl Pts',(-12.6240587770246,-3.9998421730175,-0.0659346265891715));
#835=CARTESIAN_POINT('Ctrl Pts',(-13.256530248583,-4.,-0.0751470592142036));
#836=CARTESIAN_POINT('Ctrl Pts',(13.2512987973192,-4.,-0.21129249685464));
#837=CARTESIAN_POINT('Ctrl Pts',(12.6206682075449,-4.,-0.187060225446359));
#838=CARTESIAN_POINT('Ctrl Pts',(11.3588990275802,-4.,-0.15471593927967));
#839=CARTESIAN_POINT('Ctrl Pts',(8.83473002961949,-4.,-0.117579351320669));
#840=CARTESIAN_POINT('Ctrl Pts',(5.67953230150462,-4.,-0.0965558069834614));
#841=CARTESIAN_POINT('Ctrl Pts',(0.631168044472153,-4.,-0.0836538016572342));
#842=CARTESIAN_POINT('Ctrl Pts',(-4.41756950181359,-4.,-0.0888326856686185));
#843=CARTESIAN_POINT('Ctrl Pts',(-8.83470425381256,-4.,-0.117424499418328));
#844=CARTESIAN_POINT('Ctrl Pts',(-11.3589109980376,-4.,-0.154784929670687));
#845=CARTESIAN_POINT('Ctrl Pts',(-12.6206682075449,-4.,-0.187060225446361));
#846=CARTESIAN_POINT('Ctrl Pts',(-13.2512987973192,-4.,-0.211292496854643));
#847=CARTESIAN_POINT('',(-13.2658071191035,-3.86607939728355,0.166278031691747));
#848=CARTESIAN_POINT('Ctrl Pts',(-13.2658071191035,-3.86607939728355,0.166278031691747));
#849=CARTESIAN_POINT('Ctrl Pts',(-13.2631324767815,-3.86827403365939,0.163671710081775));
#850=CARTESIAN_POINT('Ctrl Pts',(-13.2604451187847,-3.87043840937805,0.161053201761347));
#851=CARTESIAN_POINT('Ctrl Pts',(-13.2577456415661,-3.87257278252188,0.158423180665712));
#852=CARTESIAN_POINT('Ctrl Pts',(-13.2378516367007,-3.88830220946998,0.139041038037395));
#853=CARTESIAN_POINT('Ctrl Pts',(-13.2172622908269,-3.90244834635137,0.118980431323456));
#854=CARTESIAN_POINT('Ctrl Pts',(-13.1961536511353,-3.91508753123547,0.0984678138307247));
#855=CARTESIAN_POINT('Ctrl Pts',(-13.1740689619433,-3.92831114364646,0.0770067065088485));
#856=CARTESIAN_POINT('Ctrl Pts',(-13.1514158408401,-3.93988576291311,0.0550506343450063));
#857=CARTESIAN_POINT('Ctrl Pts',(-13.128392078197,-3.94989328739214,0.0328008107484725));
#858=CARTESIAN_POINT('Ctrl Pts',(-13.1105749717389,-3.95763768311883,0.0155826226599629));
#859=CARTESIAN_POINT('Ctrl Pts',(-13.0925358200811,-3.96444356461951,-0.00181277446397052));
#860=CARTESIAN_POINT('Ctrl Pts',(-13.0743648897045,-3.97034367141912,-0.0193127125819825));
#861=CARTESIAN_POINT('Ctrl Pts',(-13.0464699134667,-3.97940117896356,-0.0461776197632483));
#862=CARTESIAN_POINT('Ctrl Pts',(-13.0181119161588,-3.9863676612548,-0.073414523825041));
#863=CARTESIAN_POINT('Ctrl Pts',(-12.9895223852013,-3.99126982576449,-0.100788433742182));
#864=CARTESIAN_POINT('Ctrl Pts',(-12.9601037504302,-3.99631415431651,-0.128956194147364));
#865=CARTESIAN_POINT('Ctrl Pts',(-12.9304399109118,-3.99917366979385,-0.157269951906086));
#866=CARTESIAN_POINT('Ctrl Pts',(-12.9007791516908,-3.99984561760374,-0.185517030229285));
#867=CARTESIAN_POINT('Ctrl Pts',(-12.8969496273516,-3.99993237332275,-0.189164033097396));
#868=CARTESIAN_POINT('Ctrl Pts',(-12.8931201497446,-3.99998260881013,-0.192809970096136));
#869=CARTESIAN_POINT('Ctrl Pts',(-12.8892912493195,-3.99999626751993,-0.196454420751851));
#870=CARTESIAN_POINT('Ctrl Pts',(-12.8886875871081,-3.99999842094416,-0.197029002720012));
#871=CARTESIAN_POINT('Ctrl Pts',(-12.8880839072079,-3.99999966527216,-0.197603574223355));
#872=CARTESIAN_POINT('Ctrl Pts',(-12.8874802112912,-4.,-0.198178133825892));
#873=CARTESIAN_POINT('',(13.2658071191035,-3.86607939728356,0.166278031691747));
#874=CARTESIAN_POINT('Ctrl Pts',(12.8874796447668,-4.,-0.198174874226879));
#875=CARTESIAN_POINT('Ctrl Pts',(12.8880833425442,-3.99999966564268,-0.197600333739476));
#876=CARTESIAN_POINT('Ctrl Pts',(12.8886870244624,-3.99999842169753,-0.197025781077813));
#877=CARTESIAN_POINT('Ctrl Pts',(12.8892906885238,-3.99999626866879,-0.196451218020799));
#878=CARTESIAN_POINT('Ctrl Pts',(12.9188461401559,-3.99989085617054,-0.168320554419243));
#879=CARTESIAN_POINT('Ctrl Pts',(12.9484399959065,-3.99760950300495,-0.140096383696349));
#880=CARTESIAN_POINT('Ctrl Pts',(12.9778258424724,-3.99315865825224,-0.111983880257523));
#881=CARTESIAN_POINT('Ctrl Pts',(13.00634194651,-3.98883954660986,-0.0847034317932701));
#882=CARTESIAN_POINT('Ctrl Pts',(13.0346622169726,-3.98247654781759,-0.0575272519936817));
#883=CARTESIAN_POINT('Ctrl Pts',(13.062558042034,-3.97404483591086,-0.0306802876360825));
#884=CARTESIAN_POINT('Ctrl Pts',(13.0696512343666,-3.97190086798322,-0.0238537936602383));
#885=CARTESIAN_POINT('Ctrl Pts',(13.0767169643822,-3.96962302575953,-0.017048815160992));
#886=CARTESIAN_POINT('Ctrl Pts',(13.0837514317032,-3.96721067838974,-0.01026955198518));
#887=CARTESIAN_POINT('Ctrl Pts',(13.1071059443082,-3.9592016573105,0.012237679915437));
#888=CARTESIAN_POINT('Ctrl Pts',(13.1302257072905,-3.94967852401259,0.0345567433921333));
#889=CARTESIAN_POINT('Ctrl Pts',(13.1529120397924,-3.93856543097116,0.056521783995069));
#890=CARTESIAN_POINT('Ctrl Pts',(13.1745699496357,-3.92795611952113,0.077491099729247));
#891=CARTESIAN_POINT('Ctrl Pts',(13.1958328447703,-3.91589723010497,0.0981380035198659));
#892=CARTESIAN_POINT('Ctrl Pts',(13.2165248156966,-3.90231323104578,0.118272723188234));
#893=CARTESIAN_POINT('Ctrl Pts',(13.2333624881597,-3.89125952679924,0.134656943720903));
#894=CARTESIAN_POINT('Ctrl Pts',(13.2498220695077,-3.87919568241208,0.150701302102526));
#895=CARTESIAN_POINT('Ctrl Pts',(13.2658071191035,-3.86607939728356,0.166278031691747));
#896=CARTESIAN_POINT('Ctrl Pts',(13.2658071191035,-3.86607939728356,0.166278031691747));
#897=CARTESIAN_POINT('Ctrl Pts',(12.6303357416078,-3.89445641962939,0.155667239960692));
#898=CARTESIAN_POINT('Ctrl Pts',(11.3642251688473,-3.92616517387988,0.136094143711723));
#899=CARTESIAN_POINT('Ctrl Pts',(8.83657512939149,-3.95673486964884,0.109449898083757));
#900=CARTESIAN_POINT('Ctrl Pts',(5.68034869740532,-3.96975820702947,0.091596073304152));
#901=CARTESIAN_POINT('Ctrl Pts',(0.631144126049918,-3.97724702221539,0.0806083724450298));
#902=CARTESIAN_POINT('Ctrl Pts',(-4.41795037526534,-3.97443374788222,0.0850144634441064));
#903=CARTESIAN_POINT('Ctrl Pts',(-8.83655727440874,-3.95685072695956,0.109319859460413));
#904=CARTESIAN_POINT('Ctrl Pts',(-11.3642344918351,-3.92611168027862,0.136150555365088));
#905=CARTESIAN_POINT('Ctrl Pts',(-12.6303357416078,-3.89445641962939,0.155667239960692));
#906=CARTESIAN_POINT('Ctrl Pts',(-13.2658071191035,-3.86607939728355,0.166278031691747));
#907=CARTESIAN_POINT('Ctrl Pts',(-12.6278015125727,0.,4.74254677985001));
#908=CARTESIAN_POINT('Ctrl Pts',(-12.9148676750485,-1.33333333333333,3.16169785323334));
#909=CARTESIAN_POINT('Ctrl Pts',(-13.2019338375242,-2.66666666666667,1.58084892661667));
#910=CARTESIAN_POINT('Ctrl Pts',(-13.489,-4.,0.));
#911=CARTESIAN_POINT('Ctrl Pts',(-11.5333740710649,0.,7.65663769825534));
#912=CARTESIAN_POINT('Ctrl Pts',(-11.3251811459904,-1.33333333333334,5.10449535487837));
#913=CARTESIAN_POINT('Ctrl Pts',(-11.1278595917412,-2.66666666666666,2.55214234337697));
#914=CARTESIAN_POINT('Ctrl Pts',(-10.9196666666667,-4.,0.));
#915=CARTESIAN_POINT('Ctrl Pts',(-7.25499401005905,0.,12.6876707150257));
#916=CARTESIAN_POINT('Ctrl Pts',(-6.76545196535435,-1.33333333333333,8.45776670478509));
#917=CARTESIAN_POINT('Ctrl Pts',(-6.2705420447047,-2.66666666666667,4.22990401024056));
#918=CARTESIAN_POINT('Ctrl Pts',(-5.781,-4.,0.));
#919=CARTESIAN_POINT('Ctrl Pts',(2.52064624612955,0.,14.396970164157));
#920=CARTESIAN_POINT('Ctrl Pts',(2.32453939086234,-1.33333333333334,9.59845338799176));
#921=CARTESIAN_POINT('Ctrl Pts',(2.12310685526722,-2.66666666666667,4.79851677616528));
#922=CARTESIAN_POINT('Ctrl Pts',(1.927,-4.,0.));
#923=CARTESIAN_POINT('Ctrl Pts',(9.68761605705714,0.,10.2968487962875));
#924=CARTESIAN_POINT('Ctrl Pts',(9.23978381914373,-1.33333333333333,6.86363885273014));
#925=CARTESIAN_POINT('Ctrl Pts',(8.79816557124675,-2.66666666666667,3.43320994355737));
#926=CARTESIAN_POINT('Ctrl Pts',(8.35033333333334,-4.,0.));
#927=CARTESIAN_POINT('Ctrl Pts',(12.0805877918188,0.,6.19959223905269));
#928=CARTESIAN_POINT('Ctrl Pts',(12.1245680359541,-1.33333333333333,4.13508743270252));
#929=CARTESIAN_POINT('Ctrl Pts',(12.160353089198,-2.66666666666667,2.06450480635017));
#930=CARTESIAN_POINT('Ctrl Pts',(12.2043333333333,-4.,0.));
#931=CARTESIAN_POINT('Ctrl Pts',(12.6278015125727,0.,4.74254677985003));
#932=CARTESIAN_POINT('Ctrl Pts',(12.9148676750485,-1.33333333333333,3.16169785323335));
#933=CARTESIAN_POINT('Ctrl Pts',(13.2019338375242,-2.66666666666667,1.58084892661668));
#934=CARTESIAN_POINT('Ctrl Pts',(13.489,-4.,0.));
#935=CARTESIAN_POINT('',(13.4183157192897,-3.6716934284383,0.389252318440887));
#936=CARTESIAN_POINT('Ctrl Pts',(13.4183157192897,-3.67169342843829,0.389252318440901));
#937=CARTESIAN_POINT('Ctrl Pts',(13.4062097044784,-3.697129190764,0.360806190635448));
#938=CARTESIAN_POINT('Ctrl Pts',(13.3919647066068,-3.7220958115416,0.332691622843153));
#939=CARTESIAN_POINT('Ctrl Pts',(13.3755159726591,-3.746247774084,0.305230967517557));
#940=CARTESIAN_POINT('Ctrl Pts',(13.3600958976955,-3.7688893387239,0.279487626722078));
#941=CARTESIAN_POINT('Ctrl Pts',(13.3427390703934,-3.7908149520838,0.254318843361917));
#942=CARTESIAN_POINT('Ctrl Pts',(13.3234117198857,-3.81173995114292,0.230027062373091));
#943=CARTESIAN_POINT('Ctrl Pts',(13.30594203146,-3.83065372898987,0.208070103243424));
#944=CARTESIAN_POINT('Ctrl Pts',(13.2867280789828,-3.84888404871287,0.18667362808748));
#945=CARTESIAN_POINT('Ctrl Pts',(13.2657724967079,-3.86607939729351,0.166252744408044));
#946=CARTESIAN_POINT('',(12.6278015125727,0.,4.74254677985001));
#947=CARTESIAN_POINT('',(-13.4183157192897,-3.6716934284383,0.389252318440887));
#948=CARTESIAN_POINT('',(-12.6278015125727,0.,4.74254677985001));
#949=CARTESIAN_POINT('Ctrl Pts',(-13.2658071191035,-3.86607939728355,0.166278031691748));
#950=CARTESIAN_POINT('Ctrl Pts',(-13.2720758840654,-3.86093565918316,0.172386668145026));
#951=CARTESIAN_POINT('Ctrl Pts',(-13.2781818799991,-3.85570495448124,0.178576124486311));
#952=CARTESIAN_POINT('Ctrl Pts',(-13.339433811232,-3.80101085218666,0.243065157397031));
#953=CARTESIAN_POINT('Ctrl Pts',(-13.3854942129808,-3.74069642464278,0.31209760782099));
#954=CARTESIAN_POINT('Ctrl Pts',(-13.4183157192897,-3.67169342843829,0.389252318440891));
#955=CARTESIAN_POINT('Origin',(0.,-3.4,0.));
#956=CARTESIAN_POINT('Ctrl Pts',(13.489,-3.4,0.));
#957=CARTESIAN_POINT('Ctrl Pts',(13.489,-3.4108672301002,0.));
#958=CARTESIAN_POINT('Ctrl Pts',(13.4887048803572,-3.42149267301109,0.00191857108774816));
#959=CARTESIAN_POINT('Ctrl Pts',(13.4874028360247,-3.4459264791132,0.0102380755816139));
#960=CARTESIAN_POINT('Ctrl Pts',(13.4862030659509,-3.4589971385577,0.0178325974703836));
#961=CARTESIAN_POINT('Ctrl Pts',(13.4827735177358,-3.48747750940546,0.0391538317391569));
#962=CARTESIAN_POINT('Ctrl Pts',(13.4802236102201,-3.50253824910969,0.0547287149001136));
#963=CARTESIAN_POINT('Ctrl Pts',(13.4632584208376,-3.58616691804406,0.156093845051857));
#964=CARTESIAN_POINT('Ctrl Pts',(13.4366493072793,-3.64076431382135,0.298975830879041));
#965=CARTESIAN_POINT('Ctrl Pts',(13.4183157192897,-3.67169342843828,0.389252318440895));
#966=CARTESIAN_POINT('Origin',(0.,-3.4,0.));
#967=CARTESIAN_POINT('Ctrl Pts',(-13.4183157192897,-3.67169342843828,0.389252318440902));
#968=CARTESIAN_POINT('Ctrl Pts',(-13.4355229036547,-3.64266457834294,0.304522359079817));
#969=CARTESIAN_POINT('Ctrl Pts',(-13.4538885222302,-3.60413750159706,0.20723584334428));
#970=CARTESIAN_POINT('Ctrl Pts',(-13.4723851475494,-3.53994995312489,0.101496357952202));
#971=CARTESIAN_POINT('Ctrl Pts',(-13.4775096156021,-3.5185916274863,0.0711907794032659));
#972=CARTESIAN_POINT('Ctrl Pts',(-13.4834831516699,-3.48186819377344,0.0347801072278751));
#973=CARTESIAN_POINT('Ctrl Pts',(-13.4853408737259,-3.46779305037885,0.0232300679809437));
#974=CARTESIAN_POINT('Ctrl Pts',(-13.4876095362389,-3.44208966099579,0.00892933007651294));
#975=CARTESIAN_POINT('Ctrl Pts',(-13.4883042453323,-3.4311092910863,0.00448440323088099));
#976=CARTESIAN_POINT('Ctrl Pts',(-13.4888937374647,-3.41303525599798,0.000690841250753264));
#977=CARTESIAN_POINT('Ctrl Pts',(-13.489,-3.40652101893982,0.));
#978=CARTESIAN_POINT('Ctrl Pts',(-13.489,-3.4,0.));
#979=CARTESIAN_POINT('Ctrl Pts',(-13.489,0.,-1.65192606736986E-15));
#980=CARTESIAN_POINT('Ctrl Pts',(-13.489,0.,-1.10128404491324E-15));
#981=CARTESIAN_POINT('Ctrl Pts',(-13.489,0.,-5.50642022456622E-16));
#982=CARTESIAN_POINT('Ctrl Pts',(-13.489,0.,0.));
#983=CARTESIAN_POINT('Ctrl Pts',(-13.489,0.,1.61537512357378));
#984=CARTESIAN_POINT('Ctrl Pts',(-13.4887797232315,-0.444444444444444,1.07688316959614));
#985=CARTESIAN_POINT('Ctrl Pts',(-13.4892202767685,-0.888888888888889,0.538491953977636));
#986=CARTESIAN_POINT('Ctrl Pts',(-13.489,-1.33333333333333,0.));
#987=CARTESIAN_POINT('Ctrl Pts',(-13.1957451770812,0.,3.23030447657791));
#988=CARTESIAN_POINT('Ctrl Pts',(-13.2932787653393,-0.88888888888889,2.15349030702758));
#989=CARTESIAN_POINT('Ctrl Pts',(-13.3914664117419,-1.77777777777778,1.07681416955033));
#990=CARTESIAN_POINT('Ctrl Pts',(-13.489,-2.66666666666667,0.));
#991=CARTESIAN_POINT('Ctrl Pts',(-12.6278015125727,0.,4.74254677985001));
#992=CARTESIAN_POINT('Ctrl Pts',(-12.9148676750485,-1.33333333333333,3.16169785323334));
#993=CARTESIAN_POINT('Ctrl Pts',(-13.2019338375242,-2.66666666666667,1.58084892661667));
#994=CARTESIAN_POINT('Ctrl Pts',(-13.489,-4.,0.));
#995=CARTESIAN_POINT('Ctrl Pts',(12.6278015125727,0.,4.74254677985001));
#996=CARTESIAN_POINT('Ctrl Pts',(12.9148676750485,-1.33333333333333,3.16169785323334));
#997=CARTESIAN_POINT('Ctrl Pts',(13.2019338375242,-2.66666666666667,1.58084892661667));
#998=CARTESIAN_POINT('Ctrl Pts',(13.489,-4.,0.));
#999=CARTESIAN_POINT('Ctrl Pts',(13.1957451770812,0.,3.23030447657791));
#1000=CARTESIAN_POINT('Ctrl Pts',(13.2932787653393,-0.888888888888889,2.15349030702758));
#1001=CARTESIAN_POINT('Ctrl Pts',(13.3914664117419,-1.77777777777778,1.07681416955033));
#1002=CARTESIAN_POINT('Ctrl Pts',(13.489,-2.66666666666667,0.));
#1003=CARTESIAN_POINT('Ctrl Pts',(13.489,0.,1.61537512357377));
#1004=CARTESIAN_POINT('Ctrl Pts',(13.4887797232315,-0.444444444444444,1.07688316959613));
#1005=CARTESIAN_POINT('Ctrl Pts',(13.4892202767685,-0.888888888888889,0.538491953977637));
#1006=CARTESIAN_POINT('Ctrl Pts',(13.489,-1.33333333333333,0.));
#1007=CARTESIAN_POINT('Ctrl Pts',(13.489,0.,-2.06574252719303E-14));
#1008=CARTESIAN_POINT('Ctrl Pts',(13.489,3.70074341541719E-16,-1.37716168479535E-14));
#1009=CARTESIAN_POINT('Ctrl Pts',(13.489,7.40148683083438E-16,-6.88580842397675E-15));
#1010=CARTESIAN_POINT('Ctrl Pts',(13.489,1.11022302462516E-15,0.));
#1011=CARTESIAN_POINT('Origin',(0.,0.,-10.494));
#1012=CARTESIAN_POINT('Origin',(0.,19.05,13.484));
#1013=CARTESIAN_POINT('Origin',(0.,19.05,13.479));
#1014=CARTESIAN_POINT('Origin',(0.,19.05,12.8781393809724));
#1015=CARTESIAN_POINT('Origin',(0.,19.05,13.479));
#1016=CARTESIAN_POINT('',(0.,19.05,12.2772787619449));
#1017=CARTESIAN_POINT('',(-1.,19.05,12.8781393809724));
#1018=CARTESIAN_POINT('Origin',(0.,19.05,13.484));
#1019=UNCERTAINTY_MEASURE_WITH_UNIT(LENGTH_MEASURE(0.01),#1023,
'DISTANCE_ACCURACY_VALUE',
'Maximum model space distance between geometric entities at asserted c
onnectivities');
#1020=UNCERTAINTY_MEASURE_WITH_UNIT(LENGTH_MEASURE(0.01),#1023,
'DISTANCE_ACCURACY_VALUE',
'Maximum model space distance between geometric entities at asserted c
onnectivities');
#1021=(
GEOMETRIC_REPRESENTATION_CONTEXT(3)
GLOBAL_UNCERTAINTY_ASSIGNED_CONTEXT((#1019))
GLOBAL_UNIT_ASSIGNED_CONTEXT((#1023,#1025,#1026))
REPRESENTATION_CONTEXT('','3D')
);
#1022=(
GEOMETRIC_REPRESENTATION_CONTEXT(3)
GLOBAL_UNCERTAINTY_ASSIGNED_CONTEXT((#1020))
GLOBAL_UNIT_ASSIGNED_CONTEXT((#1023,#1025,#1026))
REPRESENTATION_CONTEXT('','3D')
);
#1023=(
LENGTH_UNIT()
NAMED_UNIT(*)
SI_UNIT(.MILLI.,.METRE.)
);
#1024=(
LENGTH_UNIT()
NAMED_UNIT(*)
SI_UNIT($,.METRE.)
);
#1025=(
NAMED_UNIT(*)
PLANE_ANGLE_UNIT()
SI_UNIT($,.RADIAN.)
);
#1026=(
NAMED_UNIT(*)
SI_UNIT($,.STERADIAN.)
SOLID_ANGLE_UNIT()
);
#1027=SHAPE_DEFINITION_REPRESENTATION(#1028,#1029);
#1028=PRODUCT_DEFINITION_SHAPE('',$,#1031);
#1029=SHAPE_REPRESENTATION('',(#459),#1021);
#1030=PRODUCT_DEFINITION_CONTEXT('part definition',#1035,'design');
#1031=PRODUCT_DEFINITION('2026-08-27-20-26-48-932','Jig for SST',#1032,
#1030);
#1032=PRODUCT_DEFINITION_FORMATION('',$,#1037);
#1033=PRODUCT_RELATED_PRODUCT_CATEGORY('Jig for SST','Jig for SST',(#1037));
#1034=APPLICATION_PROTOCOL_DEFINITION('international standard',
'automotive_design',2009,#1035);
#1035=APPLICATION_CONTEXT(
'Core Data for Automotive Mechanical Design Process');
#1036=PRODUCT_CONTEXT('part definition',#1035,'mechanical');
#1037=PRODUCT('2026-08-27-20-26-48-932','Jig for SST',$,(#1036));
#1038=PRESENTATION_STYLE_ASSIGNMENT((#1039));
#1039=SURFACE_STYLE_USAGE(.BOTH.,#1040);
#1040=SURFACE_SIDE_STYLE('',(#1041));
#1041=SURFACE_STYLE_FILL_AREA(#1042);
#1042=FILL_AREA_STYLE('Steel - Satin',(#1043));
#1043=FILL_AREA_STYLE_COLOUR('Steel - Satin',#1044);
#1044=COLOUR_RGB('Steel - Satin',0.627450980392157,0.627450980392157,0.627450980392157);
ENDSEC;
END-ISO-10303-21;
