ISO-10303-21;
HEADER;
/* Generated by software containing ST-Developer
 * from STEP Tools, Inc. (www.steptools.com) 
 */

FILE_DESCRIPTION(
/* description */ (''),
/* implementation_level */ '2;1');

FILE_NAME(
/* name */ 'Jig for round tubing.step',
/* time_stamp */ '2026-08-28T20:39:25-04:00',
/* author */ (''),
/* organization */ (''),
/* preprocessor_version */ 'ST-DEVELOPER v20.1',
/* originating_system */ 'Autodesk Translation Framework v15.8.0.0',
/* authorisation */ '');

FILE_SCHEMA (('AUTOMOTIVE_DESIGN { 1 0 10303 214 3 1 1 }'));
ENDSEC;

DATA;
#10=MECHANICAL_DESIGN_GEOMETRIC_PRESENTATION_REPRESENTATION('',(#13),#491);
#11=SHAPE_REPRESENTATION_RELATIONSHIP('SRR','None',#498,#12);
#12=ADVANCED_BREP_SHAPE_REPRESENTATION('',(#14),#490);
#13=STYLED_ITEM('',(#507),#14);
#14=MANIFOLD_SOLID_BREP('Body1',#209);
#15=FACE_BOUND('',#41,.T.);
#16=FACE_BOUND('',#44,.T.);
#17=FACE_BOUND('',#49,.T.);
#18=FACE_BOUND('',#50,.T.);
#19=FACE_BOUND('',#53,.T.);
#20=FACE_BOUND('',#54,.T.);
#21=PLANE('',#225);
#22=PLANE('',#229);
#23=PLANE('',#233);
#24=PLANE('',#237);
#25=PLANE('',#241);
#26=PLANE('',#242);
#27=FACE_OUTER_BOUND('',#39,.T.);
#28=FACE_OUTER_BOUND('',#40,.T.);
#29=FACE_OUTER_BOUND('',#42,.T.);
#30=FACE_OUTER_BOUND('',#43,.T.);
#31=FACE_OUTER_BOUND('',#45,.T.);
#32=FACE_OUTER_BOUND('',#46,.T.);
#33=FACE_OUTER_BOUND('',#47,.T.);
#34=FACE_OUTER_BOUND('',#48,.T.);
#35=FACE_OUTER_BOUND('',#51,.T.);
#36=FACE_OUTER_BOUND('',#52,.T.);
#37=FACE_OUTER_BOUND('',#55,.T.);
#38=FACE_OUTER_BOUND('',#56,.T.);
#39=EDGE_LOOP('',(#139,#140,#141,#142,#143));
#40=EDGE_LOOP('',(#144));
#41=EDGE_LOOP('',(#145));
#42=EDGE_LOOP('',(#146,#147,#148,#149,#150));
#43=EDGE_LOOP('',(#151));
#44=EDGE_LOOP('',(#152));
#45=EDGE_LOOP('',(#153,#154,#155,#156));
#46=EDGE_LOOP('',(#157,#158,#159,#160));
#47=EDGE_LOOP('',(#161,#162,#163,#164));
#48=EDGE_LOOP('',(#165,#166,#167,#168));
#49=EDGE_LOOP('',(#169));
#50=EDGE_LOOP('',(#170));
#51=EDGE_LOOP('',(#171,#172,#173,#174));
#52=EDGE_LOOP('',(#175,#176,#177,#178));
#53=EDGE_LOOP('',(#179,#180));
#54=EDGE_LOOP('',(#181,#182));
#55=EDGE_LOOP('',(#183,#184,#185,#186));
#56=EDGE_LOOP('',(#187,#188,#189,#190));
#57=B_SPLINE_CURVE_WITH_KNOTS('',3,(#304,#305,#306,#307,#308,#309,#310,
#311,#312,#313,#314,#315,#316,#317,#318,#319,#320,#321),.UNSPECIFIED.,.F.,
 .F.,(4,2,2,2,2,2,2,2,4),(0.,0.0943419288504353,0.188683857700871,0.283023117994404,
0.377362378287938,0.47170552591862,0.566048673549302,0.660393222203584,
0.754737770857866),.UNSPECIFIED.);
#58=B_SPLINE_CURVE_WITH_KNOTS('',3,(#322,#323,#324,#325,#326,#327,#328,
#329,#330,#331,#332,#333,#334,#335,#336,#337,#338,#339),.UNSPECIFIED.,.F.,
 .F.,(4,2,2,2,2,2,2,2,4),(0.754737770857866,0.84908133105337,0.943424891248873,
1.03776902731543,1.13211316338198,1.22645144161205,1.32078971984211,1.41513263077233,
1.50947554170255),.UNSPECIFIED.);
#59=B_SPLINE_CURVE_WITH_KNOTS('',3,(#349,#350,#351,#352,#353,#354,#355,
#356,#357,#358,#359,#360,#361,#362,#363,#364,#365,#366),.UNSPECIFIED.,.F.,
 .F.,(4,2,2,2,2,2,2,2,4),(0.,0.0943429109302187,0.188685821860437,0.283024100090504,
0.377362378320572,0.471706514387125,0.566050650453678,0.660394210649182,
0.754737770844685),.UNSPECIFIED.);
#60=B_SPLINE_CURVE_WITH_KNOTS('',3,(#367,#368,#369,#370,#371,#372,#373,
#374,#375,#376,#377,#378,#379,#380,#381,#382,#383,#384),.UNSPECIFIED.,.F.,
 .F.,(4,2,2,2,2,2,2,2,4),(0.754737770844685,0.849082319498968,0.94342686815325,
1.03777001578393,1.13211316341461,1.22645242370815,1.32079168400168,1.41513361285212,
1.50947554170255),.UNSPECIFIED.);
#61=B_SPLINE_CURVE_WITH_KNOTS('',3,(#391,#392,#393,#394,#395,#396,#397,
#398,#399,#400,#401,#402,#403,#404,#405,#406,#407,#408,#409,#410,#411,#412,
#413,#414,#415,#416,#417,#418,#419,#420,#421,#422,#423,#424),
 .UNSPECIFIED.,.T.,.F.,(4,2,2,2,2,2,2,2,2,2,2,2,2,2,2,2,4),(0.,0.0565591738793444,
0.113118347758689,0.169678599702764,0.226238851646839,0.282795905127976,
0.339352958609112,0.395911794825474,0.452470631041837,0.509028931718966,
0.565587232396096,0.622144821414839,0.678702410433581,0.735262121090229,
0.791821831746877,0.84838154691843,0.904941262089983),.UNSPECIFIED.);
#62=B_SPLINE_CURVE_WITH_KNOTS('',3,(#427,#428,#429,#430,#431,#432,#433,
#434,#435,#436,#437,#438,#439,#440,#441,#442,#443,#444,#445,#446,#447,#448,
#449,#450,#451,#452,#453,#454,#455,#456,#457,#458,#459,#460),
 .UNSPECIFIED.,.T.,.F.,(4,2,2,2,2,2,2,2,2,2,2,2,2,2,2,2,4),(0.,0.0565597151715534,
0.113119430343107,0.169679140999755,0.226238851656402,0.282796440675145,
0.339354029693887,0.395912330371017,0.452470631048146,0.509029467264509,
0.565588303480871,0.622145356962008,0.678702410443144,0.735262662387219,
0.791822914331294,0.848382088210639,0.904941262089983),.UNSPECIFIED.);
#63=LINE('',#302,#75);
#64=LINE('',#347,#76);
#65=LINE('',#390,#77);
#66=LINE('',#461,#78);
#67=LINE('',#465,#79);
#68=LINE('',#467,#80);
#69=LINE('',#469,#81);
#70=LINE('',#470,#82);
#71=LINE('',#476,#83);
#72=LINE('',#479,#84);
#73=LINE('',#481,#85);
#74=LINE('',#482,#86);
#75=VECTOR('',#249,2.5);
#76=VECTOR('',#258,2.5);
#77=VECTOR('',#265,1.5);
#78=VECTOR('',#268,1.5);
#79=VECTOR('',#271,10.);
#80=VECTOR('',#272,10.);
#81=VECTOR('',#273,10.);
#82=VECTOR('',#274,10.);
#83=VECTOR('',#281,10.);
#84=VECTOR('',#284,10.);
#85=VECTOR('',#285,10.);
#86=VECTOR('',#286,10.);
#87=CIRCLE('',#224,2.5);
#88=CIRCLE('',#226,1.5);
#89=CIRCLE('',#228,2.5);
#90=CIRCLE('',#230,1.5);
#91=CIRCLE('',#235,12.8);
#92=CIRCLE('',#236,12.8);
#93=CIRCLE('',#239,15.8);
#94=CIRCLE('',#240,15.8);
#95=VERTEX_POINT('',#299);
#96=VERTEX_POINT('',#301);
#97=VERTEX_POINT('',#303);
#98=VERTEX_POINT('',#341);
#99=VERTEX_POINT('',#344);
#100=VERTEX_POINT('',#346);
#101=VERTEX_POINT('',#348);
#102=VERTEX_POINT('',#386);
#103=VERTEX_POINT('',#389);
#104=VERTEX_POINT('',#426);
#105=VERTEX_POINT('',#463);
#106=VERTEX_POINT('',#464);
#107=VERTEX_POINT('',#466);
#108=VERTEX_POINT('',#468);
#109=VERTEX_POINT('',#472);
#110=VERTEX_POINT('',#474);
#111=VERTEX_POINT('',#478);
#112=VERTEX_POINT('',#480);
#113=EDGE_CURVE('',#95,#95,#87,.T.);
#114=EDGE_CURVE('',#95,#96,#63,.T.);
#115=EDGE_CURVE('',#97,#96,#57,.T.);
#116=EDGE_CURVE('',#96,#97,#58,.T.);
#117=EDGE_CURVE('',#98,#98,#88,.T.);
#118=EDGE_CURVE('',#99,#99,#89,.T.);
#119=EDGE_CURVE('',#99,#100,#64,.T.);
#120=EDGE_CURVE('',#101,#100,#59,.T.);
#121=EDGE_CURVE('',#100,#101,#60,.T.);
#122=EDGE_CURVE('',#102,#102,#90,.T.);
#123=EDGE_CURVE('',#102,#103,#65,.T.);
#124=EDGE_CURVE('',#103,#103,#61,.T.);
#125=EDGE_CURVE('',#104,#104,#62,.T.);
#126=EDGE_CURVE('',#104,#98,#66,.T.);
#127=EDGE_CURVE('',#105,#106,#67,.T.);
#128=EDGE_CURVE('',#105,#107,#68,.T.);
#129=EDGE_CURVE('',#108,#107,#69,.T.);
#130=EDGE_CURVE('',#106,#108,#70,.T.);
#131=EDGE_CURVE('',#106,#109,#91,.T.);
#132=EDGE_CURVE('',#110,#108,#92,.T.);
#133=EDGE_CURVE('',#109,#110,#71,.T.);
#134=EDGE_CURVE('',#109,#111,#72,.T.);
#135=EDGE_CURVE('',#112,#110,#73,.T.);
#136=EDGE_CURVE('',#111,#112,#74,.T.);
#137=EDGE_CURVE('',#105,#111,#93,.T.);
#138=EDGE_CURVE('',#107,#112,#94,.T.);
#139=ORIENTED_EDGE('',*,*,#113,.T.);
#140=ORIENTED_EDGE('',*,*,#114,.T.);
#141=ORIENTED_EDGE('',*,*,#115,.F.);
#142=ORIENTED_EDGE('',*,*,#116,.F.);
#143=ORIENTED_EDGE('',*,*,#114,.F.);
#144=ORIENTED_EDGE('',*,*,#113,.F.);
#145=ORIENTED_EDGE('',*,*,#117,.F.);
#146=ORIENTED_EDGE('',*,*,#118,.F.);
#147=ORIENTED_EDGE('',*,*,#119,.T.);
#148=ORIENTED_EDGE('',*,*,#120,.F.);
#149=ORIENTED_EDGE('',*,*,#121,.F.);
#150=ORIENTED_EDGE('',*,*,#119,.F.);
#151=ORIENTED_EDGE('',*,*,#118,.T.);
#152=ORIENTED_EDGE('',*,*,#122,.T.);
#153=ORIENTED_EDGE('',*,*,#122,.F.);
#154=ORIENTED_EDGE('',*,*,#123,.T.);
#155=ORIENTED_EDGE('',*,*,#124,.F.);
#156=ORIENTED_EDGE('',*,*,#123,.F.);
#157=ORIENTED_EDGE('',*,*,#125,.F.);
#158=ORIENTED_EDGE('',*,*,#126,.T.);
#159=ORIENTED_EDGE('',*,*,#117,.T.);
#160=ORIENTED_EDGE('',*,*,#126,.F.);
#161=ORIENTED_EDGE('',*,*,#127,.F.);
#162=ORIENTED_EDGE('',*,*,#128,.T.);
#163=ORIENTED_EDGE('',*,*,#129,.F.);
#164=ORIENTED_EDGE('',*,*,#130,.F.);
#165=ORIENTED_EDGE('',*,*,#131,.F.);
#166=ORIENTED_EDGE('',*,*,#130,.T.);
#167=ORIENTED_EDGE('',*,*,#132,.F.);
#168=ORIENTED_EDGE('',*,*,#133,.F.);
#169=ORIENTED_EDGE('',*,*,#125,.T.);
#170=ORIENTED_EDGE('',*,*,#124,.T.);
#171=ORIENTED_EDGE('',*,*,#134,.F.);
#172=ORIENTED_EDGE('',*,*,#133,.T.);
#173=ORIENTED_EDGE('',*,*,#135,.F.);
#174=ORIENTED_EDGE('',*,*,#136,.F.);
#175=ORIENTED_EDGE('',*,*,#137,.T.);
#176=ORIENTED_EDGE('',*,*,#136,.T.);
#177=ORIENTED_EDGE('',*,*,#138,.F.);
#178=ORIENTED_EDGE('',*,*,#128,.F.);
#179=ORIENTED_EDGE('',*,*,#115,.T.);
#180=ORIENTED_EDGE('',*,*,#116,.T.);
#181=ORIENTED_EDGE('',*,*,#120,.T.);
#182=ORIENTED_EDGE('',*,*,#121,.T.);
#183=ORIENTED_EDGE('',*,*,#138,.T.);
#184=ORIENTED_EDGE('',*,*,#135,.T.);
#185=ORIENTED_EDGE('',*,*,#132,.T.);
#186=ORIENTED_EDGE('',*,*,#129,.T.);
#187=ORIENTED_EDGE('',*,*,#137,.F.);
#188=ORIENTED_EDGE('',*,*,#127,.T.);
#189=ORIENTED_EDGE('',*,*,#131,.T.);
#190=ORIENTED_EDGE('',*,*,#134,.T.);
#191=CYLINDRICAL_SURFACE('',#223,2.5);
#192=CYLINDRICAL_SURFACE('',#227,2.5);
#193=CYLINDRICAL_SURFACE('',#231,1.5);
#194=CYLINDRICAL_SURFACE('',#232,1.5);
#195=CYLINDRICAL_SURFACE('',#234,12.8);
#196=CYLINDRICAL_SURFACE('',#238,15.8);
#197=ADVANCED_FACE('',(#27),#191,.T.);
#198=ADVANCED_FACE('',(#28,#15),#21,.F.);
#199=ADVANCED_FACE('',(#29),#192,.T.);
#200=ADVANCED_FACE('',(#30,#16),#22,.T.);
#201=ADVANCED_FACE('',(#31),#193,.F.);
#202=ADVANCED_FACE('',(#32),#194,.F.);
#203=ADVANCED_FACE('',(#33),#23,.T.);
#204=ADVANCED_FACE('',(#34,#17,#18),#195,.F.);
#205=ADVANCED_FACE('',(#35),#24,.T.);
#206=ADVANCED_FACE('',(#36,#19,#20),#196,.T.);
#207=ADVANCED_FACE('',(#37),#25,.T.);
#208=ADVANCED_FACE('',(#38),#26,.F.);
#209=CLOSED_SHELL('',(#197,#198,#199,#200,#201,#202,#203,#204,#205,#206,
#207,#208));
#210=DERIVED_UNIT_ELEMENT(#212,1.);
#211=DERIVED_UNIT_ELEMENT(#493,-3.);
#212=(
MASS_UNIT()
NAMED_UNIT(*)
SI_UNIT(.KILO.,.GRAM.)
);
#213=DERIVED_UNIT((#210,#211));
#214=MEASURE_REPRESENTATION_ITEM('density measure',
POSITIVE_RATIO_MEASURE(7850.),#213);
#215=PROPERTY_DEFINITION_REPRESENTATION(#220,#217);
#216=PROPERTY_DEFINITION_REPRESENTATION(#221,#218);
#217=REPRESENTATION('material name',(#219),#490);
#218=REPRESENTATION('density',(#214),#490);
#219=DESCRIPTIVE_REPRESENTATION_ITEM('Steel','Steel');
#220=PROPERTY_DEFINITION('material property','material name',#500);
#221=PROPERTY_DEFINITION('material property','density of part',#500);
#222=AXIS2_PLACEMENT_3D('',#297,#243,#244);
#223=AXIS2_PLACEMENT_3D('',#298,#245,#246);
#224=AXIS2_PLACEMENT_3D('',#300,#247,#248);
#225=AXIS2_PLACEMENT_3D('',#340,#250,#251);
#226=AXIS2_PLACEMENT_3D('',#342,#252,#253);
#227=AXIS2_PLACEMENT_3D('',#343,#254,#255);
#228=AXIS2_PLACEMENT_3D('',#345,#256,#257);
#229=AXIS2_PLACEMENT_3D('',#385,#259,#260);
#230=AXIS2_PLACEMENT_3D('',#387,#261,#262);
#231=AXIS2_PLACEMENT_3D('',#388,#263,#264);
#232=AXIS2_PLACEMENT_3D('',#425,#266,#267);
#233=AXIS2_PLACEMENT_3D('',#462,#269,#270);
#234=AXIS2_PLACEMENT_3D('',#471,#275,#276);
#235=AXIS2_PLACEMENT_3D('',#473,#277,#278);
#236=AXIS2_PLACEMENT_3D('',#475,#279,#280);
#237=AXIS2_PLACEMENT_3D('',#477,#282,#283);
#238=AXIS2_PLACEMENT_3D('',#483,#287,#288);
#239=AXIS2_PLACEMENT_3D('',#484,#289,#290);
#240=AXIS2_PLACEMENT_3D('',#485,#291,#292);
#241=AXIS2_PLACEMENT_3D('',#486,#293,#294);
#242=AXIS2_PLACEMENT_3D('',#487,#295,#296);
#243=DIRECTION('axis',(0.,0.,1.));
#244=DIRECTION('refdir',(1.,0.,0.));
#245=DIRECTION('center_axis',(0.,0.,1.));
#246=DIRECTION('ref_axis',(1.,0.,0.));
#247=DIRECTION('center_axis',(0.,0.,1.));
#248=DIRECTION('ref_axis',(1.,0.,0.));
#249=DIRECTION('',(0.,0.,1.));
#250=DIRECTION('center_axis',(0.,0.,1.));
#251=DIRECTION('ref_axis',(1.,0.,0.));
#252=DIRECTION('center_axis',(0.,0.,-1.));
#253=DIRECTION('ref_axis',(1.,0.,0.));
#254=DIRECTION('center_axis',(0.,0.,1.));
#255=DIRECTION('ref_axis',(1.,0.,0.));
#256=DIRECTION('center_axis',(0.,0.,1.));
#257=DIRECTION('ref_axis',(1.,0.,0.));
#258=DIRECTION('',(0.,0.,-1.));
#259=DIRECTION('center_axis',(0.,0.,1.));
#260=DIRECTION('ref_axis',(1.,0.,0.));
#261=DIRECTION('center_axis',(0.,0.,-1.));
#262=DIRECTION('ref_axis',(1.,0.,0.));
#263=DIRECTION('center_axis',(0.,0.,-1.));
#264=DIRECTION('ref_axis',(1.,0.,0.));
#265=DIRECTION('',(0.,0.,-1.));
#266=DIRECTION('center_axis',(0.,0.,-1.));
#267=DIRECTION('ref_axis',(1.,0.,0.));
#268=DIRECTION('',(0.,0.,-1.));
#269=DIRECTION('center_axis',(0.,0.,1.));
#270=DIRECTION('ref_axis',(1.,0.,0.));
#271=DIRECTION('',(-1.,0.,0.));
#272=DIRECTION('',(0.,1.,0.));
#273=DIRECTION('',(1.,0.,0.));
#274=DIRECTION('',(0.,1.,0.));
#275=DIRECTION('center_axis',(0.,1.,0.));
#276=DIRECTION('ref_axis',(-1.,0.,-1.22464679914735E-16));
#277=DIRECTION('center_axis',(0.,1.,0.));
#278=DIRECTION('ref_axis',(1.,0.,0.));
#279=DIRECTION('center_axis',(0.,-1.,0.));
#280=DIRECTION('ref_axis',(1.,0.,0.));
#281=DIRECTION('',(0.,1.,0.));
#282=DIRECTION('center_axis',(0.,0.,-1.));
#283=DIRECTION('ref_axis',(-1.,0.,0.));
#284=DIRECTION('',(1.,0.,0.));
#285=DIRECTION('',(-1.,0.,0.));
#286=DIRECTION('',(0.,1.,0.));
#287=DIRECTION('center_axis',(0.,1.,0.));
#288=DIRECTION('ref_axis',(-1.,0.,-1.22464679914735E-16));
#289=DIRECTION('center_axis',(0.,1.,0.));
#290=DIRECTION('ref_axis',(1.,0.,0.));
#291=DIRECTION('center_axis',(0.,1.,0.));
#292=DIRECTION('ref_axis',(1.,0.,0.));
#293=DIRECTION('center_axis',(0.,1.,0.));
#294=DIRECTION('ref_axis',(1.,0.,0.));
#295=DIRECTION('center_axis',(0.,1.,0.));
#296=DIRECTION('ref_axis',(1.,0.,0.));
#297=CARTESIAN_POINT('',(0.,0.,0.));
#298=CARTESIAN_POINT('Origin',(-0.00791933111456866,20.,-15.8));
#299=CARTESIAN_POINT('',(-2.50791933111457,20.,-16.8));
#300=CARTESIAN_POINT('Origin',(-0.00791933111456866,20.,-16.8));
#301=CARTESIAN_POINT('',(-2.50791933111457,20.,-15.5996904016914));
#302=CARTESIAN_POINT('',(-2.50791933111457,20.,-15.8));
#303=CARTESIAN_POINT('',(2.49208066888543,20.,-15.6022284927432));
#304=CARTESIAN_POINT('Ctrl Pts',(2.49208066888543,20.,-15.6022284927432));
#305=CARTESIAN_POINT('Ctrl Pts',(2.49208066888543,20.3144730961681,-15.6022284927432));
#306=CARTESIAN_POINT('Ctrl Pts',(2.42912565047006,20.6495416886702,-15.6126870133783));
#307=CARTESIAN_POINT('Ctrl Pts',(2.17383053710458,21.2653301439667,-15.6502750077621));
#308=CARTESIAN_POINT('Ctrl Pts',(1.98151861457514,21.546095960243,-15.6768408577523));
#309=CARTESIAN_POINT('Ctrl Pts',(1.53818289931675,21.9894316755014,-15.7265300003761));
#310=CARTESIAN_POINT('Ctrl Pts',(1.25741433396815,22.1817485298258,-15.7529062214401));
#311=CARTESIAN_POINT('Ctrl Pts',(0.641616939358667,22.4370471064742,-15.7899801433637));
#312=CARTESIAN_POINT('Ctrl Pts',(0.306544830363242,22.5,-15.8001556321662));
#313=CARTESIAN_POINT('Ctrl Pts',(-0.322396450381246,22.5,-15.799840391984));
#314=CARTESIAN_POINT('Ctrl Pts',(-0.657471058349477,22.4370427191445,-15.7893282657855));
#315=CARTESIAN_POINT('Ctrl Pts',(-1.27326340684331,22.1817421929068,-15.7516334257184));
#316=CARTESIAN_POINT('Ctrl Pts',(-1.55402509538598,21.9894281416613,-15.7249727568516));
#317=CARTESIAN_POINT('Ctrl Pts',(-1.99735076451,21.5461024725373,-15.6748318524411));
#318=CARTESIAN_POINT('Ctrl Pts',(-2.18966222307357,21.2653421858084,-15.6480679894121));
#319=CARTESIAN_POINT('Ctrl Pts',(-2.44496075936232,20.6495550447009,-15.6102152297712));
#320=CARTESIAN_POINT('Ctrl Pts',(-2.50791933111457,20.3144818288476,-15.5996904016914));
#321=CARTESIAN_POINT('Ctrl Pts',(-2.50791933111457,20.,-15.5996904016914));
#322=CARTESIAN_POINT('Ctrl Pts',(-2.50791933111457,20.,-15.5996904016914));
#323=CARTESIAN_POINT('Ctrl Pts',(-2.50791933111457,19.685521466015,-15.5996904016914));
#324=CARTESIAN_POINT('Ctrl Pts',(-2.44496206679511,19.3504515269713,-15.6102150045325));
#325=CARTESIAN_POINT('Ctrl Pts',(-2.18966843637047,18.734669382825,-15.6480670995616));
#326=CARTESIAN_POINT('Ctrl Pts',(-1.99736057586133,18.4539108181545,-15.6748305443746));
#327=CARTESIAN_POINT('Ctrl Pts',(-1.55403838622961,18.0105816700384,-15.7249714520085));
#328=CARTESIAN_POINT('Ctrl Pts',(-1.27327497575536,17.8182640206169,-15.7516325397908));
#329=CARTESIAN_POINT('Ctrl Pts',(-0.657477630140283,17.5629585883031,-15.7893280412509));
#330=CARTESIAN_POINT('Ctrl Pts',(-0.322399745167071,17.5,-15.7998403903326));
#331=CARTESIAN_POINT('Ctrl Pts',(0.306541556818765,17.5,-15.8001556305255));
#332=CARTESIAN_POINT('Ctrl Pts',(0.641610409686715,17.5629515945333,-15.7899803598982));
#333=CARTESIAN_POINT('Ctrl Pts',(1.25740283895469,17.8182452964962,-15.7529070900719));
#334=CARTESIAN_POINT('Ctrl Pts',(1.53816969330552,18.0105585755794,-15.7265312834536));
#335=CARTESIAN_POINT('Ctrl Pts',(1.98150886602791,18.4538908341629,-15.676842147423));
#336=CARTESIAN_POINT('Ctrl Pts',(2.17382436366235,18.7346583615685,-15.6502758855271));
#337=CARTESIAN_POINT('Ctrl Pts',(2.42912435148788,19.3504517819225,-15.6126872358038));
#338=CARTESIAN_POINT('Ctrl Pts',(2.49208066888543,19.6855236302326,-15.6022284927432));
#339=CARTESIAN_POINT('Ctrl Pts',(2.49208066888543,20.,-15.6022284927432));
#340=CARTESIAN_POINT('Origin',(-0.00791933111456866,20.,-16.8));
#341=CARTESIAN_POINT('',(-1.50791933111457,20.,-16.8));
#342=CARTESIAN_POINT('Origin',(-0.00791933111456866,20.,-16.8));
#343=CARTESIAN_POINT('Origin',(-0.00791933111456866,20.,15.8));
#344=CARTESIAN_POINT('',(-2.50791933111457,20.,16.8));
#345=CARTESIAN_POINT('Origin',(-0.00791933111456866,20.,16.8));
#346=CARTESIAN_POINT('',(-2.50791933111457,20.,15.5996904016914));
#347=CARTESIAN_POINT('',(-2.50791933111457,20.,15.8));
#348=CARTESIAN_POINT('',(2.49208066888543,20.,15.6022284927432));
#349=CARTESIAN_POINT('Ctrl Pts',(2.49208066888543,20.,15.6022284927432));
#350=CARTESIAN_POINT('Ctrl Pts',(2.49208066888543,19.6855236302326,15.6022284927432));
#351=CARTESIAN_POINT('Ctrl Pts',(2.42912435148788,19.3504517819225,15.6126872358038));
#352=CARTESIAN_POINT('Ctrl Pts',(2.17382436366235,18.7346583615685,15.6502758855271));
#353=CARTESIAN_POINT('Ctrl Pts',(1.98150886602791,18.4538908341629,15.676842147423));
#354=CARTESIAN_POINT('Ctrl Pts',(1.53816969330552,18.0105585755794,15.7265312834536));
#355=CARTESIAN_POINT('Ctrl Pts',(1.25740283895469,17.8182452964962,15.7529070900719));
#356=CARTESIAN_POINT('Ctrl Pts',(0.641610409686713,17.5629515945333,15.7899803598982));
#357=CARTESIAN_POINT('Ctrl Pts',(0.306541556818765,17.5,15.8001556305255));
#358=CARTESIAN_POINT('Ctrl Pts',(-0.322399745167071,17.5,15.7998403903326));
#359=CARTESIAN_POINT('Ctrl Pts',(-0.657477630140283,17.5629585883031,15.7893280412509));
#360=CARTESIAN_POINT('Ctrl Pts',(-1.27327497575536,17.8182640206169,15.7516325397908));
#361=CARTESIAN_POINT('Ctrl Pts',(-1.55403838622961,18.0105816700384,15.7249714520085));
#362=CARTESIAN_POINT('Ctrl Pts',(-1.99736057586133,18.4539108181545,15.6748305443746));
#363=CARTESIAN_POINT('Ctrl Pts',(-2.18966843637047,18.734669382825,15.6480670995616));
#364=CARTESIAN_POINT('Ctrl Pts',(-2.44496206679511,19.3504515269713,15.6102150045325));
#365=CARTESIAN_POINT('Ctrl Pts',(-2.50791933111457,19.685521466015,15.5996904016914));
#366=CARTESIAN_POINT('Ctrl Pts',(-2.50791933111457,20.,15.5996904016914));
#367=CARTESIAN_POINT('Ctrl Pts',(-2.50791933111457,20.,15.5996904016914));
#368=CARTESIAN_POINT('Ctrl Pts',(-2.50791933111457,20.3144818288476,15.5996904016914));
#369=CARTESIAN_POINT('Ctrl Pts',(-2.44496075936232,20.6495550447009,15.6102152297712));
#370=CARTESIAN_POINT('Ctrl Pts',(-2.18966222307357,21.2653421858084,15.6480679894121));
#371=CARTESIAN_POINT('Ctrl Pts',(-1.99735076451,21.5461024725373,15.6748318524411));
#372=CARTESIAN_POINT('Ctrl Pts',(-1.55402509538598,21.9894281416613,15.7249727568516));
#373=CARTESIAN_POINT('Ctrl Pts',(-1.27326340684331,22.1817421929068,15.7516334257184));
#374=CARTESIAN_POINT('Ctrl Pts',(-0.657471058349472,22.4370427191445,15.7893282657855));
#375=CARTESIAN_POINT('Ctrl Pts',(-0.322396450381246,22.5,15.799840391984));
#376=CARTESIAN_POINT('Ctrl Pts',(0.306544830363242,22.5,15.8001556321662));
#377=CARTESIAN_POINT('Ctrl Pts',(0.641616939358668,22.4370471064742,15.7899801433637));
#378=CARTESIAN_POINT('Ctrl Pts',(1.25741433396815,22.1817485298258,15.7529062214401));
#379=CARTESIAN_POINT('Ctrl Pts',(1.53818289931675,21.9894316755014,15.7265300003761));
#380=CARTESIAN_POINT('Ctrl Pts',(1.98151861457514,21.546095960243,15.6768408577523));
#381=CARTESIAN_POINT('Ctrl Pts',(2.17383053710458,21.2653301439667,15.6502750077621));
#382=CARTESIAN_POINT('Ctrl Pts',(2.42912565047006,20.6495416886702,15.6126870133783));
#383=CARTESIAN_POINT('Ctrl Pts',(2.49208066888543,20.3144730961681,15.6022284927432));
#384=CARTESIAN_POINT('Ctrl Pts',(2.49208066888543,20.,15.6022284927432));
#385=CARTESIAN_POINT('Origin',(-0.00791933111456866,20.,16.8));
#386=CARTESIAN_POINT('',(-1.50791933111457,20.,16.8));
#387=CARTESIAN_POINT('Origin',(-0.00791933111456866,20.,16.8));
#388=CARTESIAN_POINT('Origin',(-0.00791933111456866,20.,15.8));
#389=CARTESIAN_POINT('',(-1.50791933111457,20.,12.7108685498219));
#390=CARTESIAN_POINT('',(-1.50791933111457,20.,15.8));
#391=CARTESIAN_POINT('Ctrl Pts',(-1.50791933111457,20.,12.7108685498219));
#392=CARTESIAN_POINT('Ctrl Pts',(-1.50791933111457,19.8114694204022,12.7108685498219));
#393=CARTESIAN_POINT('Ctrl Pts',(-1.47020580883488,19.6104929133205,12.7155191638552));
#394=CARTESIAN_POINT('Ctrl Pts',(-1.31707344784126,19.2409788843913,12.7322916328579));
#395=CARTESIAN_POINT('Ctrl Pts',(-1.20166411868055,19.0724263535723,12.7441687499621));
#396=CARTESIAN_POINT('Ctrl Pts',(-0.935507569714565,18.8062659855472,12.7664662318318));
#397=CARTESIAN_POINT('Ctrl Pts',(-0.766953139071598,18.6908526894942,12.7783406535296));
#398=CARTESIAN_POINT('Ctrl Pts',(-0.397433407545764,18.5377148727099,12.7951652455461));
#399=CARTESIAN_POINT('Ctrl Pts',(-0.196453468177277,18.5,12.7998809044962));
#400=CARTESIAN_POINT('Ctrl Pts',(0.180604144407051,18.5,12.8001141892348));
#401=CARTESIAN_POINT('Ctrl Pts',(0.38157915745662,18.5377110579826,12.7956476981071));
#402=CARTESIAN_POINT('Ctrl Pts',(0.751096202809682,18.6908424712857,12.7792823414501));
#403=CARTESIAN_POINT('Ctrl Pts',(0.919652501533782,18.8062533784856,12.7676180390758));
#404=CARTESIAN_POINT('Ctrl Pts',(1.18581831632308,19.0724154145284,12.7456528730431));
#405=CARTESIAN_POINT('Ctrl Pts',(1.30123180798756,19.2409728263463,12.7339203364244));
#406=CARTESIAN_POINT('Ctrl Pts',(1.45436764678341,19.6104929932137,12.7173403719348));
#407=CARTESIAN_POINT('Ctrl Pts',(1.49208066888543,19.8114705459455,12.7127375209881));
#408=CARTESIAN_POINT('Ctrl Pts',(1.49208066888543,20.1885276689238,12.7127375209881));
#409=CARTESIAN_POINT('Ctrl Pts',(1.45436835486327,20.3895034431619,12.717340282858));
#410=CARTESIAN_POINT('Ctrl Pts',(1.30123517826713,20.7590208960581,12.7339199839382));
#411=CARTESIAN_POINT('Ctrl Pts',(1.18582364060168,20.9275773718434,12.7456523545757));
#412=CARTESIAN_POINT('Ctrl Pts',(0.919659715275082,21.19374129717,12.7676175228455));
#413=CARTESIAN_POINT('Ctrl Pts',(0.751102480540815,21.3091541583941,12.7792819921814));
#414=CARTESIAN_POINT('Ctrl Pts',(0.381582721148745,21.4622882339369,12.795647611512));
#415=CARTESIAN_POINT('Ctrl Pts',(0.180605929532063,21.5,12.8001141903393));
#416=CARTESIAN_POINT('Ctrl Pts',(-0.196451663886197,21.5,12.7998809056125));
#417=CARTESIAN_POINT('Ctrl Pts',(-0.39742980571731,21.4622858429859,12.7951653375305));
#418=CARTESIAN_POINT('Ctrl Pts',(-0.766946794283896,21.3091507169047,12.7783410144223));
#419=CARTESIAN_POINT('Ctrl Pts',(-0.935500278950669,21.1937393957235,12.7664667626695));
#420=CARTESIAN_POINT('Ctrl Pts',(-1.20165873746122,20.927580937213,12.7441692807256));
#421=CARTESIAN_POINT('Ctrl Pts',(-1.31707004147692,20.7590274603987,12.7322919934029));
#422=CARTESIAN_POINT('Ctrl Pts',(-1.4702050931418,20.3895106885145,12.7155192547956));
#423=CARTESIAN_POINT('Ctrl Pts',(-1.50791933111457,20.1885323839052,12.7108685498219));
#424=CARTESIAN_POINT('Ctrl Pts',(-1.50791933111457,20.,12.7108685498219));
#425=CARTESIAN_POINT('Origin',(-0.00791933111456866,20.,15.8));
#426=CARTESIAN_POINT('',(-1.50791933111457,20.,-12.7108685498219));
#427=CARTESIAN_POINT('Ctrl Pts',(-1.50791933111457,20.,-12.7108685498219));
#428=CARTESIAN_POINT('Ctrl Pts',(-1.50791933111457,20.1885323839052,-12.7108685498219));
#429=CARTESIAN_POINT('Ctrl Pts',(-1.4702050931418,20.3895106885145,-12.7155192547956));
#430=CARTESIAN_POINT('Ctrl Pts',(-1.31707004147691,20.7590274603987,-12.7322919934029));
#431=CARTESIAN_POINT('Ctrl Pts',(-1.20165873746122,20.927580937213,-12.7441692807256));
#432=CARTESIAN_POINT('Ctrl Pts',(-0.935500278950669,21.1937393957235,-12.7664667626695));
#433=CARTESIAN_POINT('Ctrl Pts',(-0.766946794283896,21.3091507169047,-12.7783410144223));
#434=CARTESIAN_POINT('Ctrl Pts',(-0.39742980571731,21.4622858429859,-12.7951653375305));
#435=CARTESIAN_POINT('Ctrl Pts',(-0.196451663886197,21.5,-12.7998809056125));
#436=CARTESIAN_POINT('Ctrl Pts',(0.180605929532063,21.5,-12.8001141903393));
#437=CARTESIAN_POINT('Ctrl Pts',(0.381582721148745,21.4622882339369,-12.795647611512));
#438=CARTESIAN_POINT('Ctrl Pts',(0.751102480540816,21.3091541583941,-12.7792819921814));
#439=CARTESIAN_POINT('Ctrl Pts',(0.919659715275082,21.19374129717,-12.7676175228455));
#440=CARTESIAN_POINT('Ctrl Pts',(1.18582364060168,20.9275773718434,-12.7456523545757));
#441=CARTESIAN_POINT('Ctrl Pts',(1.30123517826713,20.7590208960581,-12.7339199839382));
#442=CARTESIAN_POINT('Ctrl Pts',(1.45436835486327,20.3895034431619,-12.717340282858));
#443=CARTESIAN_POINT('Ctrl Pts',(1.49208066888543,20.1885276689238,-12.7127375209881));
#444=CARTESIAN_POINT('Ctrl Pts',(1.49208066888543,19.8114705459455,-12.7127375209881));
#445=CARTESIAN_POINT('Ctrl Pts',(1.45436764678341,19.6104929932137,-12.7173403719348));
#446=CARTESIAN_POINT('Ctrl Pts',(1.30123180798756,19.2409728263463,-12.7339203364244));
#447=CARTESIAN_POINT('Ctrl Pts',(1.18581831632308,19.0724154145284,-12.7456528730431));
#448=CARTESIAN_POINT('Ctrl Pts',(0.919652501533783,18.8062533784856,-12.7676180390758));
#449=CARTESIAN_POINT('Ctrl Pts',(0.751096202809682,18.6908424712857,-12.7792823414501));
#450=CARTESIAN_POINT('Ctrl Pts',(0.381579157456619,18.5377110579826,-12.7956476981071));
#451=CARTESIAN_POINT('Ctrl Pts',(0.180604144407051,18.5,-12.8001141892348));
#452=CARTESIAN_POINT('Ctrl Pts',(-0.196453468177277,18.5,-12.7998809044962));
#453=CARTESIAN_POINT('Ctrl Pts',(-0.397433407545763,18.5377148727099,-12.7951652455461));
#454=CARTESIAN_POINT('Ctrl Pts',(-0.766953139071598,18.6908526894942,-12.7783406535296));
#455=CARTESIAN_POINT('Ctrl Pts',(-0.935507569714565,18.8062659855472,-12.7664662318318));
#456=CARTESIAN_POINT('Ctrl Pts',(-1.20166411868055,19.0724263535723,-12.7441687499621));
#457=CARTESIAN_POINT('Ctrl Pts',(-1.31707344784126,19.2409788843913,-12.7322916328579));
#458=CARTESIAN_POINT('Ctrl Pts',(-1.47020580883488,19.6104929133205,-12.7155191638552));
#459=CARTESIAN_POINT('Ctrl Pts',(-1.50791933111457,19.8114694204022,-12.7108685498219));
#460=CARTESIAN_POINT('Ctrl Pts',(-1.50791933111457,20.,-12.7108685498219));
#461=CARTESIAN_POINT('',(-1.50791933111457,20.,15.8));
#462=CARTESIAN_POINT('Origin',(12.7608777127594,0.,-1.));
#463=CARTESIAN_POINT('',(15.7683226755417,0.,-1.));
#464=CARTESIAN_POINT('',(12.7608777127594,0.,-1.));
#465=CARTESIAN_POINT('',(15.7683226755417,0.,-1.));
#466=CARTESIAN_POINT('',(15.7683226755417,40.,-1.));
#467=CARTESIAN_POINT('',(15.7683226755417,0.,-1.));
#468=CARTESIAN_POINT('',(12.7608777127594,40.,-1.));
#469=CARTESIAN_POINT('',(15.7683226755417,40.,-1.));
#470=CARTESIAN_POINT('',(12.7608777127594,0.,-1.));
#471=CARTESIAN_POINT('Origin',(0.,0.,0.));
#472=CARTESIAN_POINT('',(12.7608777127594,0.,1.));
#473=CARTESIAN_POINT('Origin',(0.,0.,0.));
#474=CARTESIAN_POINT('',(12.7608777127594,40.,1.));
#475=CARTESIAN_POINT('Origin',(0.,40.,0.));
#476=CARTESIAN_POINT('',(12.7608777127594,0.,1.));
#477=CARTESIAN_POINT('Origin',(15.7683226755417,0.,1.));
#478=CARTESIAN_POINT('',(15.7683226755417,0.,1.));
#479=CARTESIAN_POINT('',(12.7608777127594,0.,1.));
#480=CARTESIAN_POINT('',(15.7683226755417,40.,1.));
#481=CARTESIAN_POINT('',(12.7608777127594,40.,1.));
#482=CARTESIAN_POINT('',(15.7683226755417,0.,1.));
#483=CARTESIAN_POINT('Origin',(0.,0.,0.));
#484=CARTESIAN_POINT('Origin',(0.,0.,0.));
#485=CARTESIAN_POINT('Origin',(0.,40.,0.));
#486=CARTESIAN_POINT('Origin',(-0.0158386622291351,40.,0.));
#487=CARTESIAN_POINT('Origin',(-0.0158386622291351,0.,0.));
#488=UNCERTAINTY_MEASURE_WITH_UNIT(LENGTH_MEASURE(0.01),#492,
'DISTANCE_ACCURACY_VALUE',
'Maximum model space distance between geometric entities at asserted c
onnectivities');
#489=UNCERTAINTY_MEASURE_WITH_UNIT(LENGTH_MEASURE(0.01),#492,
'DISTANCE_ACCURACY_VALUE',
'Maximum model space distance between geometric entities at asserted c
onnectivities');
#490=(
GEOMETRIC_REPRESENTATION_CONTEXT(3)
GLOBAL_UNCERTAINTY_ASSIGNED_CONTEXT((#488))
GLOBAL_UNIT_ASSIGNED_CONTEXT((#492,#494,#495))
REPRESENTATION_CONTEXT('','3D')
);
#491=(
GEOMETRIC_REPRESENTATION_CONTEXT(3)
GLOBAL_UNCERTAINTY_ASSIGNED_CONTEXT((#489))
GLOBAL_UNIT_ASSIGNED_CONTEXT((#492,#494,#495))
REPRESENTATION_CONTEXT('','3D')
);
#492=(
LENGTH_UNIT()
NAMED_UNIT(*)
SI_UNIT(.MILLI.,.METRE.)
);
#493=(
LENGTH_UNIT()
NAMED_UNIT(*)
SI_UNIT($,.METRE.)
);
#494=(
NAMED_UNIT(*)
PLANE_ANGLE_UNIT()
SI_UNIT($,.RADIAN.)
);
#495=(
NAMED_UNIT(*)
SI_UNIT($,.STERADIAN.)
SOLID_ANGLE_UNIT()
);
#496=SHAPE_DEFINITION_REPRESENTATION(#497,#498);
#497=PRODUCT_DEFINITION_SHAPE('',$,#500);
#498=SHAPE_REPRESENTATION('',(#222),#490);
#499=PRODUCT_DEFINITION_CONTEXT('part definition',#504,'design');
#500=PRODUCT_DEFINITION('2026-08-27-20-47-56-330',
'Jig for round tubing',#501,#499);
#501=PRODUCT_DEFINITION_FORMATION('',$,#506);
#502=PRODUCT_RELATED_PRODUCT_CATEGORY('Jig for round tubing',
'Jig for round tubing',(#506));
#503=APPLICATION_PROTOCOL_DEFINITION('international standard',
'automotive_design',2009,#504);
#504=APPLICATION_CONTEXT(
'Core Data for Automotive Mechanical Design Process');
#505=PRODUCT_CONTEXT('part definition',#504,'mechanical');
#506=PRODUCT('2026-08-27-20-47-56-330','Jig for round tubing',$,(#505));
#507=PRESENTATION_STYLE_ASSIGNMENT((#508));
#508=SURFACE_STYLE_USAGE(.BOTH.,#509);
#509=SURFACE_SIDE_STYLE('',(#510));
#510=SURFACE_STYLE_FILL_AREA(#511);
#511=FILL_AREA_STYLE('Steel - Satin',(#512));
#512=FILL_AREA_STYLE_COLOUR('Steel - Satin',#513);
#513=COLOUR_RGB('Steel - Satin',0.627450980392157,0.627450980392157,0.627450980392157);
ENDSEC;
END-ISO-10303-21;
