ISO-10303-21;
HEADER;
/* Generated by software containing ST-Developer
 * from STEP Tools, Inc. (www.steptools.com) 
 */

FILE_DESCRIPTION(
/* description */ (''),
/* implementation_level */ '2;1');

FILE_NAME(
/* name */ 'Jigs for Sq. tubing.step',
/* time_stamp */ '2026-08-28T20:39:07-04:00',
/* author */ (''),
/* organization */ (''),
/* preprocessor_version */ 'ST-DEVELOPER v20.1',
/* originating_system */ 'Autodesk Translation Framework v15.8.0.0',
/* authorisation */ '');

FILE_SCHEMA (('AUTOMOTIVE_DESIGN { 1 0 10303 214 3 1 1 }'));
ENDSEC;

DATA;
#10=MECHANICAL_DESIGN_GEOMETRIC_PRESENTATION_REPRESENTATION('',(#13,#14),
#2076);
#11=SHAPE_REPRESENTATION_RELATIONSHIP('SRR','None',#2083,#12);
#12=ADVANCED_BREP_SHAPE_REPRESENTATION('',(#15,#16),#2075);
#13=STYLED_ITEM('',(#2092),#15);
#14=STYLED_ITEM('',(#2092),#16);
#15=MANIFOLD_SOLID_BREP('Body6',#1263);
#16=MANIFOLD_SOLID_BREP('Body10',#1264);
#17=CYLINDRICAL_SURFACE('',#1304,1.5);
#18=CYLINDRICAL_SURFACE('',#1306,2.52969986232085);
#19=CYLINDRICAL_SURFACE('',#1309,1.5);
#20=CYLINDRICAL_SURFACE('',#1311,2.52969986232085);
#21=CYLINDRICAL_SURFACE('',#1314,1.5);
#22=CYLINDRICAL_SURFACE('',#1316,2.52969986232085);
#23=CYLINDRICAL_SURFACE('',#1319,1.5);
#24=CYLINDRICAL_SURFACE('',#1321,2.52969986232085);
#25=CYLINDRICAL_SURFACE('',#1324,1.5);
#26=CYLINDRICAL_SURFACE('',#1326,2.52969986232085);
#27=CYLINDRICAL_SURFACE('',#1329,1.5);
#28=CYLINDRICAL_SURFACE('',#1331,2.52969986232085);
#29=CYLINDRICAL_SURFACE('',#1336,8.00000088959854);
#30=CYLINDRICAL_SURFACE('',#1343,8.00000088959854);
#31=CYLINDRICAL_SURFACE('',#1354,7.99999777600087);
#32=CYLINDRICAL_SURFACE('',#1355,7.99999777600087);
#33=FACE_BOUND('',#158,.T.);
#34=FACE_BOUND('',#159,.T.);
#35=FACE_BOUND('',#160,.T.);
#36=FACE_BOUND('',#163,.T.);
#37=FACE_BOUND('',#164,.T.);
#38=FACE_BOUND('',#165,.T.);
#39=FACE_BOUND('',#170,.T.);
#40=FACE_BOUND('',#171,.T.);
#41=FACE_BOUND('',#172,.T.);
#42=FACE_BOUND('',#175,.T.);
#43=FACE_BOUND('',#176,.T.);
#44=FACE_BOUND('',#177,.T.);
#45=FACE_BOUND('',#184,.T.);
#46=FACE_BOUND('',#188,.T.);
#47=FACE_BOUND('',#192,.T.);
#48=FACE_BOUND('',#196,.T.);
#49=FACE_BOUND('',#200,.T.);
#50=FACE_BOUND('',#204,.T.);
#51=FACE_BOUND('',#234,.T.);
#52=FACE_BOUND('',#244,.T.);
#53=CIRCLE('',#1281,1.5);
#54=CIRCLE('',#1282,1.5);
#55=CIRCLE('',#1283,1.5);
#56=CIRCLE('',#1286,1.5);
#57=CIRCLE('',#1287,1.5);
#58=CIRCLE('',#1288,1.5);
#59=CIRCLE('',#1293,2.52969986232085);
#60=CIRCLE('',#1294,2.52969986232085);
#61=CIRCLE('',#1295,2.52969986232085);
#62=CIRCLE('',#1298,2.52969986232085);
#63=CIRCLE('',#1299,2.52969986232085);
#64=CIRCLE('',#1300,2.52969986232085);
#65=CIRCLE('',#1305,1.5);
#66=CIRCLE('',#1307,2.52969986232085);
#67=CIRCLE('',#1310,1.5);
#68=CIRCLE('',#1312,2.52969986232085);
#69=CIRCLE('',#1315,1.5);
#70=CIRCLE('',#1317,2.52969986232085);
#71=CIRCLE('',#1320,1.5);
#72=CIRCLE('',#1322,2.52969986232085);
#73=CIRCLE('',#1325,1.5);
#74=CIRCLE('',#1327,2.52969986232085);
#75=CIRCLE('',#1330,1.5);
#76=CIRCLE('',#1332,2.52969986232085);
#77=CIRCLE('',#1335,7.99999999999921);
#78=CIRCLE('',#1337,8.00000177919787);
#79=CIRCLE('',#1340,8.00000177919787);
#80=CIRCLE('',#1342,7.99999999999921);
#81=CIRCLE('',#1347,7.99999866560022);
#82=CIRCLE('',#1349,7.99999866560022);
#83=CIRCLE('',#1351,7.99999688640152);
#84=CIRCLE('',#1353,7.99999688640152);
#85=FACE_OUTER_BOUND('',#155,.T.);
#86=FACE_OUTER_BOUND('',#156,.T.);
#87=FACE_OUTER_BOUND('',#157,.T.);
#88=FACE_OUTER_BOUND('',#161,.T.);
#89=FACE_OUTER_BOUND('',#162,.T.);
#90=FACE_OUTER_BOUND('',#166,.T.);
#91=FACE_OUTER_BOUND('',#167,.T.);
#92=FACE_OUTER_BOUND('',#168,.T.);
#93=FACE_OUTER_BOUND('',#169,.T.);
#94=FACE_OUTER_BOUND('',#173,.T.);
#95=FACE_OUTER_BOUND('',#174,.T.);
#96=FACE_OUTER_BOUND('',#178,.T.);
#97=FACE_OUTER_BOUND('',#179,.T.);
#98=FACE_OUTER_BOUND('',#180,.T.);
#99=FACE_OUTER_BOUND('',#181,.T.);
#100=FACE_OUTER_BOUND('',#182,.T.);
#101=FACE_OUTER_BOUND('',#183,.T.);
#102=FACE_OUTER_BOUND('',#185,.T.);
#103=FACE_OUTER_BOUND('',#186,.T.);
#104=FACE_OUTER_BOUND('',#187,.T.);
#105=FACE_OUTER_BOUND('',#189,.T.);
#106=FACE_OUTER_BOUND('',#190,.T.);
#107=FACE_OUTER_BOUND('',#191,.T.);
#108=FACE_OUTER_BOUND('',#193,.T.);
#109=FACE_OUTER_BOUND('',#194,.T.);
#110=FACE_OUTER_BOUND('',#195,.T.);
#111=FACE_OUTER_BOUND('',#197,.T.);
#112=FACE_OUTER_BOUND('',#198,.T.);
#113=FACE_OUTER_BOUND('',#199,.T.);
#114=FACE_OUTER_BOUND('',#201,.T.);
#115=FACE_OUTER_BOUND('',#202,.T.);
#116=FACE_OUTER_BOUND('',#203,.T.);
#117=FACE_OUTER_BOUND('',#205,.T.);
#118=FACE_OUTER_BOUND('',#206,.T.);
#119=FACE_OUTER_BOUND('',#207,.T.);
#120=FACE_OUTER_BOUND('',#208,.T.);
#121=FACE_OUTER_BOUND('',#209,.T.);
#122=FACE_OUTER_BOUND('',#210,.T.);
#123=FACE_OUTER_BOUND('',#211,.T.);
#124=FACE_OUTER_BOUND('',#212,.T.);
#125=FACE_OUTER_BOUND('',#213,.T.);
#126=FACE_OUTER_BOUND('',#214,.T.);
#127=FACE_OUTER_BOUND('',#215,.T.);
#128=FACE_OUTER_BOUND('',#216,.T.);
#129=FACE_OUTER_BOUND('',#217,.T.);
#130=FACE_OUTER_BOUND('',#218,.T.);
#131=FACE_OUTER_BOUND('',#219,.T.);
#132=FACE_OUTER_BOUND('',#220,.T.);
#133=FACE_OUTER_BOUND('',#221,.T.);
#134=FACE_OUTER_BOUND('',#222,.T.);
#135=FACE_OUTER_BOUND('',#223,.T.);
#136=FACE_OUTER_BOUND('',#224,.T.);
#137=FACE_OUTER_BOUND('',#225,.T.);
#138=FACE_OUTER_BOUND('',#226,.T.);
#139=FACE_OUTER_BOUND('',#227,.T.);
#140=FACE_OUTER_BOUND('',#228,.T.);
#141=FACE_OUTER_BOUND('',#229,.T.);
#142=FACE_OUTER_BOUND('',#230,.T.);
#143=FACE_OUTER_BOUND('',#231,.T.);
#144=FACE_OUTER_BOUND('',#232,.T.);
#145=FACE_OUTER_BOUND('',#233,.T.);
#146=FACE_OUTER_BOUND('',#235,.T.);
#147=FACE_OUTER_BOUND('',#236,.T.);
#148=FACE_OUTER_BOUND('',#237,.T.);
#149=FACE_OUTER_BOUND('',#238,.T.);
#150=FACE_OUTER_BOUND('',#239,.T.);
#151=FACE_OUTER_BOUND('',#240,.T.);
#152=FACE_OUTER_BOUND('',#241,.T.);
#153=FACE_OUTER_BOUND('',#242,.T.);
#154=FACE_OUTER_BOUND('',#243,.T.);
#155=EDGE_LOOP('',(#799,#800,#801,#802));
#156=EDGE_LOOP('',(#803,#804,#805,#806));
#157=EDGE_LOOP('',(#807,#808,#809,#810));
#158=EDGE_LOOP('',(#811));
#159=EDGE_LOOP('',(#812));
#160=EDGE_LOOP('',(#813));
#161=EDGE_LOOP('',(#814,#815,#816,#817));
#162=EDGE_LOOP('',(#818,#819,#820,#821));
#163=EDGE_LOOP('',(#822));
#164=EDGE_LOOP('',(#823));
#165=EDGE_LOOP('',(#824));
#166=EDGE_LOOP('',(#825,#826,#827,#828));
#167=EDGE_LOOP('',(#829,#830,#831,#832));
#168=EDGE_LOOP('',(#833,#834,#835,#836));
#169=EDGE_LOOP('',(#837,#838,#839,#840));
#170=EDGE_LOOP('',(#841));
#171=EDGE_LOOP('',(#842));
#172=EDGE_LOOP('',(#843));
#173=EDGE_LOOP('',(#844,#845,#846,#847));
#174=EDGE_LOOP('',(#848,#849,#850,#851));
#175=EDGE_LOOP('',(#852));
#176=EDGE_LOOP('',(#853));
#177=EDGE_LOOP('',(#854));
#178=EDGE_LOOP('',(#855,#856,#857,#858));
#179=EDGE_LOOP('',(#859,#860,#861,#862,#863,#864,#865,#866,#867,#868,#869,
#870));
#180=EDGE_LOOP('',(#871,#872,#873,#874,#875,#876,#877,#878,#879,#880,#881,
#882));
#181=EDGE_LOOP('',(#883,#884,#885,#886));
#182=EDGE_LOOP('',(#887,#888,#889,#890));
#183=EDGE_LOOP('',(#891));
#184=EDGE_LOOP('',(#892));
#185=EDGE_LOOP('',(#893,#894,#895,#896));
#186=EDGE_LOOP('',(#897,#898,#899,#900));
#187=EDGE_LOOP('',(#901));
#188=EDGE_LOOP('',(#902));
#189=EDGE_LOOP('',(#903,#904,#905,#906));
#190=EDGE_LOOP('',(#907,#908,#909,#910));
#191=EDGE_LOOP('',(#911));
#192=EDGE_LOOP('',(#912));
#193=EDGE_LOOP('',(#913,#914,#915,#916));
#194=EDGE_LOOP('',(#917,#918,#919,#920));
#195=EDGE_LOOP('',(#921));
#196=EDGE_LOOP('',(#922));
#197=EDGE_LOOP('',(#923,#924,#925,#926));
#198=EDGE_LOOP('',(#927,#928,#929,#930));
#199=EDGE_LOOP('',(#931));
#200=EDGE_LOOP('',(#932));
#201=EDGE_LOOP('',(#933,#934,#935,#936));
#202=EDGE_LOOP('',(#937,#938,#939,#940));
#203=EDGE_LOOP('',(#941));
#204=EDGE_LOOP('',(#942));
#205=EDGE_LOOP('',(#943,#944,#945));
#206=EDGE_LOOP('',(#946,#947,#948,#949));
#207=EDGE_LOOP('',(#950,#951,#952));
#208=EDGE_LOOP('',(#953,#954,#955));
#209=EDGE_LOOP('',(#956,#957,#958));
#210=EDGE_LOOP('',(#959,#960,#961,#962));
#211=EDGE_LOOP('',(#963,#964,#965,#966,#967,#968));
#212=EDGE_LOOP('',(#969,#970,#971,#972,#973,#974,#975,#976,#977,#978,#979,
#980));
#213=EDGE_LOOP('',(#981,#982,#983));
#214=EDGE_LOOP('',(#984,#985,#986));
#215=EDGE_LOOP('',(#987,#988,#989));
#216=EDGE_LOOP('',(#990,#991,#992));
#217=EDGE_LOOP('',(#993,#994,#995,#996));
#218=EDGE_LOOP('',(#997,#998,#999,#1000));
#219=EDGE_LOOP('',(#1001,#1002,#1003,#1004));
#220=EDGE_LOOP('',(#1005,#1006,#1007,#1008,#1009,#1010));
#221=EDGE_LOOP('',(#1011,#1012,#1013,#1014));
#222=EDGE_LOOP('',(#1015,#1016,#1017,#1018));
#223=EDGE_LOOP('',(#1019,#1020,#1021,#1022));
#224=EDGE_LOOP('',(#1023,#1024,#1025,#1026));
#225=EDGE_LOOP('',(#1027,#1028,#1029,#1030));
#226=EDGE_LOOP('',(#1031,#1032,#1033,#1034));
#227=EDGE_LOOP('',(#1035,#1036,#1037,#1038));
#228=EDGE_LOOP('',(#1039,#1040,#1041,#1042));
#229=EDGE_LOOP('',(#1043,#1044,#1045,#1046));
#230=EDGE_LOOP('',(#1047,#1048,#1049,#1050));
#231=EDGE_LOOP('',(#1051,#1052,#1053,#1054,#1055,#1056));
#232=EDGE_LOOP('',(#1057,#1058,#1059,#1060));
#233=EDGE_LOOP('',(#1061,#1062,#1063,#1064));
#234=EDGE_LOOP('',(#1065,#1066,#1067,#1068));
#235=EDGE_LOOP('',(#1069,#1070,#1071,#1072,#1073,#1074,#1075,#1076,#1077,
#1078,#1079,#1080));
#236=EDGE_LOOP('',(#1081,#1082,#1083,#1084,#1085,#1086));
#237=EDGE_LOOP('',(#1087,#1088,#1089,#1090,#1091,#1092));
#238=EDGE_LOOP('',(#1093,#1094,#1095,#1096,#1097,#1098));
#239=EDGE_LOOP('',(#1099,#1100,#1101,#1102,#1103,#1104,#1105,#1106,#1107,
#1108,#1109,#1110));
#240=EDGE_LOOP('',(#1111,#1112,#1113,#1114,#1115,#1116,#1117,#1118,#1119,
#1120,#1121,#1122));
#241=EDGE_LOOP('',(#1123,#1124,#1125,#1126));
#242=EDGE_LOOP('',(#1127,#1128,#1129,#1130));
#243=EDGE_LOOP('',(#1131,#1132,#1133,#1134));
#244=EDGE_LOOP('',(#1135,#1136,#1137,#1138));
#245=LINE('',#1728,#383);
#246=LINE('',#1730,#384);
#247=LINE('',#1732,#385);
#248=LINE('',#1733,#386);
#249=LINE('',#1736,#387);
#250=LINE('',#1738,#388);
#251=LINE('',#1739,#389);
#252=LINE('',#1742,#390);
#253=LINE('',#1744,#391);
#254=LINE('',#1745,#392);
#255=LINE('',#1754,#393);
#256=LINE('',#1756,#394);
#257=LINE('',#1757,#395);
#258=LINE('',#1760,#396);
#259=LINE('',#1762,#397);
#260=LINE('',#1763,#398);
#261=LINE('',#1772,#399);
#262=LINE('',#1774,#400);
#263=LINE('',#1775,#401);
#264=LINE('',#1778,#402);
#265=LINE('',#1780,#403);
#266=LINE('',#1781,#404);
#267=LINE('',#1784,#405);
#268=LINE('',#1786,#406);
#269=LINE('',#1787,#407);
#270=LINE('',#1790,#408);
#271=LINE('',#1792,#409);
#272=LINE('',#1793,#410);
#273=LINE('',#1802,#411);
#274=LINE('',#1804,#412);
#275=LINE('',#1805,#413);
#276=LINE('',#1808,#414);
#277=LINE('',#1810,#415);
#278=LINE('',#1811,#416);
#279=LINE('',#1819,#417);
#280=LINE('',#1820,#418);
#281=LINE('',#1826,#419);
#282=LINE('',#1830,#420);
#283=LINE('',#1835,#421);
#284=LINE('',#1839,#422);
#285=LINE('',#1844,#423);
#286=LINE('',#1848,#424);
#287=LINE('',#1853,#425);
#288=LINE('',#1857,#426);
#289=LINE('',#1862,#427);
#290=LINE('',#1866,#428);
#291=LINE('',#1871,#429);
#292=LINE('',#1875,#430);
#293=LINE('',#1880,#431);
#294=LINE('',#1882,#432);
#295=LINE('',#1886,#433);
#296=LINE('',#1888,#434);
#297=LINE('',#1892,#435);
#298=LINE('',#1893,#436);
#299=LINE('',#1897,#437);
#300=LINE('',#1899,#438);
#301=LINE('',#1904,#439);
#302=LINE('',#1907,#440);
#303=LINE('',#1909,#441);
#304=LINE('',#1910,#442);
#305=LINE('',#1913,#443);
#306=LINE('',#1915,#444);
#307=LINE('',#1917,#445);
#308=LINE('',#1918,#446);
#309=LINE('',#1921,#447);
#310=LINE('',#1923,#448);
#311=LINE('',#1924,#449);
#312=LINE('',#1926,#450);
#313=LINE('',#1928,#451);
#314=LINE('',#1930,#452);
#315=LINE('',#1931,#453);
#316=LINE('',#1935,#454);
#317=LINE('',#1938,#455);
#318=LINE('',#1942,#456);
#319=LINE('',#1944,#457);
#320=LINE('',#1949,#458);
#321=LINE('',#1951,#459);
#322=LINE('',#1956,#460);
#323=LINE('',#1959,#461);
#324=LINE('',#1961,#462);
#325=LINE('',#1962,#463);
#326=LINE('',#1964,#464);
#327=LINE('',#1965,#465);
#328=LINE('',#1968,#466);
#329=LINE('',#1970,#467);
#330=LINE('',#1971,#468);
#331=LINE('',#1974,#469);
#332=LINE('',#1976,#470);
#333=LINE('',#1978,#471);
#334=LINE('',#1979,#472);
#335=LINE('',#1982,#473);
#336=LINE('',#1983,#474);
#337=LINE('',#1986,#475);
#338=LINE('',#1988,#476);
#339=LINE('',#1989,#477);
#340=LINE('',#1991,#478);
#341=LINE('',#1994,#479);
#342=LINE('',#1996,#480);
#343=LINE('',#1997,#481);
#344=LINE('',#2000,#482);
#345=LINE('',#2002,#483);
#346=LINE('',#2003,#484);
#347=LINE('',#2006,#485);
#348=LINE('',#2007,#486);
#349=LINE('',#2010,#487);
#350=LINE('',#2012,#488);
#351=LINE('',#2013,#489);
#352=LINE('',#2015,#490);
#353=LINE('',#2018,#491);
#354=LINE('',#2019,#492);
#355=LINE('',#2020,#493);
#356=LINE('',#2023,#494);
#357=LINE('',#2025,#495);
#358=LINE('',#2026,#496);
#359=LINE('',#2029,#497);
#360=LINE('',#2030,#498);
#361=LINE('',#2033,#499);
#362=LINE('',#2034,#500);
#363=LINE('',#2037,#501);
#364=LINE('',#2038,#502);
#365=LINE('',#2040,#503);
#366=LINE('',#2041,#504);
#367=LINE('',#2043,#505);
#368=LINE('',#2044,#506);
#369=LINE('',#2045,#507);
#370=LINE('',#2048,#508);
#371=LINE('',#2049,#509);
#372=LINE('',#2052,#510);
#373=LINE('',#2053,#511);
#374=LINE('',#2055,#512);
#375=LINE('',#2058,#513);
#376=LINE('',#2060,#514);
#377=LINE('',#2061,#515);
#378=LINE('',#2064,#516);
#379=LINE('',#2065,#517);
#380=LINE('',#2068,#518);
#381=LINE('',#2069,#519);
#382=LINE('',#2071,#520);
#383=VECTOR('',#1384,10.);
#384=VECTOR('',#1385,10.);
#385=VECTOR('',#1386,10.);
#386=VECTOR('',#1387,10.);
#387=VECTOR('',#1390,10.);
#388=VECTOR('',#1391,10.);
#389=VECTOR('',#1392,10.);
#390=VECTOR('',#1395,10.);
#391=VECTOR('',#1396,10.);
#392=VECTOR('',#1397,10.);
#393=VECTOR('',#1406,10.);
#394=VECTOR('',#1407,10.);
#395=VECTOR('',#1408,10.);
#396=VECTOR('',#1411,10.);
#397=VECTOR('',#1412,10.);
#398=VECTOR('',#1413,10.);
#399=VECTOR('',#1422,10.);
#400=VECTOR('',#1423,10.);
#401=VECTOR('',#1424,10.);
#402=VECTOR('',#1427,10.);
#403=VECTOR('',#1428,10.);
#404=VECTOR('',#1429,10.);
#405=VECTOR('',#1432,10.);
#406=VECTOR('',#1433,10.);
#407=VECTOR('',#1434,10.);
#408=VECTOR('',#1437,10.);
#409=VECTOR('',#1438,10.);
#410=VECTOR('',#1439,10.);
#411=VECTOR('',#1448,10.);
#412=VECTOR('',#1449,10.);
#413=VECTOR('',#1450,10.);
#414=VECTOR('',#1453,10.);
#415=VECTOR('',#1454,10.);
#416=VECTOR('',#1455,10.);
#417=VECTOR('',#1464,10.);
#418=VECTOR('',#1465,10.);
#419=VECTOR('',#1474,1.5);
#420=VECTOR('',#1479,2.52969986232085);
#421=VECTOR('',#1486,1.5);
#422=VECTOR('',#1491,2.52969986232085);
#423=VECTOR('',#1498,1.5);
#424=VECTOR('',#1503,2.52969986232085);
#425=VECTOR('',#1510,1.5);
#426=VECTOR('',#1515,2.52969986232085);
#427=VECTOR('',#1522,1.5);
#428=VECTOR('',#1527,2.52969986232085);
#429=VECTOR('',#1534,1.5);
#430=VECTOR('',#1539,2.52969986232085);
#431=VECTOR('',#1544,10.);
#432=VECTOR('',#1545,10.);
#433=VECTOR('',#1550,10.);
#434=VECTOR('',#1551,10.);
#435=VECTOR('',#1556,10.);
#436=VECTOR('',#1557,10.);
#437=VECTOR('',#1560,10.);
#438=VECTOR('',#1561,10.);
#439=VECTOR('',#1566,10.);
#440=VECTOR('',#1569,10.);
#441=VECTOR('',#1572,10.);
#442=VECTOR('',#1573,10.);
#443=VECTOR('',#1576,10.);
#444=VECTOR('',#1577,10.);
#445=VECTOR('',#1578,10.);
#446=VECTOR('',#1579,10.);
#447=VECTOR('',#1582,10.);
#448=VECTOR('',#1583,10.);
#449=VECTOR('',#1584,10.);
#450=VECTOR('',#1585,10.);
#451=VECTOR('',#1586,10.);
#452=VECTOR('',#1587,10.);
#453=VECTOR('',#1588,10.);
#454=VECTOR('',#1591,10.);
#455=VECTOR('',#1594,10.);
#456=VECTOR('',#1597,10.);
#457=VECTOR('',#1598,10.);
#458=VECTOR('',#1603,10.);
#459=VECTOR('',#1604,10.);
#460=VECTOR('',#1609,10.);
#461=VECTOR('',#1612,10.);
#462=VECTOR('',#1615,10.);
#463=VECTOR('',#1616,10.);
#464=VECTOR('',#1619,10.);
#465=VECTOR('',#1620,10.);
#466=VECTOR('',#1623,10.);
#467=VECTOR('',#1624,10.);
#468=VECTOR('',#1625,10.);
#469=VECTOR('',#1628,10.);
#470=VECTOR('',#1629,10.);
#471=VECTOR('',#1630,10.);
#472=VECTOR('',#1631,10.);
#473=VECTOR('',#1634,10.);
#474=VECTOR('',#1635,10.);
#475=VECTOR('',#1638,10.);
#476=VECTOR('',#1639,10.);
#477=VECTOR('',#1640,10.);
#478=VECTOR('',#1643,10.);
#479=VECTOR('',#1646,10.);
#480=VECTOR('',#1647,10.);
#481=VECTOR('',#1648,10.);
#482=VECTOR('',#1651,10.);
#483=VECTOR('',#1652,10.);
#484=VECTOR('',#1653,10.);
#485=VECTOR('',#1656,10.);
#486=VECTOR('',#1657,10.);
#487=VECTOR('',#1660,10.);
#488=VECTOR('',#1661,10.);
#489=VECTOR('',#1662,10.);
#490=VECTOR('',#1665,10.);
#491=VECTOR('',#1668,10.);
#492=VECTOR('',#1669,10.);
#493=VECTOR('',#1670,10.);
#494=VECTOR('',#1673,10.);
#495=VECTOR('',#1674,10.);
#496=VECTOR('',#1675,10.);
#497=VECTOR('',#1678,10.);
#498=VECTOR('',#1679,10.);
#499=VECTOR('',#1682,10.);
#500=VECTOR('',#1683,10.);
#501=VECTOR('',#1686,10.);
#502=VECTOR('',#1687,10.);
#503=VECTOR('',#1688,10.);
#504=VECTOR('',#1689,10.);
#505=VECTOR('',#1692,10.);
#506=VECTOR('',#1693,10.);
#507=VECTOR('',#1694,10.);
#508=VECTOR('',#1697,10.);
#509=VECTOR('',#1698,10.);
#510=VECTOR('',#1701,10.);
#511=VECTOR('',#1702,10.);
#512=VECTOR('',#1705,10.);
#513=VECTOR('',#1708,10.);
#514=VECTOR('',#1709,10.);
#515=VECTOR('',#1710,10.);
#516=VECTOR('',#1713,10.);
#517=VECTOR('',#1714,10.);
#518=VECTOR('',#1717,10.);
#519=VECTOR('',#1718,10.);
#520=VECTOR('',#1721,10.);
#521=VERTEX_POINT('',#1726);
#522=VERTEX_POINT('',#1727);
#523=VERTEX_POINT('',#1729);
#524=VERTEX_POINT('',#1731);
#525=VERTEX_POINT('',#1735);
#526=VERTEX_POINT('',#1737);
#527=VERTEX_POINT('',#1741);
#528=VERTEX_POINT('',#1743);
#529=VERTEX_POINT('',#1746);
#530=VERTEX_POINT('',#1748);
#531=VERTEX_POINT('',#1750);
#532=VERTEX_POINT('',#1753);
#533=VERTEX_POINT('',#1755);
#534=VERTEX_POINT('',#1759);
#535=VERTEX_POINT('',#1761);
#536=VERTEX_POINT('',#1764);
#537=VERTEX_POINT('',#1766);
#538=VERTEX_POINT('',#1768);
#539=VERTEX_POINT('',#1771);
#540=VERTEX_POINT('',#1773);
#541=VERTEX_POINT('',#1777);
#542=VERTEX_POINT('',#1779);
#543=VERTEX_POINT('',#1783);
#544=VERTEX_POINT('',#1785);
#545=VERTEX_POINT('',#1789);
#546=VERTEX_POINT('',#1791);
#547=VERTEX_POINT('',#1794);
#548=VERTEX_POINT('',#1796);
#549=VERTEX_POINT('',#1798);
#550=VERTEX_POINT('',#1801);
#551=VERTEX_POINT('',#1803);
#552=VERTEX_POINT('',#1807);
#553=VERTEX_POINT('',#1809);
#554=VERTEX_POINT('',#1812);
#555=VERTEX_POINT('',#1814);
#556=VERTEX_POINT('',#1816);
#557=VERTEX_POINT('',#1824);
#558=VERTEX_POINT('',#1828);
#559=VERTEX_POINT('',#1833);
#560=VERTEX_POINT('',#1837);
#561=VERTEX_POINT('',#1842);
#562=VERTEX_POINT('',#1846);
#563=VERTEX_POINT('',#1851);
#564=VERTEX_POINT('',#1855);
#565=VERTEX_POINT('',#1860);
#566=VERTEX_POINT('',#1864);
#567=VERTEX_POINT('',#1869);
#568=VERTEX_POINT('',#1873);
#569=VERTEX_POINT('',#1878);
#570=VERTEX_POINT('',#1879);
#571=VERTEX_POINT('',#1881);
#572=VERTEX_POINT('',#1885);
#573=VERTEX_POINT('',#1887);
#574=VERTEX_POINT('',#1891);
#575=VERTEX_POINT('',#1895);
#576=VERTEX_POINT('',#1896);
#577=VERTEX_POINT('',#1898);
#578=VERTEX_POINT('',#1902);
#579=VERTEX_POINT('',#1903);
#580=VERTEX_POINT('',#1905);
#581=VERTEX_POINT('',#1912);
#582=VERTEX_POINT('',#1914);
#583=VERTEX_POINT('',#1916);
#584=VERTEX_POINT('',#1920);
#585=VERTEX_POINT('',#1922);
#586=VERTEX_POINT('',#1925);
#587=VERTEX_POINT('',#1927);
#588=VERTEX_POINT('',#1929);
#589=VERTEX_POINT('',#1933);
#590=VERTEX_POINT('',#1934);
#591=VERTEX_POINT('',#1936);
#592=VERTEX_POINT('',#1940);
#593=VERTEX_POINT('',#1941);
#594=VERTEX_POINT('',#1943);
#595=VERTEX_POINT('',#1947);
#596=VERTEX_POINT('',#1948);
#597=VERTEX_POINT('',#1950);
#598=VERTEX_POINT('',#1954);
#599=VERTEX_POINT('',#1955);
#600=VERTEX_POINT('',#1957);
#601=VERTEX_POINT('',#1967);
#602=VERTEX_POINT('',#1969);
#603=VERTEX_POINT('',#1973);
#604=VERTEX_POINT('',#1975);
#605=VERTEX_POINT('',#1977);
#606=VERTEX_POINT('',#1981);
#607=VERTEX_POINT('',#1985);
#608=VERTEX_POINT('',#1987);
#609=VERTEX_POINT('',#1993);
#610=VERTEX_POINT('',#1995);
#611=VERTEX_POINT('',#1999);
#612=VERTEX_POINT('',#2001);
#613=VERTEX_POINT('',#2005);
#614=VERTEX_POINT('',#2009);
#615=VERTEX_POINT('',#2011);
#616=VERTEX_POINT('',#2017);
#617=VERTEX_POINT('',#2022);
#618=VERTEX_POINT('',#2024);
#619=VERTEX_POINT('',#2028);
#620=VERTEX_POINT('',#2032);
#621=VERTEX_POINT('',#2036);
#622=VERTEX_POINT('',#2039);
#623=VERTEX_POINT('',#2047);
#624=VERTEX_POINT('',#2051);
#625=VERTEX_POINT('',#2057);
#626=VERTEX_POINT('',#2059);
#627=VERTEX_POINT('',#2063);
#628=VERTEX_POINT('',#2067);
#629=EDGE_CURVE('',#521,#522,#245,.T.);
#630=EDGE_CURVE('',#521,#523,#246,.T.);
#631=EDGE_CURVE('',#524,#523,#247,.T.);
#632=EDGE_CURVE('',#522,#524,#248,.T.);
#633=EDGE_CURVE('',#525,#522,#249,.T.);
#634=EDGE_CURVE('',#526,#524,#250,.T.);
#635=EDGE_CURVE('',#525,#526,#251,.T.);
#636=EDGE_CURVE('',#527,#525,#252,.T.);
#637=EDGE_CURVE('',#528,#526,#253,.T.);
#638=EDGE_CURVE('',#527,#528,#254,.T.);
#639=EDGE_CURVE('',#529,#529,#53,.T.);
#640=EDGE_CURVE('',#530,#530,#54,.T.);
#641=EDGE_CURVE('',#531,#531,#55,.T.);
#642=EDGE_CURVE('',#532,#527,#255,.T.);
#643=EDGE_CURVE('',#533,#528,#256,.T.);
#644=EDGE_CURVE('',#532,#533,#257,.T.);
#645=EDGE_CURVE('',#534,#532,#258,.T.);
#646=EDGE_CURVE('',#535,#533,#259,.T.);
#647=EDGE_CURVE('',#534,#535,#260,.T.);
#648=EDGE_CURVE('',#536,#536,#56,.T.);
#649=EDGE_CURVE('',#537,#537,#57,.T.);
#650=EDGE_CURVE('',#538,#538,#58,.T.);
#651=EDGE_CURVE('',#539,#534,#261,.T.);
#652=EDGE_CURVE('',#540,#535,#262,.T.);
#653=EDGE_CURVE('',#539,#540,#263,.T.);
#654=EDGE_CURVE('',#539,#541,#264,.T.);
#655=EDGE_CURVE('',#542,#540,#265,.T.);
#656=EDGE_CURVE('',#541,#542,#266,.T.);
#657=EDGE_CURVE('',#543,#541,#267,.T.);
#658=EDGE_CURVE('',#544,#542,#268,.T.);
#659=EDGE_CURVE('',#543,#544,#269,.T.);
#660=EDGE_CURVE('',#545,#543,#270,.T.);
#661=EDGE_CURVE('',#546,#544,#271,.T.);
#662=EDGE_CURVE('',#545,#546,#272,.T.);
#663=EDGE_CURVE('',#547,#547,#59,.T.);
#664=EDGE_CURVE('',#548,#548,#60,.T.);
#665=EDGE_CURVE('',#549,#549,#61,.T.);
#666=EDGE_CURVE('',#550,#545,#273,.T.);
#667=EDGE_CURVE('',#551,#546,#274,.T.);
#668=EDGE_CURVE('',#550,#551,#275,.T.);
#669=EDGE_CURVE('',#552,#550,#276,.T.);
#670=EDGE_CURVE('',#553,#551,#277,.T.);
#671=EDGE_CURVE('',#552,#553,#278,.T.);
#672=EDGE_CURVE('',#554,#554,#62,.T.);
#673=EDGE_CURVE('',#555,#555,#63,.T.);
#674=EDGE_CURVE('',#556,#556,#64,.T.);
#675=EDGE_CURVE('',#521,#552,#279,.T.);
#676=EDGE_CURVE('',#523,#553,#280,.T.);
#677=EDGE_CURVE('',#557,#557,#65,.T.);
#678=EDGE_CURVE('',#557,#538,#281,.T.);
#679=EDGE_CURVE('',#558,#558,#66,.T.);
#680=EDGE_CURVE('',#558,#547,#282,.T.);
#681=EDGE_CURVE('',#559,#559,#67,.T.);
#682=EDGE_CURVE('',#559,#537,#283,.T.);
#683=EDGE_CURVE('',#560,#560,#68,.T.);
#684=EDGE_CURVE('',#560,#548,#284,.T.);
#685=EDGE_CURVE('',#561,#561,#69,.T.);
#686=EDGE_CURVE('',#561,#530,#285,.T.);
#687=EDGE_CURVE('',#562,#562,#70,.T.);
#688=EDGE_CURVE('',#562,#554,#286,.T.);
#689=EDGE_CURVE('',#563,#563,#71,.T.);
#690=EDGE_CURVE('',#563,#531,#287,.T.);
#691=EDGE_CURVE('',#564,#564,#72,.T.);
#692=EDGE_CURVE('',#564,#555,#288,.T.);
#693=EDGE_CURVE('',#565,#565,#73,.T.);
#694=EDGE_CURVE('',#565,#529,#289,.T.);
#695=EDGE_CURVE('',#566,#566,#74,.T.);
#696=EDGE_CURVE('',#566,#556,#290,.T.);
#697=EDGE_CURVE('',#567,#567,#75,.T.);
#698=EDGE_CURVE('',#567,#536,#291,.T.);
#699=EDGE_CURVE('',#568,#568,#76,.T.);
#700=EDGE_CURVE('',#568,#549,#292,.T.);
#701=EDGE_CURVE('',#569,#570,#293,.T.);
#702=EDGE_CURVE('',#569,#571,#294,.T.);
#703=EDGE_CURVE('',#570,#571,#77,.T.);
#704=EDGE_CURVE('',#570,#572,#295,.T.);
#705=EDGE_CURVE('',#573,#571,#296,.T.);
#706=EDGE_CURVE('',#572,#573,#78,.T.);
#707=EDGE_CURVE('',#574,#572,#297,.T.);
#708=EDGE_CURVE('',#574,#573,#298,.T.);
#709=EDGE_CURVE('',#575,#576,#299,.T.);
#710=EDGE_CURVE('',#577,#575,#300,.T.);
#711=EDGE_CURVE('',#577,#576,#79,.T.);
#712=EDGE_CURVE('',#578,#579,#301,.T.);
#713=EDGE_CURVE('',#580,#578,#80,.T.);
#714=EDGE_CURVE('',#579,#580,#302,.T.);
#715=EDGE_CURVE('',#576,#578,#303,.T.);
#716=EDGE_CURVE('',#580,#577,#304,.T.);
#717=EDGE_CURVE('',#581,#578,#305,.T.);
#718=EDGE_CURVE('',#581,#582,#306,.T.);
#719=EDGE_CURVE('',#583,#582,#307,.T.);
#720=EDGE_CURVE('',#575,#583,#308,.T.);
#721=EDGE_CURVE('',#584,#570,#309,.T.);
#722=EDGE_CURVE('',#585,#584,#310,.T.);
#723=EDGE_CURVE('',#585,#581,#311,.T.);
#724=EDGE_CURVE('',#580,#586,#312,.T.);
#725=EDGE_CURVE('',#586,#587,#313,.T.);
#726=EDGE_CURVE('',#587,#588,#314,.T.);
#727=EDGE_CURVE('',#571,#588,#315,.T.);
#728=EDGE_CURVE('',#589,#590,#316,.T.);
#729=EDGE_CURVE('',#590,#591,#81,.T.);
#730=EDGE_CURVE('',#591,#589,#317,.T.);
#731=EDGE_CURVE('',#592,#593,#318,.T.);
#732=EDGE_CURVE('',#592,#594,#319,.T.);
#733=EDGE_CURVE('',#594,#593,#82,.T.);
#734=EDGE_CURVE('',#595,#596,#320,.T.);
#735=EDGE_CURVE('',#597,#595,#321,.T.);
#736=EDGE_CURVE('',#596,#597,#83,.T.);
#737=EDGE_CURVE('',#598,#599,#322,.T.);
#738=EDGE_CURVE('',#600,#599,#84,.T.);
#739=EDGE_CURVE('',#598,#600,#323,.T.);
#740=EDGE_CURVE('',#596,#590,#324,.T.);
#741=EDGE_CURVE('',#591,#597,#325,.T.);
#742=EDGE_CURVE('',#593,#599,#326,.T.);
#743=EDGE_CURVE('',#600,#594,#327,.T.);
#744=EDGE_CURVE('',#601,#600,#328,.T.);
#745=EDGE_CURVE('',#602,#601,#329,.T.);
#746=EDGE_CURVE('',#598,#602,#330,.T.);
#747=EDGE_CURVE('',#595,#603,#331,.T.);
#748=EDGE_CURVE('',#604,#603,#332,.T.);
#749=EDGE_CURVE('',#605,#604,#333,.T.);
#750=EDGE_CURVE('',#605,#591,#334,.T.);
#751=EDGE_CURVE('',#606,#601,#335,.T.);
#752=EDGE_CURVE('',#594,#606,#336,.T.);
#753=EDGE_CURVE('',#607,#574,#337,.T.);
#754=EDGE_CURVE('',#607,#608,#338,.T.);
#755=EDGE_CURVE('',#572,#608,#339,.T.);
#756=EDGE_CURVE('',#608,#584,#340,.T.);
#757=EDGE_CURVE('',#574,#609,#341,.T.);
#758=EDGE_CURVE('',#610,#609,#342,.T.);
#759=EDGE_CURVE('',#607,#610,#343,.T.);
#760=EDGE_CURVE('',#611,#598,#344,.T.);
#761=EDGE_CURVE('',#611,#612,#345,.T.);
#762=EDGE_CURVE('',#599,#612,#346,.T.);
#763=EDGE_CURVE('',#612,#613,#347,.T.);
#764=EDGE_CURVE('',#613,#593,#348,.T.);
#765=EDGE_CURVE('',#614,#573,#349,.T.);
#766=EDGE_CURVE('',#615,#614,#350,.T.);
#767=EDGE_CURVE('',#574,#615,#351,.T.);
#768=EDGE_CURVE('',#588,#614,#352,.T.);
#769=EDGE_CURVE('',#585,#616,#353,.T.);
#770=EDGE_CURVE('',#605,#616,#354,.T.);
#771=EDGE_CURVE('',#581,#605,#355,.T.);
#772=EDGE_CURVE('',#586,#617,#356,.T.);
#773=EDGE_CURVE('',#618,#617,#357,.T.);
#774=EDGE_CURVE('',#587,#618,#358,.T.);
#775=EDGE_CURVE('',#619,#583,#359,.T.);
#776=EDGE_CURVE('',#586,#619,#360,.T.);
#777=EDGE_CURVE('',#615,#620,#361,.T.);
#778=EDGE_CURVE('',#609,#620,#362,.T.);
#779=EDGE_CURVE('',#620,#621,#363,.T.);
#780=EDGE_CURVE('',#621,#610,#364,.T.);
#781=EDGE_CURVE('',#582,#622,#365,.T.);
#782=EDGE_CURVE('',#622,#619,#366,.T.);
#783=EDGE_CURVE('',#618,#613,#367,.T.);
#784=EDGE_CURVE('',#590,#617,#368,.T.);
#785=EDGE_CURVE('',#616,#606,#369,.T.);
#786=EDGE_CURVE('',#623,#604,#370,.T.);
#787=EDGE_CURVE('',#622,#623,#371,.T.);
#788=EDGE_CURVE('',#624,#623,#372,.T.);
#789=EDGE_CURVE('',#617,#624,#373,.T.);
#790=EDGE_CURVE('',#603,#624,#374,.T.);
#791=EDGE_CURVE('',#611,#625,#375,.T.);
#792=EDGE_CURVE('',#626,#625,#376,.T.);
#793=EDGE_CURVE('',#621,#626,#377,.T.);
#794=EDGE_CURVE('',#627,#626,#378,.T.);
#795=EDGE_CURVE('',#602,#627,#379,.T.);
#796=EDGE_CURVE('',#628,#627,#380,.T.);
#797=EDGE_CURVE('',#598,#628,#381,.T.);
#798=EDGE_CURVE('',#625,#628,#382,.T.);
#799=ORIENTED_EDGE('',*,*,#629,.F.);
#800=ORIENTED_EDGE('',*,*,#630,.T.);
#801=ORIENTED_EDGE('',*,*,#631,.F.);
#802=ORIENTED_EDGE('',*,*,#632,.F.);
#803=ORIENTED_EDGE('',*,*,#633,.T.);
#804=ORIENTED_EDGE('',*,*,#632,.T.);
#805=ORIENTED_EDGE('',*,*,#634,.F.);
#806=ORIENTED_EDGE('',*,*,#635,.F.);
#807=ORIENTED_EDGE('',*,*,#636,.T.);
#808=ORIENTED_EDGE('',*,*,#635,.T.);
#809=ORIENTED_EDGE('',*,*,#637,.F.);
#810=ORIENTED_EDGE('',*,*,#638,.F.);
#811=ORIENTED_EDGE('',*,*,#639,.T.);
#812=ORIENTED_EDGE('',*,*,#640,.T.);
#813=ORIENTED_EDGE('',*,*,#641,.T.);
#814=ORIENTED_EDGE('',*,*,#642,.T.);
#815=ORIENTED_EDGE('',*,*,#638,.T.);
#816=ORIENTED_EDGE('',*,*,#643,.F.);
#817=ORIENTED_EDGE('',*,*,#644,.F.);
#818=ORIENTED_EDGE('',*,*,#645,.T.);
#819=ORIENTED_EDGE('',*,*,#644,.T.);
#820=ORIENTED_EDGE('',*,*,#646,.F.);
#821=ORIENTED_EDGE('',*,*,#647,.F.);
#822=ORIENTED_EDGE('',*,*,#648,.T.);
#823=ORIENTED_EDGE('',*,*,#649,.T.);
#824=ORIENTED_EDGE('',*,*,#650,.T.);
#825=ORIENTED_EDGE('',*,*,#651,.T.);
#826=ORIENTED_EDGE('',*,*,#647,.T.);
#827=ORIENTED_EDGE('',*,*,#652,.F.);
#828=ORIENTED_EDGE('',*,*,#653,.F.);
#829=ORIENTED_EDGE('',*,*,#654,.F.);
#830=ORIENTED_EDGE('',*,*,#653,.T.);
#831=ORIENTED_EDGE('',*,*,#655,.F.);
#832=ORIENTED_EDGE('',*,*,#656,.F.);
#833=ORIENTED_EDGE('',*,*,#657,.T.);
#834=ORIENTED_EDGE('',*,*,#656,.T.);
#835=ORIENTED_EDGE('',*,*,#658,.F.);
#836=ORIENTED_EDGE('',*,*,#659,.F.);
#837=ORIENTED_EDGE('',*,*,#660,.T.);
#838=ORIENTED_EDGE('',*,*,#659,.T.);
#839=ORIENTED_EDGE('',*,*,#661,.F.);
#840=ORIENTED_EDGE('',*,*,#662,.F.);
#841=ORIENTED_EDGE('',*,*,#663,.T.);
#842=ORIENTED_EDGE('',*,*,#664,.T.);
#843=ORIENTED_EDGE('',*,*,#665,.T.);
#844=ORIENTED_EDGE('',*,*,#666,.T.);
#845=ORIENTED_EDGE('',*,*,#662,.T.);
#846=ORIENTED_EDGE('',*,*,#667,.F.);
#847=ORIENTED_EDGE('',*,*,#668,.F.);
#848=ORIENTED_EDGE('',*,*,#669,.T.);
#849=ORIENTED_EDGE('',*,*,#668,.T.);
#850=ORIENTED_EDGE('',*,*,#670,.F.);
#851=ORIENTED_EDGE('',*,*,#671,.F.);
#852=ORIENTED_EDGE('',*,*,#672,.F.);
#853=ORIENTED_EDGE('',*,*,#673,.F.);
#854=ORIENTED_EDGE('',*,*,#674,.F.);
#855=ORIENTED_EDGE('',*,*,#675,.T.);
#856=ORIENTED_EDGE('',*,*,#671,.T.);
#857=ORIENTED_EDGE('',*,*,#676,.F.);
#858=ORIENTED_EDGE('',*,*,#630,.F.);
#859=ORIENTED_EDGE('',*,*,#676,.T.);
#860=ORIENTED_EDGE('',*,*,#670,.T.);
#861=ORIENTED_EDGE('',*,*,#667,.T.);
#862=ORIENTED_EDGE('',*,*,#661,.T.);
#863=ORIENTED_EDGE('',*,*,#658,.T.);
#864=ORIENTED_EDGE('',*,*,#655,.T.);
#865=ORIENTED_EDGE('',*,*,#652,.T.);
#866=ORIENTED_EDGE('',*,*,#646,.T.);
#867=ORIENTED_EDGE('',*,*,#643,.T.);
#868=ORIENTED_EDGE('',*,*,#637,.T.);
#869=ORIENTED_EDGE('',*,*,#634,.T.);
#870=ORIENTED_EDGE('',*,*,#631,.T.);
#871=ORIENTED_EDGE('',*,*,#675,.F.);
#872=ORIENTED_EDGE('',*,*,#629,.T.);
#873=ORIENTED_EDGE('',*,*,#633,.F.);
#874=ORIENTED_EDGE('',*,*,#636,.F.);
#875=ORIENTED_EDGE('',*,*,#642,.F.);
#876=ORIENTED_EDGE('',*,*,#645,.F.);
#877=ORIENTED_EDGE('',*,*,#651,.F.);
#878=ORIENTED_EDGE('',*,*,#654,.T.);
#879=ORIENTED_EDGE('',*,*,#657,.F.);
#880=ORIENTED_EDGE('',*,*,#660,.F.);
#881=ORIENTED_EDGE('',*,*,#666,.F.);
#882=ORIENTED_EDGE('',*,*,#669,.F.);
#883=ORIENTED_EDGE('',*,*,#677,.T.);
#884=ORIENTED_EDGE('',*,*,#678,.T.);
#885=ORIENTED_EDGE('',*,*,#650,.F.);
#886=ORIENTED_EDGE('',*,*,#678,.F.);
#887=ORIENTED_EDGE('',*,*,#679,.T.);
#888=ORIENTED_EDGE('',*,*,#680,.T.);
#889=ORIENTED_EDGE('',*,*,#663,.F.);
#890=ORIENTED_EDGE('',*,*,#680,.F.);
#891=ORIENTED_EDGE('',*,*,#679,.F.);
#892=ORIENTED_EDGE('',*,*,#677,.F.);
#893=ORIENTED_EDGE('',*,*,#681,.T.);
#894=ORIENTED_EDGE('',*,*,#682,.T.);
#895=ORIENTED_EDGE('',*,*,#649,.F.);
#896=ORIENTED_EDGE('',*,*,#682,.F.);
#897=ORIENTED_EDGE('',*,*,#683,.T.);
#898=ORIENTED_EDGE('',*,*,#684,.T.);
#899=ORIENTED_EDGE('',*,*,#664,.F.);
#900=ORIENTED_EDGE('',*,*,#684,.F.);
#901=ORIENTED_EDGE('',*,*,#683,.F.);
#902=ORIENTED_EDGE('',*,*,#681,.F.);
#903=ORIENTED_EDGE('',*,*,#685,.F.);
#904=ORIENTED_EDGE('',*,*,#686,.T.);
#905=ORIENTED_EDGE('',*,*,#640,.F.);
#906=ORIENTED_EDGE('',*,*,#686,.F.);
#907=ORIENTED_EDGE('',*,*,#687,.F.);
#908=ORIENTED_EDGE('',*,*,#688,.T.);
#909=ORIENTED_EDGE('',*,*,#672,.T.);
#910=ORIENTED_EDGE('',*,*,#688,.F.);
#911=ORIENTED_EDGE('',*,*,#687,.T.);
#912=ORIENTED_EDGE('',*,*,#685,.T.);
#913=ORIENTED_EDGE('',*,*,#689,.F.);
#914=ORIENTED_EDGE('',*,*,#690,.T.);
#915=ORIENTED_EDGE('',*,*,#641,.F.);
#916=ORIENTED_EDGE('',*,*,#690,.F.);
#917=ORIENTED_EDGE('',*,*,#691,.F.);
#918=ORIENTED_EDGE('',*,*,#692,.T.);
#919=ORIENTED_EDGE('',*,*,#673,.T.);
#920=ORIENTED_EDGE('',*,*,#692,.F.);
#921=ORIENTED_EDGE('',*,*,#691,.T.);
#922=ORIENTED_EDGE('',*,*,#689,.T.);
#923=ORIENTED_EDGE('',*,*,#693,.F.);
#924=ORIENTED_EDGE('',*,*,#694,.T.);
#925=ORIENTED_EDGE('',*,*,#639,.F.);
#926=ORIENTED_EDGE('',*,*,#694,.F.);
#927=ORIENTED_EDGE('',*,*,#695,.F.);
#928=ORIENTED_EDGE('',*,*,#696,.T.);
#929=ORIENTED_EDGE('',*,*,#674,.T.);
#930=ORIENTED_EDGE('',*,*,#696,.F.);
#931=ORIENTED_EDGE('',*,*,#695,.T.);
#932=ORIENTED_EDGE('',*,*,#693,.T.);
#933=ORIENTED_EDGE('',*,*,#697,.T.);
#934=ORIENTED_EDGE('',*,*,#698,.T.);
#935=ORIENTED_EDGE('',*,*,#648,.F.);
#936=ORIENTED_EDGE('',*,*,#698,.F.);
#937=ORIENTED_EDGE('',*,*,#699,.T.);
#938=ORIENTED_EDGE('',*,*,#700,.T.);
#939=ORIENTED_EDGE('',*,*,#665,.F.);
#940=ORIENTED_EDGE('',*,*,#700,.F.);
#941=ORIENTED_EDGE('',*,*,#699,.F.);
#942=ORIENTED_EDGE('',*,*,#697,.F.);
#943=ORIENTED_EDGE('',*,*,#701,.F.);
#944=ORIENTED_EDGE('',*,*,#702,.T.);
#945=ORIENTED_EDGE('',*,*,#703,.F.);
#946=ORIENTED_EDGE('',*,*,#704,.F.);
#947=ORIENTED_EDGE('',*,*,#703,.T.);
#948=ORIENTED_EDGE('',*,*,#705,.F.);
#949=ORIENTED_EDGE('',*,*,#706,.F.);
#950=ORIENTED_EDGE('',*,*,#707,.T.);
#951=ORIENTED_EDGE('',*,*,#706,.T.);
#952=ORIENTED_EDGE('',*,*,#708,.F.);
#953=ORIENTED_EDGE('',*,*,#709,.F.);
#954=ORIENTED_EDGE('',*,*,#710,.F.);
#955=ORIENTED_EDGE('',*,*,#711,.T.);
#956=ORIENTED_EDGE('',*,*,#712,.F.);
#957=ORIENTED_EDGE('',*,*,#713,.F.);
#958=ORIENTED_EDGE('',*,*,#714,.F.);
#959=ORIENTED_EDGE('',*,*,#715,.F.);
#960=ORIENTED_EDGE('',*,*,#711,.F.);
#961=ORIENTED_EDGE('',*,*,#716,.F.);
#962=ORIENTED_EDGE('',*,*,#713,.T.);
#963=ORIENTED_EDGE('',*,*,#709,.T.);
#964=ORIENTED_EDGE('',*,*,#715,.T.);
#965=ORIENTED_EDGE('',*,*,#717,.F.);
#966=ORIENTED_EDGE('',*,*,#718,.T.);
#967=ORIENTED_EDGE('',*,*,#719,.F.);
#968=ORIENTED_EDGE('',*,*,#720,.F.);
#969=ORIENTED_EDGE('',*,*,#721,.F.);
#970=ORIENTED_EDGE('',*,*,#722,.F.);
#971=ORIENTED_EDGE('',*,*,#723,.T.);
#972=ORIENTED_EDGE('',*,*,#717,.T.);
#973=ORIENTED_EDGE('',*,*,#712,.T.);
#974=ORIENTED_EDGE('',*,*,#714,.T.);
#975=ORIENTED_EDGE('',*,*,#724,.T.);
#976=ORIENTED_EDGE('',*,*,#725,.T.);
#977=ORIENTED_EDGE('',*,*,#726,.T.);
#978=ORIENTED_EDGE('',*,*,#727,.F.);
#979=ORIENTED_EDGE('',*,*,#702,.F.);
#980=ORIENTED_EDGE('',*,*,#701,.T.);
#981=ORIENTED_EDGE('',*,*,#728,.T.);
#982=ORIENTED_EDGE('',*,*,#729,.T.);
#983=ORIENTED_EDGE('',*,*,#730,.T.);
#984=ORIENTED_EDGE('',*,*,#731,.F.);
#985=ORIENTED_EDGE('',*,*,#732,.T.);
#986=ORIENTED_EDGE('',*,*,#733,.T.);
#987=ORIENTED_EDGE('',*,*,#734,.F.);
#988=ORIENTED_EDGE('',*,*,#735,.F.);
#989=ORIENTED_EDGE('',*,*,#736,.F.);
#990=ORIENTED_EDGE('',*,*,#737,.T.);
#991=ORIENTED_EDGE('',*,*,#738,.F.);
#992=ORIENTED_EDGE('',*,*,#739,.F.);
#993=ORIENTED_EDGE('',*,*,#740,.F.);
#994=ORIENTED_EDGE('',*,*,#736,.T.);
#995=ORIENTED_EDGE('',*,*,#741,.F.);
#996=ORIENTED_EDGE('',*,*,#729,.F.);
#997=ORIENTED_EDGE('',*,*,#742,.F.);
#998=ORIENTED_EDGE('',*,*,#733,.F.);
#999=ORIENTED_EDGE('',*,*,#743,.F.);
#1000=ORIENTED_EDGE('',*,*,#738,.T.);
#1001=ORIENTED_EDGE('',*,*,#744,.F.);
#1002=ORIENTED_EDGE('',*,*,#745,.F.);
#1003=ORIENTED_EDGE('',*,*,#746,.F.);
#1004=ORIENTED_EDGE('',*,*,#739,.T.);
#1005=ORIENTED_EDGE('',*,*,#741,.T.);
#1006=ORIENTED_EDGE('',*,*,#735,.T.);
#1007=ORIENTED_EDGE('',*,*,#747,.T.);
#1008=ORIENTED_EDGE('',*,*,#748,.F.);
#1009=ORIENTED_EDGE('',*,*,#749,.F.);
#1010=ORIENTED_EDGE('',*,*,#750,.T.);
#1011=ORIENTED_EDGE('',*,*,#751,.T.);
#1012=ORIENTED_EDGE('',*,*,#744,.T.);
#1013=ORIENTED_EDGE('',*,*,#743,.T.);
#1014=ORIENTED_EDGE('',*,*,#752,.T.);
#1015=ORIENTED_EDGE('',*,*,#753,.F.);
#1016=ORIENTED_EDGE('',*,*,#754,.T.);
#1017=ORIENTED_EDGE('',*,*,#755,.F.);
#1018=ORIENTED_EDGE('',*,*,#707,.F.);
#1019=ORIENTED_EDGE('',*,*,#756,.T.);
#1020=ORIENTED_EDGE('',*,*,#721,.T.);
#1021=ORIENTED_EDGE('',*,*,#704,.T.);
#1022=ORIENTED_EDGE('',*,*,#755,.T.);
#1023=ORIENTED_EDGE('',*,*,#753,.T.);
#1024=ORIENTED_EDGE('',*,*,#757,.T.);
#1025=ORIENTED_EDGE('',*,*,#758,.F.);
#1026=ORIENTED_EDGE('',*,*,#759,.F.);
#1027=ORIENTED_EDGE('',*,*,#760,.F.);
#1028=ORIENTED_EDGE('',*,*,#761,.T.);
#1029=ORIENTED_EDGE('',*,*,#762,.F.);
#1030=ORIENTED_EDGE('',*,*,#737,.F.);
#1031=ORIENTED_EDGE('',*,*,#742,.T.);
#1032=ORIENTED_EDGE('',*,*,#762,.T.);
#1033=ORIENTED_EDGE('',*,*,#763,.T.);
#1034=ORIENTED_EDGE('',*,*,#764,.T.);
#1035=ORIENTED_EDGE('',*,*,#765,.F.);
#1036=ORIENTED_EDGE('',*,*,#766,.F.);
#1037=ORIENTED_EDGE('',*,*,#767,.F.);
#1038=ORIENTED_EDGE('',*,*,#708,.T.);
#1039=ORIENTED_EDGE('',*,*,#727,.T.);
#1040=ORIENTED_EDGE('',*,*,#768,.T.);
#1041=ORIENTED_EDGE('',*,*,#765,.T.);
#1042=ORIENTED_EDGE('',*,*,#705,.T.);
#1043=ORIENTED_EDGE('',*,*,#723,.F.);
#1044=ORIENTED_EDGE('',*,*,#769,.T.);
#1045=ORIENTED_EDGE('',*,*,#770,.F.);
#1046=ORIENTED_EDGE('',*,*,#771,.F.);
#1047=ORIENTED_EDGE('',*,*,#725,.F.);
#1048=ORIENTED_EDGE('',*,*,#772,.T.);
#1049=ORIENTED_EDGE('',*,*,#773,.F.);
#1050=ORIENTED_EDGE('',*,*,#774,.F.);
#1051=ORIENTED_EDGE('',*,*,#710,.T.);
#1052=ORIENTED_EDGE('',*,*,#720,.T.);
#1053=ORIENTED_EDGE('',*,*,#775,.F.);
#1054=ORIENTED_EDGE('',*,*,#776,.F.);
#1055=ORIENTED_EDGE('',*,*,#724,.F.);
#1056=ORIENTED_EDGE('',*,*,#716,.T.);
#1057=ORIENTED_EDGE('',*,*,#767,.T.);
#1058=ORIENTED_EDGE('',*,*,#777,.T.);
#1059=ORIENTED_EDGE('',*,*,#778,.F.);
#1060=ORIENTED_EDGE('',*,*,#757,.F.);
#1061=ORIENTED_EDGE('',*,*,#778,.T.);
#1062=ORIENTED_EDGE('',*,*,#779,.T.);
#1063=ORIENTED_EDGE('',*,*,#780,.T.);
#1064=ORIENTED_EDGE('',*,*,#758,.T.);
#1065=ORIENTED_EDGE('',*,*,#775,.T.);
#1066=ORIENTED_EDGE('',*,*,#719,.T.);
#1067=ORIENTED_EDGE('',*,*,#781,.T.);
#1068=ORIENTED_EDGE('',*,*,#782,.T.);
#1069=ORIENTED_EDGE('',*,*,#764,.F.);
#1070=ORIENTED_EDGE('',*,*,#783,.F.);
#1071=ORIENTED_EDGE('',*,*,#773,.T.);
#1072=ORIENTED_EDGE('',*,*,#784,.F.);
#1073=ORIENTED_EDGE('',*,*,#728,.F.);
#1074=ORIENTED_EDGE('',*,*,#730,.F.);
#1075=ORIENTED_EDGE('',*,*,#750,.F.);
#1076=ORIENTED_EDGE('',*,*,#770,.T.);
#1077=ORIENTED_EDGE('',*,*,#785,.T.);
#1078=ORIENTED_EDGE('',*,*,#752,.F.);
#1079=ORIENTED_EDGE('',*,*,#732,.F.);
#1080=ORIENTED_EDGE('',*,*,#731,.T.);
#1081=ORIENTED_EDGE('',*,*,#749,.T.);
#1082=ORIENTED_EDGE('',*,*,#786,.F.);
#1083=ORIENTED_EDGE('',*,*,#787,.F.);
#1084=ORIENTED_EDGE('',*,*,#781,.F.);
#1085=ORIENTED_EDGE('',*,*,#718,.F.);
#1086=ORIENTED_EDGE('',*,*,#771,.T.);
#1087=ORIENTED_EDGE('',*,*,#787,.T.);
#1088=ORIENTED_EDGE('',*,*,#788,.F.);
#1089=ORIENTED_EDGE('',*,*,#789,.F.);
#1090=ORIENTED_EDGE('',*,*,#772,.F.);
#1091=ORIENTED_EDGE('',*,*,#776,.T.);
#1092=ORIENTED_EDGE('',*,*,#782,.F.);
#1093=ORIENTED_EDGE('',*,*,#740,.T.);
#1094=ORIENTED_EDGE('',*,*,#784,.T.);
#1095=ORIENTED_EDGE('',*,*,#789,.T.);
#1096=ORIENTED_EDGE('',*,*,#790,.F.);
#1097=ORIENTED_EDGE('',*,*,#747,.F.);
#1098=ORIENTED_EDGE('',*,*,#734,.T.);
#1099=ORIENTED_EDGE('',*,*,#791,.T.);
#1100=ORIENTED_EDGE('',*,*,#792,.F.);
#1101=ORIENTED_EDGE('',*,*,#793,.F.);
#1102=ORIENTED_EDGE('',*,*,#779,.F.);
#1103=ORIENTED_EDGE('',*,*,#777,.F.);
#1104=ORIENTED_EDGE('',*,*,#766,.T.);
#1105=ORIENTED_EDGE('',*,*,#768,.F.);
#1106=ORIENTED_EDGE('',*,*,#726,.F.);
#1107=ORIENTED_EDGE('',*,*,#774,.T.);
#1108=ORIENTED_EDGE('',*,*,#783,.T.);
#1109=ORIENTED_EDGE('',*,*,#763,.F.);
#1110=ORIENTED_EDGE('',*,*,#761,.F.);
#1111=ORIENTED_EDGE('',*,*,#793,.T.);
#1112=ORIENTED_EDGE('',*,*,#794,.F.);
#1113=ORIENTED_EDGE('',*,*,#795,.F.);
#1114=ORIENTED_EDGE('',*,*,#745,.T.);
#1115=ORIENTED_EDGE('',*,*,#751,.F.);
#1116=ORIENTED_EDGE('',*,*,#785,.F.);
#1117=ORIENTED_EDGE('',*,*,#769,.F.);
#1118=ORIENTED_EDGE('',*,*,#722,.T.);
#1119=ORIENTED_EDGE('',*,*,#756,.F.);
#1120=ORIENTED_EDGE('',*,*,#754,.F.);
#1121=ORIENTED_EDGE('',*,*,#759,.T.);
#1122=ORIENTED_EDGE('',*,*,#780,.F.);
#1123=ORIENTED_EDGE('',*,*,#746,.T.);
#1124=ORIENTED_EDGE('',*,*,#795,.T.);
#1125=ORIENTED_EDGE('',*,*,#796,.F.);
#1126=ORIENTED_EDGE('',*,*,#797,.F.);
#1127=ORIENTED_EDGE('',*,*,#760,.T.);
#1128=ORIENTED_EDGE('',*,*,#797,.T.);
#1129=ORIENTED_EDGE('',*,*,#798,.F.);
#1130=ORIENTED_EDGE('',*,*,#791,.F.);
#1131=ORIENTED_EDGE('',*,*,#798,.T.);
#1132=ORIENTED_EDGE('',*,*,#796,.T.);
#1133=ORIENTED_EDGE('',*,*,#794,.T.);
#1134=ORIENTED_EDGE('',*,*,#792,.T.);
#1135=ORIENTED_EDGE('',*,*,#790,.T.);
#1136=ORIENTED_EDGE('',*,*,#788,.T.);
#1137=ORIENTED_EDGE('',*,*,#786,.T.);
#1138=ORIENTED_EDGE('',*,*,#748,.T.);
#1139=PLANE('',#1278);
#1140=PLANE('',#1279);
#1141=PLANE('',#1280);
#1142=PLANE('',#1284);
#1143=PLANE('',#1285);
#1144=PLANE('',#1289);
#1145=PLANE('',#1290);
#1146=PLANE('',#1291);
#1147=PLANE('',#1292);
#1148=PLANE('',#1296);
#1149=PLANE('',#1297);
#1150=PLANE('',#1301);
#1151=PLANE('',#1302);
#1152=PLANE('',#1303);
#1153=PLANE('',#1308);
#1154=PLANE('',#1313);
#1155=PLANE('',#1318);
#1156=PLANE('',#1323);
#1157=PLANE('',#1328);
#1158=PLANE('',#1333);
#1159=PLANE('',#1334);
#1160=PLANE('',#1338);
#1161=PLANE('',#1339);
#1162=PLANE('',#1341);
#1163=PLANE('',#1344);
#1164=PLANE('',#1345);
#1165=PLANE('',#1346);
#1166=PLANE('',#1348);
#1167=PLANE('',#1350);
#1168=PLANE('',#1352);
#1169=PLANE('',#1356);
#1170=PLANE('',#1357);
#1171=PLANE('',#1358);
#1172=PLANE('',#1359);
#1173=PLANE('',#1360);
#1174=PLANE('',#1361);
#1175=PLANE('',#1362);
#1176=PLANE('',#1363);
#1177=PLANE('',#1364);
#1178=PLANE('',#1365);
#1179=PLANE('',#1366);
#1180=PLANE('',#1367);
#1181=PLANE('',#1368);
#1182=PLANE('',#1369);
#1183=PLANE('',#1370);
#1184=PLANE('',#1371);
#1185=PLANE('',#1372);
#1186=PLANE('',#1373);
#1187=PLANE('',#1374);
#1188=PLANE('',#1375);
#1189=PLANE('',#1376);
#1190=PLANE('',#1377);
#1191=PLANE('',#1378);
#1192=PLANE('',#1379);
#1193=ADVANCED_FACE('',(#85),#1139,.T.);
#1194=ADVANCED_FACE('',(#86),#1140,.T.);
#1195=ADVANCED_FACE('',(#87,#33,#34,#35),#1141,.T.);
#1196=ADVANCED_FACE('',(#88),#1142,.T.);
#1197=ADVANCED_FACE('',(#89,#36,#37,#38),#1143,.T.);
#1198=ADVANCED_FACE('',(#90),#1144,.T.);
#1199=ADVANCED_FACE('',(#91),#1145,.T.);
#1200=ADVANCED_FACE('',(#92),#1146,.T.);
#1201=ADVANCED_FACE('',(#93,#39,#40,#41),#1147,.T.);
#1202=ADVANCED_FACE('',(#94),#1148,.T.);
#1203=ADVANCED_FACE('',(#95,#42,#43,#44),#1149,.T.);
#1204=ADVANCED_FACE('',(#96),#1150,.T.);
#1205=ADVANCED_FACE('',(#97),#1151,.T.);
#1206=ADVANCED_FACE('',(#98),#1152,.F.);
#1207=ADVANCED_FACE('',(#99),#17,.F.);
#1208=ADVANCED_FACE('',(#100),#18,.T.);
#1209=ADVANCED_FACE('',(#101,#45),#1153,.F.);
#1210=ADVANCED_FACE('',(#102),#19,.F.);
#1211=ADVANCED_FACE('',(#103),#20,.T.);
#1212=ADVANCED_FACE('',(#104,#46),#1154,.F.);
#1213=ADVANCED_FACE('',(#105),#21,.F.);
#1214=ADVANCED_FACE('',(#106),#22,.T.);
#1215=ADVANCED_FACE('',(#107,#47),#1155,.T.);
#1216=ADVANCED_FACE('',(#108),#23,.F.);
#1217=ADVANCED_FACE('',(#109),#24,.T.);
#1218=ADVANCED_FACE('',(#110,#48),#1156,.T.);
#1219=ADVANCED_FACE('',(#111),#25,.F.);
#1220=ADVANCED_FACE('',(#112),#26,.T.);
#1221=ADVANCED_FACE('',(#113,#49),#1157,.T.);
#1222=ADVANCED_FACE('',(#114),#27,.F.);
#1223=ADVANCED_FACE('',(#115),#28,.T.);
#1224=ADVANCED_FACE('',(#116,#50),#1158,.F.);
#1225=ADVANCED_FACE('',(#117),#1159,.T.);
#1226=ADVANCED_FACE('',(#118),#29,.T.);
#1227=ADVANCED_FACE('',(#119),#1160,.T.);
#1228=ADVANCED_FACE('',(#120),#1161,.T.);
#1229=ADVANCED_FACE('',(#121),#1162,.T.);
#1230=ADVANCED_FACE('',(#122),#30,.T.);
#1231=ADVANCED_FACE('',(#123),#1163,.T.);
#1232=ADVANCED_FACE('',(#124),#1164,.T.);
#1233=ADVANCED_FACE('',(#125),#1165,.T.);
#1234=ADVANCED_FACE('',(#126),#1166,.T.);
#1235=ADVANCED_FACE('',(#127),#1167,.T.);
#1236=ADVANCED_FACE('',(#128),#1168,.T.);
#1237=ADVANCED_FACE('',(#129),#31,.T.);
#1238=ADVANCED_FACE('',(#130),#32,.T.);
#1239=ADVANCED_FACE('',(#131),#1169,.T.);
#1240=ADVANCED_FACE('',(#132),#1170,.T.);
#1241=ADVANCED_FACE('',(#133),#1171,.T.);
#1242=ADVANCED_FACE('',(#134),#1172,.T.);
#1243=ADVANCED_FACE('',(#135),#1173,.T.);
#1244=ADVANCED_FACE('',(#136),#1174,.T.);
#1245=ADVANCED_FACE('',(#137),#1175,.T.);
#1246=ADVANCED_FACE('',(#138),#1176,.T.);
#1247=ADVANCED_FACE('',(#139),#1177,.T.);
#1248=ADVANCED_FACE('',(#140),#1178,.T.);
#1249=ADVANCED_FACE('',(#141),#1179,.T.);
#1250=ADVANCED_FACE('',(#142),#1180,.T.);
#1251=ADVANCED_FACE('',(#143),#1181,.T.);
#1252=ADVANCED_FACE('',(#144),#1182,.T.);
#1253=ADVANCED_FACE('',(#145,#51),#1183,.T.);
#1254=ADVANCED_FACE('',(#146),#1184,.F.);
#1255=ADVANCED_FACE('',(#147),#1185,.T.);
#1256=ADVANCED_FACE('',(#148),#1186,.T.);
#1257=ADVANCED_FACE('',(#149),#1187,.T.);
#1258=ADVANCED_FACE('',(#150),#1188,.T.);
#1259=ADVANCED_FACE('',(#151),#1189,.T.);
#1260=ADVANCED_FACE('',(#152),#1190,.T.);
#1261=ADVANCED_FACE('',(#153),#1191,.T.);
#1262=ADVANCED_FACE('',(#154,#52),#1192,.T.);
#1263=CLOSED_SHELL('',(#1193,#1194,#1195,#1196,#1197,#1198,#1199,#1200,
#1201,#1202,#1203,#1204,#1205,#1206,#1207,#1208,#1209,#1210,#1211,#1212,
#1213,#1214,#1215,#1216,#1217,#1218,#1219,#1220,#1221,#1222,#1223,#1224));
#1264=CLOSED_SHELL('',(#1225,#1226,#1227,#1228,#1229,#1230,#1231,#1232,
#1233,#1234,#1235,#1236,#1237,#1238,#1239,#1240,#1241,#1242,#1243,#1244,
#1245,#1246,#1247,#1248,#1249,#1250,#1251,#1252,#1253,#1254,#1255,#1256,
#1257,#1258,#1259,#1260,#1261,#1262));
#1265=DERIVED_UNIT_ELEMENT(#1267,1.);
#1266=DERIVED_UNIT_ELEMENT(#2078,-3.);
#1267=(
MASS_UNIT()
NAMED_UNIT(*)
SI_UNIT(.KILO.,.GRAM.)
);
#1268=DERIVED_UNIT((#1265,#1266));
#1269=MEASURE_REPRESENTATION_ITEM('density measure',
POSITIVE_RATIO_MEASURE(7850.),#1268);
#1270=PROPERTY_DEFINITION_REPRESENTATION(#1275,#1272);
#1271=PROPERTY_DEFINITION_REPRESENTATION(#1276,#1273);
#1272=REPRESENTATION('material name',(#1274),#2075);
#1273=REPRESENTATION('density',(#1269),#2075);
#1274=DESCRIPTIVE_REPRESENTATION_ITEM('Steel','Steel');
#1275=PROPERTY_DEFINITION('material property','material name',#2085);
#1276=PROPERTY_DEFINITION('material property','density of part',#2085);
#1277=AXIS2_PLACEMENT_3D('',#1724,#1380,#1381);
#1278=AXIS2_PLACEMENT_3D('',#1725,#1382,#1383);
#1279=AXIS2_PLACEMENT_3D('',#1734,#1388,#1389);
#1280=AXIS2_PLACEMENT_3D('',#1740,#1393,#1394);
#1281=AXIS2_PLACEMENT_3D('',#1747,#1398,#1399);
#1282=AXIS2_PLACEMENT_3D('',#1749,#1400,#1401);
#1283=AXIS2_PLACEMENT_3D('',#1751,#1402,#1403);
#1284=AXIS2_PLACEMENT_3D('',#1752,#1404,#1405);
#1285=AXIS2_PLACEMENT_3D('',#1758,#1409,#1410);
#1286=AXIS2_PLACEMENT_3D('',#1765,#1414,#1415);
#1287=AXIS2_PLACEMENT_3D('',#1767,#1416,#1417);
#1288=AXIS2_PLACEMENT_3D('',#1769,#1418,#1419);
#1289=AXIS2_PLACEMENT_3D('',#1770,#1420,#1421);
#1290=AXIS2_PLACEMENT_3D('',#1776,#1425,#1426);
#1291=AXIS2_PLACEMENT_3D('',#1782,#1430,#1431);
#1292=AXIS2_PLACEMENT_3D('',#1788,#1435,#1436);
#1293=AXIS2_PLACEMENT_3D('',#1795,#1440,#1441);
#1294=AXIS2_PLACEMENT_3D('',#1797,#1442,#1443);
#1295=AXIS2_PLACEMENT_3D('',#1799,#1444,#1445);
#1296=AXIS2_PLACEMENT_3D('',#1800,#1446,#1447);
#1297=AXIS2_PLACEMENT_3D('',#1806,#1451,#1452);
#1298=AXIS2_PLACEMENT_3D('',#1813,#1456,#1457);
#1299=AXIS2_PLACEMENT_3D('',#1815,#1458,#1459);
#1300=AXIS2_PLACEMENT_3D('',#1817,#1460,#1461);
#1301=AXIS2_PLACEMENT_3D('',#1818,#1462,#1463);
#1302=AXIS2_PLACEMENT_3D('',#1821,#1466,#1467);
#1303=AXIS2_PLACEMENT_3D('',#1822,#1468,#1469);
#1304=AXIS2_PLACEMENT_3D('',#1823,#1470,#1471);
#1305=AXIS2_PLACEMENT_3D('',#1825,#1472,#1473);
#1306=AXIS2_PLACEMENT_3D('',#1827,#1475,#1476);
#1307=AXIS2_PLACEMENT_3D('',#1829,#1477,#1478);
#1308=AXIS2_PLACEMENT_3D('',#1831,#1480,#1481);
#1309=AXIS2_PLACEMENT_3D('',#1832,#1482,#1483);
#1310=AXIS2_PLACEMENT_3D('',#1834,#1484,#1485);
#1311=AXIS2_PLACEMENT_3D('',#1836,#1487,#1488);
#1312=AXIS2_PLACEMENT_3D('',#1838,#1489,#1490);
#1313=AXIS2_PLACEMENT_3D('',#1840,#1492,#1493);
#1314=AXIS2_PLACEMENT_3D('',#1841,#1494,#1495);
#1315=AXIS2_PLACEMENT_3D('',#1843,#1496,#1497);
#1316=AXIS2_PLACEMENT_3D('',#1845,#1499,#1500);
#1317=AXIS2_PLACEMENT_3D('',#1847,#1501,#1502);
#1318=AXIS2_PLACEMENT_3D('',#1849,#1504,#1505);
#1319=AXIS2_PLACEMENT_3D('',#1850,#1506,#1507);
#1320=AXIS2_PLACEMENT_3D('',#1852,#1508,#1509);
#1321=AXIS2_PLACEMENT_3D('',#1854,#1511,#1512);
#1322=AXIS2_PLACEMENT_3D('',#1856,#1513,#1514);
#1323=AXIS2_PLACEMENT_3D('',#1858,#1516,#1517);
#1324=AXIS2_PLACEMENT_3D('',#1859,#1518,#1519);
#1325=AXIS2_PLACEMENT_3D('',#1861,#1520,#1521);
#1326=AXIS2_PLACEMENT_3D('',#1863,#1523,#1524);
#1327=AXIS2_PLACEMENT_3D('',#1865,#1525,#1526);
#1328=AXIS2_PLACEMENT_3D('',#1867,#1528,#1529);
#1329=AXIS2_PLACEMENT_3D('',#1868,#1530,#1531);
#1330=AXIS2_PLACEMENT_3D('',#1870,#1532,#1533);
#1331=AXIS2_PLACEMENT_3D('',#1872,#1535,#1536);
#1332=AXIS2_PLACEMENT_3D('',#1874,#1537,#1538);
#1333=AXIS2_PLACEMENT_3D('',#1876,#1540,#1541);
#1334=AXIS2_PLACEMENT_3D('',#1877,#1542,#1543);
#1335=AXIS2_PLACEMENT_3D('',#1883,#1546,#1547);
#1336=AXIS2_PLACEMENT_3D('',#1884,#1548,#1549);
#1337=AXIS2_PLACEMENT_3D('',#1889,#1552,#1553);
#1338=AXIS2_PLACEMENT_3D('',#1890,#1554,#1555);
#1339=AXIS2_PLACEMENT_3D('',#1894,#1558,#1559);
#1340=AXIS2_PLACEMENT_3D('',#1900,#1562,#1563);
#1341=AXIS2_PLACEMENT_3D('',#1901,#1564,#1565);
#1342=AXIS2_PLACEMENT_3D('',#1906,#1567,#1568);
#1343=AXIS2_PLACEMENT_3D('',#1908,#1570,#1571);
#1344=AXIS2_PLACEMENT_3D('',#1911,#1574,#1575);
#1345=AXIS2_PLACEMENT_3D('',#1919,#1580,#1581);
#1346=AXIS2_PLACEMENT_3D('',#1932,#1589,#1590);
#1347=AXIS2_PLACEMENT_3D('',#1937,#1592,#1593);
#1348=AXIS2_PLACEMENT_3D('',#1939,#1595,#1596);
#1349=AXIS2_PLACEMENT_3D('',#1945,#1599,#1600);
#1350=AXIS2_PLACEMENT_3D('',#1946,#1601,#1602);
#1351=AXIS2_PLACEMENT_3D('',#1952,#1605,#1606);
#1352=AXIS2_PLACEMENT_3D('',#1953,#1607,#1608);
#1353=AXIS2_PLACEMENT_3D('',#1958,#1610,#1611);
#1354=AXIS2_PLACEMENT_3D('',#1960,#1613,#1614);
#1355=AXIS2_PLACEMENT_3D('',#1963,#1617,#1618);
#1356=AXIS2_PLACEMENT_3D('',#1966,#1621,#1622);
#1357=AXIS2_PLACEMENT_3D('',#1972,#1626,#1627);
#1358=AXIS2_PLACEMENT_3D('',#1980,#1632,#1633);
#1359=AXIS2_PLACEMENT_3D('',#1984,#1636,#1637);
#1360=AXIS2_PLACEMENT_3D('',#1990,#1641,#1642);
#1361=AXIS2_PLACEMENT_3D('',#1992,#1644,#1645);
#1362=AXIS2_PLACEMENT_3D('',#1998,#1649,#1650);
#1363=AXIS2_PLACEMENT_3D('',#2004,#1654,#1655);
#1364=AXIS2_PLACEMENT_3D('',#2008,#1658,#1659);
#1365=AXIS2_PLACEMENT_3D('',#2014,#1663,#1664);
#1366=AXIS2_PLACEMENT_3D('',#2016,#1666,#1667);
#1367=AXIS2_PLACEMENT_3D('',#2021,#1671,#1672);
#1368=AXIS2_PLACEMENT_3D('',#2027,#1676,#1677);
#1369=AXIS2_PLACEMENT_3D('',#2031,#1680,#1681);
#1370=AXIS2_PLACEMENT_3D('',#2035,#1684,#1685);
#1371=AXIS2_PLACEMENT_3D('',#2042,#1690,#1691);
#1372=AXIS2_PLACEMENT_3D('',#2046,#1695,#1696);
#1373=AXIS2_PLACEMENT_3D('',#2050,#1699,#1700);
#1374=AXIS2_PLACEMENT_3D('',#2054,#1703,#1704);
#1375=AXIS2_PLACEMENT_3D('',#2056,#1706,#1707);
#1376=AXIS2_PLACEMENT_3D('',#2062,#1711,#1712);
#1377=AXIS2_PLACEMENT_3D('',#2066,#1715,#1716);
#1378=AXIS2_PLACEMENT_3D('',#2070,#1719,#1720);
#1379=AXIS2_PLACEMENT_3D('',#2072,#1722,#1723);
#1380=DIRECTION('axis',(0.,0.,1.));
#1381=DIRECTION('refdir',(1.,0.,0.));
#1382=DIRECTION('center_axis',(0.,0.,-1.));
#1383=DIRECTION('ref_axis',(-1.,0.,0.));
#1384=DIRECTION('',(1.,0.,0.));
#1385=DIRECTION('',(0.,1.,0.));
#1386=DIRECTION('',(-1.,0.,0.));
#1387=DIRECTION('',(0.,1.,0.));
#1388=DIRECTION('center_axis',(1.,0.,-1.1349230633413E-32));
#1389=DIRECTION('ref_axis',(-1.1349230633413E-32,0.,-1.));
#1390=DIRECTION('',(-1.1349230633413E-32,0.,-1.));
#1391=DIRECTION('',(-1.1349230633413E-32,0.,-1.));
#1392=DIRECTION('',(0.,1.,0.));
#1393=DIRECTION('center_axis',(0.,0.,-1.));
#1394=DIRECTION('ref_axis',(-1.,0.,0.));
#1395=DIRECTION('',(-1.,0.,0.));
#1396=DIRECTION('',(-1.,0.,0.));
#1397=DIRECTION('',(0.,1.,0.));
#1398=DIRECTION('center_axis',(0.,0.,1.));
#1399=DIRECTION('ref_axis',(-1.,0.,0.));
#1400=DIRECTION('center_axis',(0.,0.,1.));
#1401=DIRECTION('ref_axis',(-1.,0.,0.));
#1402=DIRECTION('center_axis',(0.,0.,1.));
#1403=DIRECTION('ref_axis',(-1.,0.,0.));
#1404=DIRECTION('center_axis',(-1.,0.,0.));
#1405=DIRECTION('ref_axis',(0.,0.,1.));
#1406=DIRECTION('',(0.,0.,1.));
#1407=DIRECTION('',(0.,0.,1.));
#1408=DIRECTION('',(0.,1.,0.));
#1409=DIRECTION('center_axis',(2.48264406893667E-33,0.,1.));
#1410=DIRECTION('ref_axis',(1.,0.,-2.48264406893667E-33));
#1411=DIRECTION('',(1.,0.,-2.48264406893667E-33));
#1412=DIRECTION('',(1.,0.,-2.48264406893667E-33));
#1413=DIRECTION('',(0.,1.,0.));
#1414=DIRECTION('center_axis',(-2.48264406893667E-33,0.,-1.));
#1415=DIRECTION('ref_axis',(-1.,0.,0.));
#1416=DIRECTION('center_axis',(-2.48264406893667E-33,0.,-1.));
#1417=DIRECTION('ref_axis',(-1.,0.,0.));
#1418=DIRECTION('center_axis',(-2.48264406893667E-33,0.,-1.));
#1419=DIRECTION('ref_axis',(-1.,0.,0.));
#1420=DIRECTION('center_axis',(1.,0.,0.));
#1421=DIRECTION('ref_axis',(0.,0.,-1.));
#1422=DIRECTION('',(0.,0.,-1.));
#1423=DIRECTION('',(0.,0.,-1.));
#1424=DIRECTION('',(0.,1.,0.));
#1425=DIRECTION('center_axis',(0.,0.,1.));
#1426=DIRECTION('ref_axis',(1.,0.,0.));
#1427=DIRECTION('',(-1.,0.,0.));
#1428=DIRECTION('',(1.,0.,0.));
#1429=DIRECTION('',(0.,1.,0.));
#1430=DIRECTION('center_axis',(-1.,0.,0.));
#1431=DIRECTION('ref_axis',(0.,0.,1.));
#1432=DIRECTION('',(0.,0.,1.));
#1433=DIRECTION('',(0.,0.,1.));
#1434=DIRECTION('',(0.,1.,0.));
#1435=DIRECTION('center_axis',(-4.95635278850516E-17,0.,-1.));
#1436=DIRECTION('ref_axis',(-1.,0.,4.95635278850516E-17));
#1437=DIRECTION('',(-1.,0.,4.95635278850516E-17));
#1438=DIRECTION('',(-1.,0.,4.95635278850516E-17));
#1439=DIRECTION('',(0.,1.,0.));
#1440=DIRECTION('center_axis',(0.,0.,1.));
#1441=DIRECTION('ref_axis',(-1.,0.,0.));
#1442=DIRECTION('center_axis',(0.,0.,1.));
#1443=DIRECTION('ref_axis',(-1.,0.,0.));
#1444=DIRECTION('center_axis',(0.,0.,1.));
#1445=DIRECTION('ref_axis',(-1.,0.,0.));
#1446=DIRECTION('center_axis',(1.,0.,0.));
#1447=DIRECTION('ref_axis',(0.,0.,-1.));
#1448=DIRECTION('',(0.,0.,-1.));
#1449=DIRECTION('',(0.,0.,-1.));
#1450=DIRECTION('',(0.,1.,0.));
#1451=DIRECTION('center_axis',(0.,0.,1.));
#1452=DIRECTION('ref_axis',(1.,0.,0.));
#1453=DIRECTION('',(1.,0.,0.));
#1454=DIRECTION('',(1.,0.,0.));
#1455=DIRECTION('',(0.,1.,0.));
#1456=DIRECTION('center_axis',(0.,0.,1.));
#1457=DIRECTION('ref_axis',(-1.,0.,0.));
#1458=DIRECTION('center_axis',(0.,0.,1.));
#1459=DIRECTION('ref_axis',(-1.,0.,0.));
#1460=DIRECTION('center_axis',(0.,0.,1.));
#1461=DIRECTION('ref_axis',(-1.,0.,0.));
#1462=DIRECTION('center_axis',(-1.,0.,0.));
#1463=DIRECTION('ref_axis',(0.,0.,1.));
#1464=DIRECTION('',(0.,0.,1.));
#1465=DIRECTION('',(0.,0.,1.));
#1466=DIRECTION('center_axis',(0.,1.,0.));
#1467=DIRECTION('ref_axis',(0.,0.,1.));
#1468=DIRECTION('center_axis',(0.,1.,0.));
#1469=DIRECTION('ref_axis',(1.,0.,0.));
#1470=DIRECTION('center_axis',(0.,0.,1.));
#1471=DIRECTION('ref_axis',(-1.,0.,0.));
#1472=DIRECTION('center_axis',(0.,0.,-1.));
#1473=DIRECTION('ref_axis',(-1.,0.,0.));
#1474=DIRECTION('',(0.,0.,1.));
#1475=DIRECTION('center_axis',(0.,0.,1.));
#1476=DIRECTION('ref_axis',(-1.,0.,0.));
#1477=DIRECTION('center_axis',(0.,0.,1.));
#1478=DIRECTION('ref_axis',(-1.,0.,0.));
#1479=DIRECTION('',(0.,0.,1.));
#1480=DIRECTION('center_axis',(0.,0.,1.));
#1481=DIRECTION('ref_axis',(-1.,0.,0.));
#1482=DIRECTION('center_axis',(0.,0.,1.));
#1483=DIRECTION('ref_axis',(-1.,0.,0.));
#1484=DIRECTION('center_axis',(0.,0.,-1.));
#1485=DIRECTION('ref_axis',(-1.,0.,0.));
#1486=DIRECTION('',(0.,0.,1.));
#1487=DIRECTION('center_axis',(0.,0.,1.));
#1488=DIRECTION('ref_axis',(-1.,0.,0.));
#1489=DIRECTION('center_axis',(0.,0.,1.));
#1490=DIRECTION('ref_axis',(-1.,0.,0.));
#1491=DIRECTION('',(0.,0.,1.));
#1492=DIRECTION('center_axis',(0.,0.,1.));
#1493=DIRECTION('ref_axis',(-1.,0.,0.));
#1494=DIRECTION('center_axis',(0.,0.,1.));
#1495=DIRECTION('ref_axis',(-1.,0.,0.));
#1496=DIRECTION('center_axis',(0.,0.,-1.));
#1497=DIRECTION('ref_axis',(-1.,0.,0.));
#1498=DIRECTION('',(0.,0.,-1.));
#1499=DIRECTION('center_axis',(0.,0.,1.));
#1500=DIRECTION('ref_axis',(-1.,0.,0.));
#1501=DIRECTION('center_axis',(0.,0.,1.));
#1502=DIRECTION('ref_axis',(-1.,0.,0.));
#1503=DIRECTION('',(0.,0.,-1.));
#1504=DIRECTION('center_axis',(0.,0.,1.));
#1505=DIRECTION('ref_axis',(-1.,0.,0.));
#1506=DIRECTION('center_axis',(0.,0.,1.));
#1507=DIRECTION('ref_axis',(-1.,0.,0.));
#1508=DIRECTION('center_axis',(0.,0.,-1.));
#1509=DIRECTION('ref_axis',(-1.,0.,0.));
#1510=DIRECTION('',(0.,0.,-1.));
#1511=DIRECTION('center_axis',(0.,0.,1.));
#1512=DIRECTION('ref_axis',(-1.,0.,0.));
#1513=DIRECTION('center_axis',(0.,0.,1.));
#1514=DIRECTION('ref_axis',(-1.,0.,0.));
#1515=DIRECTION('',(0.,0.,-1.));
#1516=DIRECTION('center_axis',(0.,0.,1.));
#1517=DIRECTION('ref_axis',(-1.,0.,0.));
#1518=DIRECTION('center_axis',(0.,0.,1.));
#1519=DIRECTION('ref_axis',(-1.,0.,0.));
#1520=DIRECTION('center_axis',(0.,0.,-1.));
#1521=DIRECTION('ref_axis',(-1.,0.,0.));
#1522=DIRECTION('',(0.,0.,-1.));
#1523=DIRECTION('center_axis',(0.,0.,1.));
#1524=DIRECTION('ref_axis',(-1.,0.,0.));
#1525=DIRECTION('center_axis',(0.,0.,1.));
#1526=DIRECTION('ref_axis',(-1.,0.,0.));
#1527=DIRECTION('',(0.,0.,-1.));
#1528=DIRECTION('center_axis',(0.,0.,1.));
#1529=DIRECTION('ref_axis',(-1.,0.,0.));
#1530=DIRECTION('center_axis',(0.,0.,1.));
#1531=DIRECTION('ref_axis',(-1.,0.,0.));
#1532=DIRECTION('center_axis',(0.,0.,-1.));
#1533=DIRECTION('ref_axis',(-1.,0.,0.));
#1534=DIRECTION('',(0.,0.,1.));
#1535=DIRECTION('center_axis',(0.,0.,1.));
#1536=DIRECTION('ref_axis',(-1.,0.,0.));
#1537=DIRECTION('center_axis',(0.,0.,1.));
#1538=DIRECTION('ref_axis',(-1.,0.,0.));
#1539=DIRECTION('',(0.,0.,1.));
#1540=DIRECTION('center_axis',(0.,0.,1.));
#1541=DIRECTION('ref_axis',(-1.,0.,0.));
#1542=DIRECTION('center_axis',(0.999999999999901,-4.44799663767937E-7,0.));
#1543=DIRECTION('ref_axis',(0.,0.,-1.));
#1544=DIRECTION('',(0.,-1.,0.));
#1545=DIRECTION('',(0.,0.,1.));
#1546=DIRECTION('center_axis',(-0.999999999999901,4.44799663767937E-7,0.));
#1547=DIRECTION('ref_axis',(4.44799663767937E-7,0.999999999999901,0.));
#1548=DIRECTION('center_axis',(-0.999999999999901,4.44799663767937E-7,0.));
#1549=DIRECTION('ref_axis',(-4.44799663768509E-7,-0.999999999999901,0.));
#1550=DIRECTION('',(-1.,0.,0.));
#1551=DIRECTION('',(1.,0.,0.));
#1552=DIRECTION('center_axis',(-0.999999999999901,4.44799663767937E-7,0.));
#1553=DIRECTION('ref_axis',(4.44799663767937E-7,0.999999999999901,0.));
#1554=DIRECTION('center_axis',(-0.999999999999901,4.44799663767937E-7,0.));
#1555=DIRECTION('ref_axis',(0.,0.,1.));
#1556=DIRECTION('',(0.,-1.,0.));
#1557=DIRECTION('',(0.,0.,1.));
#1558=DIRECTION('center_axis',(-0.999999999999901,4.44799663767937E-7,0.));
#1559=DIRECTION('ref_axis',(0.,0.,1.));
#1560=DIRECTION('',(0.,0.,-1.));
#1561=DIRECTION('',(-4.44799663767937E-7,-0.999999999999901,0.));
#1562=DIRECTION('center_axis',(-0.999999999999901,4.44799663767937E-7,0.));
#1563=DIRECTION('ref_axis',(4.44799663767937E-7,0.999999999999901,0.));
#1564=DIRECTION('center_axis',(0.999999999999901,-4.44799663767937E-7,0.));
#1565=DIRECTION('ref_axis',(0.,0.,-1.));
#1566=DIRECTION('',(0.,0.,1.));
#1567=DIRECTION('center_axis',(-0.999999999999901,4.44799663767937E-7,0.));
#1568=DIRECTION('ref_axis',(4.44799663767937E-7,0.999999999999901,0.));
#1569=DIRECTION('',(0.,1.,0.));
#1570=DIRECTION('center_axis',(-0.999999999999901,4.44799663767937E-7,0.));
#1571=DIRECTION('ref_axis',(-4.44799663768509E-7,-0.999999999999901,0.));
#1572=DIRECTION('',(0.999999999999967,0.,2.56805091636272E-7));
#1573=DIRECTION('',(-0.999999999999901,4.44799663767937E-7,0.));
#1574=DIRECTION('center_axis',(0.,1.,0.));
#1575=DIRECTION('ref_axis',(0.,0.,-1.));
#1576=DIRECTION('',(0.,0.,1.));
#1577=DIRECTION('',(-1.,0.,0.));
#1578=DIRECTION('',(0.,0.,-1.));
#1579=DIRECTION('',(-1.,0.,0.));
#1580=DIRECTION('center_axis',(1.,0.,0.));
#1581=DIRECTION('ref_axis',(0.,1.,0.));
#1582=DIRECTION('',(0.,0.,1.));
#1583=DIRECTION('',(0.,-1.,0.));
#1584=DIRECTION('',(0.,0.707106781186548,0.707106781186547));
#1585=DIRECTION('',(0.,1.,0.));
#1586=DIRECTION('',(0.,0.707106781186548,0.707106781186547));
#1587=DIRECTION('',(0.,0.,1.));
#1588=DIRECTION('',(0.,1.,0.));
#1589=DIRECTION('center_axis',(-0.999999999999901,4.44799663767937E-7,0.));
#1590=DIRECTION('ref_axis',(0.,0.,1.));
#1591=DIRECTION('',(0.,1.,0.));
#1592=DIRECTION('center_axis',(-0.999999999999901,4.44799663767937E-7,0.));
#1593=DIRECTION('ref_axis',(4.44799663767937E-7,0.999999999999901,0.));
#1594=DIRECTION('',(0.,0.,1.));
#1595=DIRECTION('center_axis',(-0.999999999999901,4.44799663767937E-7,0.));
#1596=DIRECTION('ref_axis',(0.,0.,1.));
#1597=DIRECTION('',(0.,0.,1.));
#1598=DIRECTION('',(0.,-1.,0.));
#1599=DIRECTION('center_axis',(-0.999999999999901,4.44799663767937E-7,0.));
#1600=DIRECTION('ref_axis',(4.44799663767937E-7,0.999999999999901,0.));
#1601=DIRECTION('center_axis',(0.999999999999901,-4.44799663767937E-7,0.));
#1602=DIRECTION('ref_axis',(0.,0.,-1.));
#1603=DIRECTION('',(4.44799663767937E-7,0.999999999999901,0.));
#1604=DIRECTION('',(0.,0.,1.));
#1605=DIRECTION('center_axis',(-0.999999999999901,4.44799663767937E-7,0.));
#1606=DIRECTION('ref_axis',(4.44799663767937E-7,0.999999999999901,0.));
#1607=DIRECTION('center_axis',(0.999999999999901,-4.44799663767937E-7,0.));
#1608=DIRECTION('ref_axis',(0.,0.,-1.));
#1609=DIRECTION('',(0.,0.,1.));
#1610=DIRECTION('center_axis',(-0.999999999999901,4.44799663767937E-7,0.));
#1611=DIRECTION('ref_axis',(4.44799663767937E-7,0.999999999999901,0.));
#1612=DIRECTION('',(0.,-1.,0.));
#1613=DIRECTION('center_axis',(-0.999999999999901,4.44799663767937E-7,0.));
#1614=DIRECTION('ref_axis',(-4.44799663906383E-7,-0.999999999999901,0.));
#1615=DIRECTION('',(-0.999999999999901,4.44799663767937E-7,0.));
#1616=DIRECTION('',(0.999999999999967,0.,2.56805491785253E-7));
#1617=DIRECTION('center_axis',(-0.999999999999901,4.44799663767937E-7,0.));
#1618=DIRECTION('ref_axis',(-4.44799663906383E-7,-0.999999999999901,0.));
#1619=DIRECTION('',(1.,0.,0.));
#1620=DIRECTION('',(-1.,0.,0.));
#1621=DIRECTION('center_axis',(1.,0.,0.));
#1622=DIRECTION('ref_axis',(0.,0.,1.));
#1623=DIRECTION('',(0.,0.,1.));
#1624=DIRECTION('',(0.,-1.,0.));
#1625=DIRECTION('',(0.,0.,-1.));
#1626=DIRECTION('center_axis',(0.,1.,0.));
#1627=DIRECTION('ref_axis',(0.,0.,1.));
#1628=DIRECTION('',(1.,0.,0.));
#1629=DIRECTION('',(0.,0.,1.));
#1630=DIRECTION('',(1.,0.,0.));
#1631=DIRECTION('',(0.,0.,1.));
#1632=DIRECTION('center_axis',(0.,-1.,0.));
#1633=DIRECTION('ref_axis',(0.,0.,-1.));
#1634=DIRECTION('',(1.,0.,0.));
#1635=DIRECTION('',(0.,0.,-1.));
#1636=DIRECTION('center_axis',(-1.,0.,0.));
#1637=DIRECTION('ref_axis',(0.,0.,-1.));
#1638=DIRECTION('',(0.,0.,1.));
#1639=DIRECTION('',(0.,-1.,0.));
#1640=DIRECTION('',(0.,0.,-1.));
#1641=DIRECTION('center_axis',(0.,-1.,0.));
#1642=DIRECTION('ref_axis',(0.,0.,-1.));
#1643=DIRECTION('',(1.,0.,0.));
#1644=DIRECTION('center_axis',(0.,-1.,0.));
#1645=DIRECTION('ref_axis',(0.,0.,1.));
#1646=DIRECTION('',(-1.,0.,0.));
#1647=DIRECTION('',(0.,0.,1.));
#1648=DIRECTION('',(-1.,0.,0.));
#1649=DIRECTION('center_axis',(1.,0.,0.));
#1650=DIRECTION('ref_axis',(0.,1.,0.));
#1651=DIRECTION('',(0.,-1.,0.));
#1652=DIRECTION('',(0.,0.,1.));
#1653=DIRECTION('',(0.,1.,0.));
#1654=DIRECTION('center_axis',(0.,0.,1.));
#1655=DIRECTION('ref_axis',(1.,0.,0.));
#1656=DIRECTION('',(-1.,0.,0.));
#1657=DIRECTION('',(0.,-1.,0.));
#1658=DIRECTION('center_axis',(-1.,0.,0.));
#1659=DIRECTION('ref_axis',(0.,-1.,0.));
#1660=DIRECTION('',(0.,-1.,0.));
#1661=DIRECTION('',(0.,0.,1.));
#1662=DIRECTION('',(0.,1.,0.));
#1663=DIRECTION('center_axis',(0.,0.,1.));
#1664=DIRECTION('ref_axis',(1.,0.,0.));
#1665=DIRECTION('',(-1.,0.,0.));
#1666=DIRECTION('center_axis',(0.,-0.707106781186547,0.707106781186548));
#1667=DIRECTION('ref_axis',(0.,-0.707106781186548,-0.707106781186547));
#1668=DIRECTION('',(1.,0.,0.));
#1669=DIRECTION('',(0.,-0.707106781186548,-0.707106781186547));
#1670=DIRECTION('',(1.,0.,0.));
#1671=DIRECTION('center_axis',(0.,-0.707106781186547,0.707106781186548));
#1672=DIRECTION('ref_axis',(0.,-0.707106781186548,-0.707106781186547));
#1673=DIRECTION('',(1.,0.,0.));
#1674=DIRECTION('',(0.,-0.707106781186548,-0.707106781186547));
#1675=DIRECTION('',(1.,0.,0.));
#1676=DIRECTION('center_axis',(0.,0.,-1.));
#1677=DIRECTION('ref_axis',(0.,-1.,0.));
#1678=DIRECTION('',(0.,-1.,0.));
#1679=DIRECTION('',(-1.,0.,0.));
#1680=DIRECTION('center_axis',(0.,0.,1.));
#1681=DIRECTION('ref_axis',(0.,1.,0.));
#1682=DIRECTION('',(-1.,0.,0.));
#1683=DIRECTION('',(0.,1.,0.));
#1684=DIRECTION('center_axis',(-1.,0.,0.));
#1685=DIRECTION('ref_axis',(0.,0.,1.));
#1686=DIRECTION('',(0.,0.,-1.));
#1687=DIRECTION('',(0.,-1.,0.));
#1688=DIRECTION('',(0.,1.,2.48264406893667E-33));
#1689=DIRECTION('',(0.,0.,1.));
#1690=DIRECTION('center_axis',(1.,0.,0.));
#1691=DIRECTION('ref_axis',(0.,1.,0.));
#1692=DIRECTION('',(0.,0.,1.));
#1693=DIRECTION('',(0.,1.,0.));
#1694=DIRECTION('',(0.,-1.,0.));
#1695=DIRECTION('center_axis',(0.,-2.48264406893667E-33,1.));
#1696=DIRECTION('ref_axis',(0.,-1.,-2.48264406893667E-33));
#1697=DIRECTION('',(0.,-1.,-2.48264406893667E-33));
#1698=DIRECTION('',(1.,0.,0.));
#1699=DIRECTION('center_axis',(0.,-1.,0.));
#1700=DIRECTION('ref_axis',(0.,0.,-1.));
#1701=DIRECTION('',(0.,0.,-1.));
#1702=DIRECTION('',(1.,0.,0.));
#1703=DIRECTION('center_axis',(0.,0.,-1.));
#1704=DIRECTION('ref_axis',(0.,1.,0.));
#1705=DIRECTION('',(0.,1.,0.));
#1706=DIRECTION('center_axis',(0.,1.,0.));
#1707=DIRECTION('ref_axis',(0.,0.,1.));
#1708=DIRECTION('',(1.,0.,0.));
#1709=DIRECTION('',(0.,0.,1.));
#1710=DIRECTION('',(1.,0.,0.));
#1711=DIRECTION('center_axis',(0.,0.,-1.));
#1712=DIRECTION('ref_axis',(0.,1.,0.));
#1713=DIRECTION('',(0.,1.,0.));
#1714=DIRECTION('',(1.,0.,0.));
#1715=DIRECTION('center_axis',(0.,-1.,0.));
#1716=DIRECTION('ref_axis',(0.,0.,-1.));
#1717=DIRECTION('',(0.,0.,-1.));
#1718=DIRECTION('',(1.,0.,0.));
#1719=DIRECTION('center_axis',(0.,0.,1.));
#1720=DIRECTION('ref_axis',(0.,-1.,0.));
#1721=DIRECTION('',(0.,-1.,0.));
#1722=DIRECTION('center_axis',(1.,0.,0.));
#1723=DIRECTION('ref_axis',(0.,0.,-1.));
#1724=CARTESIAN_POINT('',(0.,0.,0.));
#1725=CARTESIAN_POINT('Origin',(0.,0.,20.0000002980232));
#1726=CARTESIAN_POINT('',(-4.,0.,20.0000002980232));
#1727=CARTESIAN_POINT('',(0.,0.,20.0000002980232));
#1728=CARTESIAN_POINT('',(-4.00000005960464,0.,20.0000002980232));
#1729=CARTESIAN_POINT('',(-4.,76.2,20.0000002980232));
#1730=CARTESIAN_POINT('',(-4.,0.,20.0000002980232));
#1731=CARTESIAN_POINT('',(0.,76.2,20.0000002980232));
#1732=CARTESIAN_POINT('',(-4.00000005960464,76.2,20.0000002980232));
#1733=CARTESIAN_POINT('',(0.,0.,20.0000002980232));
#1734=CARTESIAN_POINT('Origin',(6.35556881647788E-32,0.,25.6));
#1735=CARTESIAN_POINT('',(6.35556881647788E-32,0.,25.6));
#1736=CARTESIAN_POINT('',(6.35556881647788E-32,0.,25.6));
#1737=CARTESIAN_POINT('',(0.,76.2,25.6));
#1738=CARTESIAN_POINT('',(6.35556881647788E-32,76.2,25.6));
#1739=CARTESIAN_POINT('',(6.35556881647788E-32,0.,25.6));
#1740=CARTESIAN_POINT('Origin',(25.6,0.,25.6));
#1741=CARTESIAN_POINT('',(25.6,0.,25.6));
#1742=CARTESIAN_POINT('',(25.6,0.,25.6));
#1743=CARTESIAN_POINT('',(25.6,76.2,25.6));
#1744=CARTESIAN_POINT('',(25.6,76.2,25.6));
#1745=CARTESIAN_POINT('',(25.6,0.,25.6));
#1746=CARTESIAN_POINT('',(14.2,12.7,25.6));
#1747=CARTESIAN_POINT('Origin',(12.7,12.7,25.6));
#1748=CARTESIAN_POINT('',(14.2,38.1,25.6));
#1749=CARTESIAN_POINT('Origin',(12.7,38.1,25.6));
#1750=CARTESIAN_POINT('',(14.2,63.5,25.6));
#1751=CARTESIAN_POINT('Origin',(12.7,63.5,25.6));
#1752=CARTESIAN_POINT('Origin',(25.6,0.,-6.35556881647788E-32));
#1753=CARTESIAN_POINT('',(25.6,0.,-6.35556881647788E-32));
#1754=CARTESIAN_POINT('',(25.6,0.,-6.35556881647788E-32));
#1755=CARTESIAN_POINT('',(25.6,76.2,0.));
#1756=CARTESIAN_POINT('',(25.6,76.2,-6.35556881647788E-32));
#1757=CARTESIAN_POINT('',(25.6,0.,-6.35556881647788E-32));
#1758=CARTESIAN_POINT('Origin',(0.,0.,0.));
#1759=CARTESIAN_POINT('',(0.,0.,0.));
#1760=CARTESIAN_POINT('',(0.,0.,0.));
#1761=CARTESIAN_POINT('',(0.,76.2,0.));
#1762=CARTESIAN_POINT('',(0.,76.2,0.));
#1763=CARTESIAN_POINT('',(0.,0.,0.));
#1764=CARTESIAN_POINT('',(14.2,12.7,0.));
#1765=CARTESIAN_POINT('Origin',(12.7,12.7,0.));
#1766=CARTESIAN_POINT('',(14.2,38.1,0.));
#1767=CARTESIAN_POINT('Origin',(12.7,38.1,0.));
#1768=CARTESIAN_POINT('',(14.2,63.5,0.));
#1769=CARTESIAN_POINT('Origin',(12.7,63.5,0.));
#1770=CARTESIAN_POINT('Origin',(0.,0.,5.00000007450581));
#1771=CARTESIAN_POINT('',(0.,0.,5.00000007450581));
#1772=CARTESIAN_POINT('',(0.,0.,5.00000007450581));
#1773=CARTESIAN_POINT('',(0.,76.2,5.00000007450581));
#1774=CARTESIAN_POINT('',(0.,76.2,5.00000007450581));
#1775=CARTESIAN_POINT('',(0.,0.,5.00000007450581));
#1776=CARTESIAN_POINT('Origin',(-4.,0.,5.00000007450581));
#1777=CARTESIAN_POINT('',(-4.,0.,5.00000007450581));
#1778=CARTESIAN_POINT('',(0.,0.,5.00000007450581));
#1779=CARTESIAN_POINT('',(-4.,76.2,5.00000007450581));
#1780=CARTESIAN_POINT('',(0.,76.2,5.00000007450581));
#1781=CARTESIAN_POINT('',(-4.,0.,5.00000007450581));
#1782=CARTESIAN_POINT('Origin',(-4.,0.,-4.));
#1783=CARTESIAN_POINT('',(-4.,0.,-4.));
#1784=CARTESIAN_POINT('',(-4.,0.,-4.));
#1785=CARTESIAN_POINT('',(-4.,76.2,-4.));
#1786=CARTESIAN_POINT('',(-4.,76.2,-4.));
#1787=CARTESIAN_POINT('',(-4.,0.,-4.));
#1788=CARTESIAN_POINT('Origin',(29.6,0.,-4.));
#1789=CARTESIAN_POINT('',(29.6,0.,-4.));
#1790=CARTESIAN_POINT('',(29.6,0.,-4.));
#1791=CARTESIAN_POINT('',(29.6,76.2,-4.));
#1792=CARTESIAN_POINT('',(29.6,76.2,-4.));
#1793=CARTESIAN_POINT('',(29.6,0.,-4.));
#1794=CARTESIAN_POINT('',(15.2296998623208,63.5,-4.));
#1795=CARTESIAN_POINT('Origin',(12.7,63.5,-4.));
#1796=CARTESIAN_POINT('',(15.2296998623208,38.1,-4.));
#1797=CARTESIAN_POINT('Origin',(12.7,38.1,-4.));
#1798=CARTESIAN_POINT('',(15.2296998623208,12.7,-4.));
#1799=CARTESIAN_POINT('Origin',(12.7,12.7,-4.));
#1800=CARTESIAN_POINT('Origin',(29.6,0.,29.6));
#1801=CARTESIAN_POINT('',(29.6,0.,29.6));
#1802=CARTESIAN_POINT('',(29.6,0.,29.6));
#1803=CARTESIAN_POINT('',(29.6,76.2,29.6));
#1804=CARTESIAN_POINT('',(29.6,76.2,29.6));
#1805=CARTESIAN_POINT('',(29.6,0.,29.6));
#1806=CARTESIAN_POINT('Origin',(-4.,0.,29.6));
#1807=CARTESIAN_POINT('',(-4.,0.,29.6));
#1808=CARTESIAN_POINT('',(-4.,0.,29.6));
#1809=CARTESIAN_POINT('',(-4.,76.2,29.6));
#1810=CARTESIAN_POINT('',(-4.,76.2,29.6));
#1811=CARTESIAN_POINT('',(-4.,0.,29.6));
#1812=CARTESIAN_POINT('',(15.2296998623208,38.1,29.6));
#1813=CARTESIAN_POINT('Origin',(12.7,38.1,29.6));
#1814=CARTESIAN_POINT('',(15.2296998623208,63.5,29.6));
#1815=CARTESIAN_POINT('Origin',(12.7,63.5,29.6));
#1816=CARTESIAN_POINT('',(15.2296998623208,12.7,29.6));
#1817=CARTESIAN_POINT('Origin',(12.7,12.7,29.6));
#1818=CARTESIAN_POINT('Origin',(-4.,0.,20.0000002980232));
#1819=CARTESIAN_POINT('',(-4.,0.,-4.));
#1820=CARTESIAN_POINT('',(-4.,76.2,-4.));
#1821=CARTESIAN_POINT('Origin',(12.7999999701977,76.2,12.8));
#1822=CARTESIAN_POINT('Origin',(12.7999999701977,0.,12.8));
#1823=CARTESIAN_POINT('Origin',(12.7,63.5,-4.));
#1824=CARTESIAN_POINT('',(14.2,63.5,-5.));
#1825=CARTESIAN_POINT('Origin',(12.7,63.5,-5.));
#1826=CARTESIAN_POINT('',(14.2,63.5,-4.));
#1827=CARTESIAN_POINT('Origin',(12.7,63.5,-4.));
#1828=CARTESIAN_POINT('',(15.2296998623208,63.5,-5.));
#1829=CARTESIAN_POINT('Origin',(12.7,63.5,-5.));
#1830=CARTESIAN_POINT('',(15.2296998623208,63.5,-4.));
#1831=CARTESIAN_POINT('Origin',(12.7,63.5,-5.));
#1832=CARTESIAN_POINT('Origin',(12.7,38.1,-4.));
#1833=CARTESIAN_POINT('',(14.2,38.1,-5.));
#1834=CARTESIAN_POINT('Origin',(12.7,38.1,-5.));
#1835=CARTESIAN_POINT('',(14.2,38.1,-4.));
#1836=CARTESIAN_POINT('Origin',(12.7,38.1,-4.));
#1837=CARTESIAN_POINT('',(15.2296998623208,38.1,-5.));
#1838=CARTESIAN_POINT('Origin',(12.7,38.1,-5.));
#1839=CARTESIAN_POINT('',(15.2296998623208,38.1,-4.));
#1840=CARTESIAN_POINT('Origin',(12.7,38.1,-5.));
#1841=CARTESIAN_POINT('Origin',(12.7,38.1,29.6));
#1842=CARTESIAN_POINT('',(14.2,38.1,30.6));
#1843=CARTESIAN_POINT('Origin',(12.7,38.1,30.6));
#1844=CARTESIAN_POINT('',(14.2,38.1,29.6));
#1845=CARTESIAN_POINT('Origin',(12.7,38.1,29.6));
#1846=CARTESIAN_POINT('',(15.2296998623208,38.1,30.6));
#1847=CARTESIAN_POINT('Origin',(12.7,38.1,30.6));
#1848=CARTESIAN_POINT('',(15.2296998623208,38.1,29.6));
#1849=CARTESIAN_POINT('Origin',(12.7,38.1,30.6));
#1850=CARTESIAN_POINT('Origin',(12.7,63.5,29.6));
#1851=CARTESIAN_POINT('',(14.2,63.5,30.6));
#1852=CARTESIAN_POINT('Origin',(12.7,63.5,30.6));
#1853=CARTESIAN_POINT('',(14.2,63.5,29.6));
#1854=CARTESIAN_POINT('Origin',(12.7,63.5,29.6));
#1855=CARTESIAN_POINT('',(15.2296998623208,63.5,30.6));
#1856=CARTESIAN_POINT('Origin',(12.7,63.5,30.6));
#1857=CARTESIAN_POINT('',(15.2296998623208,63.5,29.6));
#1858=CARTESIAN_POINT('Origin',(12.7,63.5,30.6));
#1859=CARTESIAN_POINT('Origin',(12.7,12.7,29.6));
#1860=CARTESIAN_POINT('',(14.2,12.7,30.6));
#1861=CARTESIAN_POINT('Origin',(12.7,12.7,30.6));
#1862=CARTESIAN_POINT('',(14.2,12.7,29.6));
#1863=CARTESIAN_POINT('Origin',(12.7,12.7,29.6));
#1864=CARTESIAN_POINT('',(15.2296998623208,12.7,30.6));
#1865=CARTESIAN_POINT('Origin',(12.7,12.7,30.6));
#1866=CARTESIAN_POINT('',(15.2296998623208,12.7,29.6));
#1867=CARTESIAN_POINT('Origin',(12.7,12.7,30.6));
#1868=CARTESIAN_POINT('Origin',(12.7,12.7,-4.));
#1869=CARTESIAN_POINT('',(14.2,12.7,-5.));
#1870=CARTESIAN_POINT('Origin',(12.7,12.7,-5.));
#1871=CARTESIAN_POINT('',(14.2,12.7,-4.));
#1872=CARTESIAN_POINT('Origin',(12.7,12.7,-4.));
#1873=CARTESIAN_POINT('',(15.2296998623208,12.7,-5.));
#1874=CARTESIAN_POINT('Origin',(12.7,12.7,-5.));
#1875=CARTESIAN_POINT('',(15.2296998623208,12.7,-4.));
#1876=CARTESIAN_POINT('Origin',(12.7,12.7,-5.));
#1877=CARTESIAN_POINT('Origin',(0.,-87.6,29.6));
#1878=CARTESIAN_POINT('',(0.,-79.6,29.6));
#1879=CARTESIAN_POINT('',(0.,-87.6,29.6));
#1880=CARTESIAN_POINT('',(0.,-79.6,29.6));
#1881=CARTESIAN_POINT('',(0.,-79.5999982208014,37.6));
#1882=CARTESIAN_POINT('',(0.,-79.6,-4.));
#1883=CARTESIAN_POINT('Origin',(3.55839731014385E-6,-79.6000000000016,29.6));
#1884=CARTESIAN_POINT('Origin',(-1.99999644160229,-79.5999991104023,29.6));
#1885=CARTESIAN_POINT('',(-4.,-87.6,29.6));
#1886=CARTESIAN_POINT('',(-4.,-87.6,29.6));
#1887=CARTESIAN_POINT('',(-4.,-79.5999982208014,37.6));
#1888=CARTESIAN_POINT('',(-4.,-79.5999982208014,37.6));
#1889=CARTESIAN_POINT('Origin',(-3.9999964416019,-79.5999982208029,29.6));
#1890=CARTESIAN_POINT('Origin',(-4.,-79.6,29.6));
#1891=CARTESIAN_POINT('',(-4.,-79.5999982208014,29.6));
#1892=CARTESIAN_POINT('',(-4.,-79.6,29.6));
#1893=CARTESIAN_POINT('',(-4.,-79.5999982208014,29.6));
#1894=CARTESIAN_POINT('Origin',(-4.,-79.6,29.6));
#1895=CARTESIAN_POINT('',(-3.99999822080134,-75.6,25.6));
#1896=CARTESIAN_POINT('',(-3.99999466240403,-75.6,22.6717936880648));
#1897=CARTESIAN_POINT('',(-3.99999822080134,-75.6,27.6));
#1898=CARTESIAN_POINT('',(-3.99999335993852,-72.6717929360875,25.6));
#1899=CARTESIAN_POINT('',(-3.99999341696458,-64.7999991104036,25.6));
#1900=CARTESIAN_POINT('Origin',(-3.9999964416019,-79.5999982208029,29.6));
#1901=CARTESIAN_POINT('Origin',(0.,-87.6,29.6));
#1902=CARTESIAN_POINT('',(5.33759596521648E-6,-75.6,22.6717967697266));
#1903=CARTESIAN_POINT('',(0.,-75.6,25.6));
#1904=CARTESIAN_POINT('',(0.,-75.6,-6.35556881647788E-32));
#1905=CARTESIAN_POINT('',(6.64005977748592E-6,-72.6717967697277,25.6));
#1906=CARTESIAN_POINT('Origin',(3.55839731014385E-6,-79.6000000000016,29.6));
#1907=CARTESIAN_POINT('',(0.,-75.6,25.6));
#1908=CARTESIAN_POINT('Origin',(-1.99999644160229,-79.5999991104023,29.6));
#1909=CARTESIAN_POINT('',(-2.,-75.6,22.6717952288942));
#1910=CARTESIAN_POINT('',(-1.99999335993937,-72.6717948529076,25.6));
#1911=CARTESIAN_POINT('Origin',(0.,-75.6,25.6));
#1912=CARTESIAN_POINT('',(0.,-75.6,-6.35556881647788E-32));
#1913=CARTESIAN_POINT('',(0.,-75.6,-6.35556881647788E-32));
#1914=CARTESIAN_POINT('',(-20.,-75.6,0.));
#1915=CARTESIAN_POINT('',(0.,-75.6,-6.35556881647788E-32));
#1916=CARTESIAN_POINT('',(-20.,-75.6,25.6));
#1917=CARTESIAN_POINT('',(-20.,-75.6,-6.35556881647788E-32));
#1918=CARTESIAN_POINT('',(0.,-75.6,25.6));
#1919=CARTESIAN_POINT('Origin',(0.,-62.8,12.8));
#1920=CARTESIAN_POINT('',(0.,-87.6,-4.00000005960464));
#1921=CARTESIAN_POINT('',(0.,-87.6,29.6));
#1922=CARTESIAN_POINT('',(0.,-79.6,-4.));
#1923=CARTESIAN_POINT('',(0.,-79.6,-4.00000005960464));
#1924=CARTESIAN_POINT('',(0.,-69.2,6.4));
#1925=CARTESIAN_POINT('',(0.,-50.,25.6));
#1926=CARTESIAN_POINT('',(0.,-75.6,25.6));
#1927=CARTESIAN_POINT('',(0.,-46.,29.6));
#1928=CARTESIAN_POINT('',(0.,-54.4,21.2));
#1929=CARTESIAN_POINT('',(0.,-46.0000006854534,37.6));
#1930=CARTESIAN_POINT('',(0.,-46.0000006854534,29.6));
#1931=CARTESIAN_POINT('',(0.,-79.5999982208014,37.6));
#1932=CARTESIAN_POINT('Origin',(3.,-79.6,29.6));
#1933=CARTESIAN_POINT('',(3.,-75.6,25.6));
#1934=CARTESIAN_POINT('',(3.,-72.6718006721759,25.6));
#1935=CARTESIAN_POINT('',(3.,-75.6,25.6));
#1936=CARTESIAN_POINT('',(3.,-75.6,22.6718001081935));
#1937=CARTESIAN_POINT('Origin',(3.00000355839672,-79.6000013344006,29.6));
#1938=CARTESIAN_POINT('',(3.,-75.6,-6.35556881647788E-32));
#1939=CARTESIAN_POINT('Origin',(3.,-79.6,29.6));
#1940=CARTESIAN_POINT('',(3.,-79.6,29.6));
#1941=CARTESIAN_POINT('',(3.,-79.6,37.6));
#1942=CARTESIAN_POINT('',(3.,-79.6,29.6));
#1943=CARTESIAN_POINT('',(3.,-87.6,29.6));
#1944=CARTESIAN_POINT('',(3.,-79.6,29.6));
#1945=CARTESIAN_POINT('Origin',(3.00000355839672,-79.6000013344006,29.6));
#1946=CARTESIAN_POINT('Origin',(7.00000010430813,-87.6,29.6));
#1947=CARTESIAN_POINT('',(7.00000544190409,-75.6,25.6));
#1948=CARTESIAN_POINT('',(7.00000674436492,-72.6718034785985,25.6));
#1949=CARTESIAN_POINT('',(7.00000277310572,-81.6000008896005,25.6));
#1950=CARTESIAN_POINT('',(7.00000544190409,-75.6,22.671802162638));
#1951=CARTESIAN_POINT('',(7.00000544190409,-75.6,14.8));
#1952=CARTESIAN_POINT('Origin',(7.00000366270405,-79.6000031135993,29.6));
#1953=CARTESIAN_POINT('Origin',(7.00000010430813,-87.6,29.6));
#1954=CARTESIAN_POINT('',(7.,-79.6,29.6));
#1955=CARTESIAN_POINT('',(7.,-79.6,37.6));
#1956=CARTESIAN_POINT('',(7.,-79.6,29.6));
#1957=CARTESIAN_POINT('',(7.00000010430813,-87.6,29.6));
#1958=CARTESIAN_POINT('Origin',(7.00000366270405,-79.6000031135993,29.6));
#1959=CARTESIAN_POINT('',(7.00000010430813,-79.6,29.6));
#1960=CARTESIAN_POINT('Origin',(5.00000361055038,-79.6000022239999,29.6));
#1961=CARTESIAN_POINT('',(5.00000669221171,-72.6718015617782,25.6));
#1962=CARTESIAN_POINT('',(5.00000361054999,-75.6,22.6718006218054));
#1963=CARTESIAN_POINT('Origin',(5.00000361055038,-79.6000022239999,29.6));
#1964=CARTESIAN_POINT('',(7.,-79.6,37.6));
#1965=CARTESIAN_POINT('',(3.,-87.6,29.6));
#1966=CARTESIAN_POINT('Origin',(7.00000010430813,-79.6,-4.00000005960464));
#1967=CARTESIAN_POINT('',(7.00000010430813,-87.6,-4.00000005960464));
#1968=CARTESIAN_POINT('',(7.00000010430813,-87.6,29.6));
#1969=CARTESIAN_POINT('',(7.00000010430813,-79.6,-4.00000005960464));
#1970=CARTESIAN_POINT('',(7.00000010430813,-79.6,-4.00000005960464));
#1971=CARTESIAN_POINT('',(7.00000010430813,-79.6,12.7999999701977));
#1972=CARTESIAN_POINT('Origin',(3.,-75.6,-6.35556881647788E-32));
#1973=CARTESIAN_POINT('',(23.,-75.6,25.6));
#1974=CARTESIAN_POINT('',(3.,-75.6,25.6));
#1975=CARTESIAN_POINT('',(23.,-75.6,0.));
#1976=CARTESIAN_POINT('',(23.,-75.6,-6.35556881647788E-32));
#1977=CARTESIAN_POINT('',(3.,-75.6,-6.35556881647788E-32));
#1978=CARTESIAN_POINT('',(3.,-75.6,-6.35556881647788E-32));
#1979=CARTESIAN_POINT('',(3.,-75.6,-6.35556881647788E-32));
#1980=CARTESIAN_POINT('Origin',(5.00000005215406,-87.6,12.7999999701977));
#1981=CARTESIAN_POINT('',(3.,-87.6,-4.00000005960464));
#1982=CARTESIAN_POINT('',(7.00000010430813,-87.6,-4.00000005960464));
#1983=CARTESIAN_POINT('',(3.,-87.6,-4.00000005960464));
#1984=CARTESIAN_POINT('Origin',(-4.,-79.6,29.6));
#1985=CARTESIAN_POINT('',(-4.,-79.6,-4.00000005960464));
#1986=CARTESIAN_POINT('',(-4.,-79.6,12.8));
#1987=CARTESIAN_POINT('',(-4.,-87.6,-4.00000005960464));
#1988=CARTESIAN_POINT('',(-4.,-79.6,-4.00000005960464));
#1989=CARTESIAN_POINT('',(-4.,-87.6,-4.00000005960464));
#1990=CARTESIAN_POINT('Origin',(-2.,-87.6,12.7999999701977));
#1991=CARTESIAN_POINT('',(0.,-87.6,-4.00000005960464));
#1992=CARTESIAN_POINT('Origin',(0.,-79.6,-4.));
#1993=CARTESIAN_POINT('',(-20.,-79.6,29.6));
#1994=CARTESIAN_POINT('',(0.,-79.6,29.6));
#1995=CARTESIAN_POINT('',(-20.,-79.6,-4.));
#1996=CARTESIAN_POINT('',(-20.,-79.6,-4.));
#1997=CARTESIAN_POINT('',(0.,-79.6,-4.));
#1998=CARTESIAN_POINT('Origin',(7.,-79.6,29.6));
#1999=CARTESIAN_POINT('',(7.,-46.,29.6));
#2000=CARTESIAN_POINT('',(7.,-62.8,29.6));
#2001=CARTESIAN_POINT('',(7.,-46.,37.6));
#2002=CARTESIAN_POINT('',(7.,-46.,29.6));
#2003=CARTESIAN_POINT('',(7.,-46.,37.6));
#2004=CARTESIAN_POINT('Origin',(5.,-62.8,37.6));
#2005=CARTESIAN_POINT('',(3.,-46.,37.6));
#2006=CARTESIAN_POINT('',(3.,-46.,37.6));
#2007=CARTESIAN_POINT('',(3.,-79.6,37.6));
#2008=CARTESIAN_POINT('Origin',(-4.,-46.0000006854534,29.6));
#2009=CARTESIAN_POINT('',(-4.,-46.0000006854534,37.6));
#2010=CARTESIAN_POINT('',(-4.,-46.0000006854534,37.6));
#2011=CARTESIAN_POINT('',(-4.,-46.0000006854534,29.6));
#2012=CARTESIAN_POINT('',(-4.,-46.0000006854534,29.6));
#2013=CARTESIAN_POINT('',(-4.,-62.8000003427267,29.6));
#2014=CARTESIAN_POINT('Origin',(-2.,-62.7999994531274,37.6));
#2015=CARTESIAN_POINT('',(0.,-46.0000006854534,37.6));
#2016=CARTESIAN_POINT('Origin',(0.,-75.6,-6.35556881647788E-32));
#2017=CARTESIAN_POINT('',(3.,-79.6,-4.));
#2018=CARTESIAN_POINT('',(0.,-79.6,-4.));
#2019=CARTESIAN_POINT('',(3.,-69.2,6.4));
#2020=CARTESIAN_POINT('',(0.,-75.6,-6.35556881647788E-32));
#2021=CARTESIAN_POINT('Origin',(0.,-46.,29.6));
#2022=CARTESIAN_POINT('',(3.,-50.,25.6));
#2023=CARTESIAN_POINT('',(0.,-50.,25.6));
#2024=CARTESIAN_POINT('',(3.,-46.,29.6));
#2025=CARTESIAN_POINT('',(3.,-54.4,21.2));
#2026=CARTESIAN_POINT('',(0.,-46.,29.6));
#2027=CARTESIAN_POINT('Origin',(0.,-50.,25.6));
#2028=CARTESIAN_POINT('',(-20.,-50.,25.6));
#2029=CARTESIAN_POINT('',(-20.,-75.6,25.6));
#2030=CARTESIAN_POINT('',(0.,-50.,25.6));
#2031=CARTESIAN_POINT('Origin',(0.,-79.6,29.6));
#2032=CARTESIAN_POINT('',(-20.,-46.,29.6));
#2033=CARTESIAN_POINT('',(0.,-46.,29.6));
#2034=CARTESIAN_POINT('',(-20.,-79.6,29.6));
#2035=CARTESIAN_POINT('Origin',(-20.,-62.8,12.8));
#2036=CARTESIAN_POINT('',(-20.,-46.,-4.));
#2037=CARTESIAN_POINT('',(-20.,-46.,29.6));
#2038=CARTESIAN_POINT('',(-20.,-46.,-4.));
#2039=CARTESIAN_POINT('',(-20.,-50.,0.));
#2040=CARTESIAN_POINT('',(-20.,-50.,0.));
#2041=CARTESIAN_POINT('',(-20.,-50.,25.6));
#2042=CARTESIAN_POINT('Origin',(3.,-62.8,12.8));
#2043=CARTESIAN_POINT('',(3.,-46.,29.6));
#2044=CARTESIAN_POINT('',(3.,-75.6,25.6));
#2045=CARTESIAN_POINT('',(3.,-79.6,-4.00000005960464));
#2046=CARTESIAN_POINT('Origin',(3.,-50.,0.));
#2047=CARTESIAN_POINT('',(23.,-50.,0.));
#2048=CARTESIAN_POINT('',(23.,-50.,0.));
#2049=CARTESIAN_POINT('',(3.,-50.,0.));
#2050=CARTESIAN_POINT('Origin',(3.,-50.,25.6));
#2051=CARTESIAN_POINT('',(23.,-50.,25.6));
#2052=CARTESIAN_POINT('',(23.,-50.,25.6));
#2053=CARTESIAN_POINT('',(3.,-50.,25.6));
#2054=CARTESIAN_POINT('Origin',(3.,-75.6,25.6));
#2055=CARTESIAN_POINT('',(23.,-75.6,25.6));
#2056=CARTESIAN_POINT('Origin',(3.,-46.,-4.));
#2057=CARTESIAN_POINT('',(23.,-46.,29.6));
#2058=CARTESIAN_POINT('',(3.,-46.,29.6));
#2059=CARTESIAN_POINT('',(23.,-46.,-4.));
#2060=CARTESIAN_POINT('',(23.,-46.,29.6));
#2061=CARTESIAN_POINT('',(3.,-46.,-4.));
#2062=CARTESIAN_POINT('Origin',(3.,-79.6,-4.));
#2063=CARTESIAN_POINT('',(23.,-79.6,-4.));
#2064=CARTESIAN_POINT('',(23.,-46.,-4.));
#2065=CARTESIAN_POINT('',(3.,-79.6,-4.));
#2066=CARTESIAN_POINT('Origin',(3.,-79.6,29.6));
#2067=CARTESIAN_POINT('',(23.,-79.6,29.6));
#2068=CARTESIAN_POINT('',(23.,-79.6,-4.));
#2069=CARTESIAN_POINT('',(3.,-79.6,29.6));
#2070=CARTESIAN_POINT('Origin',(3.,-46.,29.6));
#2071=CARTESIAN_POINT('',(23.,-79.6,29.6));
#2072=CARTESIAN_POINT('Origin',(23.,-62.8,12.8));
#2073=UNCERTAINTY_MEASURE_WITH_UNIT(LENGTH_MEASURE(0.01),#2077,
'DISTANCE_ACCURACY_VALUE',
'Maximum model space distance between geometric entities at asserted c
onnectivities');
#2074=UNCERTAINTY_MEASURE_WITH_UNIT(LENGTH_MEASURE(0.01),#2077,
'DISTANCE_ACCURACY_VALUE',
'Maximum model space distance between geometric entities at asserted c
onnectivities');
#2075=(
GEOMETRIC_REPRESENTATION_CONTEXT(3)
GLOBAL_UNCERTAINTY_ASSIGNED_CONTEXT((#2073))
GLOBAL_UNIT_ASSIGNED_CONTEXT((#2077,#2079,#2080))
REPRESENTATION_CONTEXT('','3D')
);
#2076=(
GEOMETRIC_REPRESENTATION_CONTEXT(3)
GLOBAL_UNCERTAINTY_ASSIGNED_CONTEXT((#2074))
GLOBAL_UNIT_ASSIGNED_CONTEXT((#2077,#2079,#2080))
REPRESENTATION_CONTEXT('','3D')
);
#2077=(
LENGTH_UNIT()
NAMED_UNIT(*)
SI_UNIT(.MILLI.,.METRE.)
);
#2078=(
LENGTH_UNIT()
NAMED_UNIT(*)
SI_UNIT($,.METRE.)
);
#2079=(
NAMED_UNIT(*)
PLANE_ANGLE_UNIT()
SI_UNIT($,.RADIAN.)
);
#2080=(
NAMED_UNIT(*)
SI_UNIT($,.STERADIAN.)
SOLID_ANGLE_UNIT()
);
#2081=SHAPE_DEFINITION_REPRESENTATION(#2082,#2083);
#2082=PRODUCT_DEFINITION_SHAPE('',$,#2085);
#2083=SHAPE_REPRESENTATION('',(#1277),#2075);
#2084=PRODUCT_DEFINITION_CONTEXT('part definition',#2089,'design');
#2085=PRODUCT_DEFINITION('2026-08-27-17-05-18-653',
'Jigs for Sq. tubing',#2086,#2084);
#2086=PRODUCT_DEFINITION_FORMATION('',$,#2091);
#2087=PRODUCT_RELATED_PRODUCT_CATEGORY('Jigs for Sq. tubing',
'Jigs for Sq. tubing',(#2091));
#2088=APPLICATION_PROTOCOL_DEFINITION('international standard',
'automotive_design',2009,#2089);
#2089=APPLICATION_CONTEXT(
'Core Data for Automotive Mechanical Design Process');
#2090=PRODUCT_CONTEXT('part definition',#2089,'mechanical');
#2091=PRODUCT('2026-08-27-17-05-18-653','Jigs for Sq. tubing',$,(#2090));
#2092=PRESENTATION_STYLE_ASSIGNMENT((#2093));
#2093=SURFACE_STYLE_USAGE(.BOTH.,#2094);
#2094=SURFACE_SIDE_STYLE('',(#2095));
#2095=SURFACE_STYLE_FILL_AREA(#2096);
#2096=FILL_AREA_STYLE('Steel - Satin',(#2097));
#2097=FILL_AREA_STYLE_COLOUR('Steel - Satin',#2098);
#2098=COLOUR_RGB('Steel - Satin',0.627450980392157,0.627450980392157,0.627450980392157);
ENDSEC;
END-ISO-10303-21;
